<svg width="101" height="80" viewBox="0 0 101 80" fill="none" xmlns="http://www.w3.org/2000/svg">
<g clip-path="url(#clip0_397_2329)">
<path d="M90.2703 13.9242H87.4581C87.4095 13.9242 87.3628 13.9049 87.3284 13.8706C87.294 13.8364 87.2746 13.7898 87.2746 13.7413V11.3264C87.2746 11.2779 87.294 11.2313 87.3284 11.1971C87.3628 11.1628 87.4095 11.1435 87.4581 11.1435H90.2703C90.319 11.1435 90.3657 11.1628 90.4001 11.1971C90.4345 11.2313 90.4538 11.2779 90.4538 11.3264V13.7413C90.4538 13.7898 90.4345 13.8364 90.4001 13.8706C90.3657 13.9049 90.319 13.9242 90.2703 13.9242ZM87.6416 13.5585H90.0869V11.5092H87.6416V13.5585Z" fill="#4D4D4F"/>
<path d="M90.6839 11.3263H87.0446C86.8727 11.3263 86.708 11.2583 86.5865 11.1372C86.465 11.0161 86.3967 10.8519 86.3967 10.6807C86.3967 10.5094 86.465 10.3452 86.5865 10.2241C86.708 10.103 86.8727 10.035 87.0446 10.035H90.6839C90.8557 10.035 91.0205 10.103 91.142 10.2241C91.2635 10.3452 91.3317 10.5094 91.3317 10.6807C91.3317 10.8519 91.2635 11.0161 91.142 11.1372C91.0205 11.2583 90.8557 11.3263 90.6839 11.3263Z" fill="#60A899"/>
<path d="M90.6839 11.5092H87.0448C86.5863 11.5092 86.2135 11.1375 86.2135 10.6807C86.2135 10.2239 86.5864 9.85217 87.0448 9.85217H90.6839C91.1424 9.85217 91.5154 10.2239 91.5154 10.6807C91.5154 11.1375 91.1424 11.5092 90.6839 11.5092ZM87.0448 10.2177C86.7886 10.2177 86.5804 10.4254 86.5804 10.6805C86.5804 10.9356 86.7888 11.1433 87.0448 11.1433H90.6839C90.94 11.1433 91.1484 10.9356 91.1484 10.6805C91.1484 10.4254 90.94 10.2177 90.6839 10.2177H87.0448Z" fill="#4D4D4F"/>
<path d="M82.1219 55.4291L28.0406 55.4291L28.0406 4.36991L82.1219 4.36991V55.4291Z" fill="white"/>
<path d="M82.1219 55.612H28.0406C27.9919 55.612 27.9453 55.5927 27.9109 55.5584C27.8764 55.5241 27.8571 55.4776 27.8571 55.4291V4.36993C27.8571 4.32143 27.8764 4.27492 27.9109 4.24063C27.9453 4.20634 27.9919 4.18707 28.0406 4.18707H82.1219C82.1706 4.18707 82.2173 4.20634 82.2517 4.24063C82.2861 4.27492 82.3054 4.32143 82.3054 4.36993V55.429C82.3054 55.453 82.3007 55.4768 82.2915 55.499C82.2823 55.5212 82.2688 55.5414 82.2517 55.5584C82.2347 55.5754 82.2144 55.5889 82.1922 55.5981C82.1699 55.6073 82.146 55.612 82.1219 55.612ZM28.2241 55.2463H81.9384V4.55279H28.2241V55.2463Z" fill="#4D4D4F"/>
<path d="M75.9368 8.28051C77.082 8.28051 78.0103 7.35525 78.0103 6.21386V2.56677C78.0103 1.42538 77.082 0.500122 75.9368 0.500122C74.7915 0.500122 73.8632 1.42538 73.8632 2.56677V6.21386C73.8632 7.35525 74.7915 8.28051 75.9368 8.28051Z" fill="#2E2E2E"/>
<path d="M75.9368 8.46336C74.6921 8.46336 73.6797 7.45417 73.6797 6.21385V2.56677C73.6797 1.32627 74.6923 0.317261 75.9368 0.317261C77.1813 0.317261 78.1938 1.32645 78.1938 2.56677V6.21385C78.1938 7.45417 77.1814 8.46336 75.9368 8.46336ZM75.9368 0.682791C74.8945 0.682791 74.0467 1.52796 74.0467 2.56659V6.21367C74.0467 7.25248 74.8947 8.09747 75.9368 8.09747C76.9789 8.09747 77.8269 7.2523 77.8269 6.21367V2.56659C77.8269 1.52796 76.9791 0.682791 75.9368 0.682791Z" fill="#4D4D4F"/>
<path d="M65.3249 8.28051C66.4701 8.28051 67.3985 7.35525 67.3985 6.21386V2.56677C67.3985 1.42538 66.4701 0.500122 65.3249 0.500122C64.1797 0.500122 63.2513 1.42538 63.2513 2.56677V6.21386C63.2511 7.35525 64.1797 8.28051 65.3249 8.28051Z" fill="#2E2E2E"/>
<path d="M65.3249 8.46336C64.0802 8.46336 63.0678 7.45417 63.0678 6.21385V2.56677C63.0678 1.32627 64.0804 0.317261 65.3249 0.317261C66.5694 0.317261 67.5819 1.32645 67.5819 2.56677V6.21385C67.5817 7.45417 66.5694 8.46336 65.3249 8.46336ZM65.3249 0.682791C64.2826 0.682791 63.4348 1.52796 63.4348 2.56659V6.21367C63.4348 7.25248 64.2828 8.09747 65.3249 8.09747C66.367 8.09747 67.215 7.2523 67.215 6.21367V2.56659C67.2148 1.52796 66.367 0.682791 65.3249 0.682791Z" fill="#4D4D4F"/>
<path d="M54.7128 8.28051C55.858 8.28051 56.7864 7.35525 56.7864 6.21386V2.56677C56.7864 1.42538 55.858 0.500122 54.7128 0.500122C53.5676 0.500122 52.6393 1.42538 52.6393 2.56677V6.21386C52.6393 7.35525 53.5676 8.28051 54.7128 8.28051Z" fill="#2E2E2E"/>
<path d="M54.7128 8.46336C53.4683 8.46336 52.4558 7.45417 52.4558 6.21385V2.56677C52.4558 1.32627 53.4683 0.317261 54.7128 0.317261C55.9575 0.317261 56.9699 1.32645 56.9699 2.56677V6.21385C56.9699 7.45417 55.9575 8.46336 54.7128 8.46336ZM54.7128 0.682791C53.6707 0.682791 52.8227 1.52796 52.8227 2.56659V6.21367C52.8227 7.25248 53.6707 8.09747 54.7128 8.09747C55.7551 8.09747 56.6029 7.2523 56.6029 6.21367V2.56659C56.6029 1.52796 55.7551 0.682791 54.7128 0.682791Z" fill="#4D4D4F"/>
<path d="M44.1009 8.28051C45.2462 8.28051 46.1745 7.35525 46.1745 6.21386V2.56677C46.1745 1.42538 45.2462 0.500122 44.1009 0.500122C42.9557 0.500122 42.0274 1.42538 42.0274 2.56677V6.21386C42.0274 7.35525 42.9557 8.28051 44.1009 8.28051Z" fill="#2E2E2E"/>
<path d="M44.1009 8.46336C42.8563 8.46336 41.8439 7.45417 41.8439 6.21385V2.56677C41.8439 1.32627 42.8565 0.317261 44.1009 0.317261C45.3454 0.317261 46.358 1.32645 46.358 2.56677V6.21385C46.358 7.45417 45.3454 8.46336 44.1009 8.46336ZM44.1009 0.682791C43.0587 0.682791 42.2108 1.52796 42.2108 2.56659V6.21367C42.2108 7.25248 43.0588 8.09747 44.1009 8.09747C45.1431 8.09747 45.991 7.2523 45.991 6.21367V2.56659C45.991 1.52796 45.1431 0.682791 44.1009 0.682791Z" fill="#4D4D4F"/>
<path d="M33.4889 8.28051C34.6341 8.28051 35.5625 7.35525 35.5625 6.21386V2.56677C35.5625 1.42538 34.6341 0.500122 33.4889 0.500122C32.3437 0.500122 31.4153 1.42538 31.4153 2.56677V6.21386C31.4153 7.35525 32.3437 8.28051 33.4889 8.28051Z" fill="#2E2E2E"/>
<path d="M33.4889 8.46336C32.2442 8.46336 31.2318 7.45417 31.2318 6.21385V2.56677C31.2318 1.32627 32.2444 0.317261 33.4889 0.317261C34.7334 0.317261 35.7459 1.32645 35.7459 2.56677V6.21385C35.7459 7.45417 34.7335 8.46336 33.4889 8.46336ZM33.4889 0.682791C32.4466 0.682791 31.5988 1.52796 31.5988 2.56659V6.21367C31.5988 7.25248 32.4468 8.09747 33.4889 8.09747C34.531 8.09747 35.379 7.2523 35.379 6.21367V2.56659C35.379 1.52796 34.5312 0.682791 33.4889 0.682791Z" fill="#4D4D4F"/>
<path d="M76.4653 15.4531L31.9846 15.4531V13.0825L76.4653 13.0825V15.4531Z" fill="#60A899"/>
<path d="M76.4654 15.6359H31.9846C31.936 15.6359 31.8893 15.6167 31.8549 15.5824C31.8205 15.5481 31.8011 15.5016 31.8011 15.4531V13.0825C31.8011 13.034 31.8205 12.9875 31.8549 12.9532C31.8893 12.9189 31.936 12.8997 31.9846 12.8997H76.4654C76.514 12.8997 76.5607 12.9189 76.5951 12.9532C76.6295 12.9875 76.6488 13.034 76.6488 13.0825V15.4531C76.6488 15.5016 76.6295 15.5481 76.5951 15.5824C76.5607 15.6167 76.514 15.6359 76.4654 15.6359ZM32.1681 15.2702H76.2819V13.2654H32.1681V15.2702Z" fill="#4D4D4F"/>
<path d="M64.349 20.3377L44.101 20.3377V17.9672L64.349 17.9672V20.3377Z" fill="#60A899"/>
<path d="M64.349 20.5208H44.101C44.0523 20.5208 44.0056 20.5015 43.9712 20.4672C43.9368 20.4329 43.9175 20.3864 43.9175 20.3379V17.9674C43.9175 17.9189 43.9368 17.8724 43.9712 17.8381C44.0056 17.8038 44.0523 17.7845 44.101 17.7845H64.349C64.3977 17.7845 64.4443 17.8038 64.4788 17.8381C64.5132 17.8724 64.5325 17.9189 64.5325 17.9674V20.3379C64.5325 20.3864 64.5132 20.4329 64.4788 20.4672C64.4443 20.5015 64.3977 20.5208 64.349 20.5208ZM44.2844 20.1551H64.1656V18.1502H44.2844V20.1551Z" fill="#4D4D4F"/>
<path d="M74.0461 34.6002H66.3617V26.9414H74.0461V34.6002Z" fill="#60A899"/>
<path d="M74.0461 34.7831H66.3617C66.313 34.7831 66.2664 34.7638 66.232 34.7295C66.1975 34.6952 66.1782 34.6487 66.1782 34.6002V26.9412C66.1782 26.8928 66.1975 26.8462 66.232 26.812C66.2664 26.7777 66.313 26.7584 66.3617 26.7584H74.0461C74.0948 26.7584 74.1415 26.7777 74.1759 26.812C74.2103 26.8462 74.2296 26.8928 74.2296 26.9412V34.6002C74.2296 34.6487 74.2103 34.6952 74.1759 34.7295C74.1415 34.7638 74.0948 34.7831 74.0461 34.7831ZM66.5452 34.4174H73.8627V27.1241H66.5452V34.4174Z" fill="#4D4D4F"/>
<path d="M58.5551 34.6002H50.8706V26.9414H58.5551V34.6002Z" fill="#60A899"/>
<path d="M58.555 34.7831H50.8706C50.8219 34.7831 50.7753 34.7638 50.7409 34.7295C50.7065 34.6952 50.6871 34.6487 50.6871 34.6002V26.9412C50.6871 26.8928 50.7065 26.8462 50.7409 26.812C50.7753 26.7777 50.8219 26.7584 50.8706 26.7584H58.555C58.6037 26.7584 58.6504 26.7777 58.6848 26.812C58.7192 26.8462 58.7385 26.8928 58.7385 26.9412V34.6002C58.7385 34.6487 58.7192 34.6952 58.6848 34.7295C58.6504 34.7638 58.6037 34.7831 58.555 34.7831ZM51.0541 34.4174H58.3716V27.1241H51.0541V34.4174Z" fill="#4D4D4F"/>
<path d="M43.064 34.6002H35.3795V26.9414H43.064V34.6002Z" fill="#60A899"/>
<path d="M43.0642 34.7831H35.3797C35.3311 34.7831 35.2844 34.7638 35.25 34.7295C35.2156 34.6952 35.1963 34.6487 35.1963 34.6002V26.9412C35.1963 26.8928 35.2156 26.8462 35.25 26.812C35.2844 26.7777 35.3311 26.7584 35.3797 26.7584H43.0642C43.1128 26.7584 43.1595 26.7777 43.1939 26.812C43.2283 26.8462 43.2476 26.8928 43.2476 26.9412V34.6002C43.2476 34.6487 43.2283 34.6952 43.1939 34.7295C43.1595 34.7638 43.1128 34.7831 43.0642 34.7831ZM35.563 34.4174H42.8805V27.1241H35.563V34.4174Z" fill="#4D4D4F"/>
<path d="M74.0461 47.5432H66.3617V39.8844H74.0461V47.5432Z" fill="#60A899"/>
<path d="M74.0461 47.7261H66.3617C66.313 47.7261 66.2664 47.7068 66.232 47.6725C66.1975 47.6382 66.1782 47.5917 66.1782 47.5432V39.8844C66.1782 39.8359 66.1975 39.7894 66.232 39.7551C66.2664 39.7208 66.313 39.7016 66.3617 39.7016H74.0461C74.0948 39.7016 74.1415 39.7208 74.1759 39.7551C74.2103 39.7894 74.2296 39.8359 74.2296 39.8844V47.5432C74.2296 47.5917 74.2103 47.6382 74.1759 47.6725C74.1415 47.7068 74.0948 47.7261 74.0461 47.7261ZM66.5452 47.3604H73.8627V40.0673H66.5452V47.3604Z" fill="#4D4D4F"/>
<path d="M58.5551 47.5432H50.8706V39.8844H58.5551V47.5432Z" fill="#60A899"/>
<path d="M58.555 47.7261H50.8706C50.8219 47.7261 50.7753 47.7068 50.7409 47.6725C50.7065 47.6382 50.6871 47.5917 50.6871 47.5432V39.8844C50.6871 39.8359 50.7065 39.7894 50.7409 39.7551C50.7753 39.7208 50.8219 39.7016 50.8706 39.7016H58.555C58.6037 39.7016 58.6504 39.7208 58.6848 39.7551C58.7192 39.7894 58.7385 39.8359 58.7385 39.8844V47.5432C58.7385 47.5917 58.7192 47.6382 58.6848 47.6725C58.6504 47.7068 58.6037 47.7261 58.555 47.7261ZM51.0541 47.3604H58.3716V40.0673H51.0541V47.3604Z" fill="#4D4D4F"/>
<path d="M43.064 47.5432H35.3795V39.8844H43.064V47.5432Z" fill="#60A899"/>
<path d="M43.0642 47.7261H35.3797C35.3311 47.7261 35.2844 47.7068 35.25 47.6725C35.2156 47.6382 35.1963 47.5917 35.1963 47.5432V39.8844C35.1963 39.8359 35.2156 39.7894 35.25 39.7551C35.2844 39.7208 35.3311 39.7016 35.3797 39.7016H43.0642C43.1128 39.7016 43.1595 39.7208 43.1939 39.7551C43.2283 39.7894 43.2476 39.8359 43.2476 39.8844V47.5432C43.2476 47.5917 43.2283 47.6382 43.1939 47.6725C43.1595 47.7068 43.1128 47.7261 43.0642 47.7261ZM35.563 47.3604H42.8805V40.0673H35.563V47.3604Z" fill="#4D4D4F"/>
<path d="M12.2035 16.0117C12.1598 16.0523 12.1136 16.0874 12.0657 16.1223L8.61096 18.75L8.43666 18.799C8.25872 18.848 8.10177 18.9537 7.98979 19.1C7.87781 19.2463 7.81696 19.425 7.81653 19.609C7.8164 19.8107 7.88862 20.0057 8.02015 20.1589C8.15167 20.312 8.33383 20.4133 8.53372 20.4443L9.19733 20.5466C9.56573 20.6025 9.78094 20.9894 9.63875 21.3314C9.53473 21.5795 9.4096 21.8037 9.26044 22.0012C8.79644 22.6192 8.03431 22.8602 7.32006 22.6991C7.08842 22.6469 6.86799 22.5539 6.66912 22.4245C5.70462 21.8052 5.05073 20.646 4.61756 19.518C3.90882 17.6737 4.58527 15.5842 6.23319 14.4883C7.5283 13.6292 8.98487 13.0139 10.6385 12.6945C11.0955 12.6062 11.5736 12.6777 11.9729 12.9159C11.9828 12.9216 11.994 12.9285 12.0039 12.9355C13.1118 13.6166 13.1694 15.1876 12.2035 16.0117Z" fill="#4D4D4F"/>
<path d="M7.76222 22.9319C7.33853 22.9313 6.92411 22.8083 6.56912 22.5777C5.71232 22.0275 4.99789 21.0198 4.44638 19.5833C3.70278 17.6481 4.39574 15.4906 6.13155 14.3362C7.48225 13.4402 8.98689 12.8274 10.6038 12.5149C11.1173 12.4158 11.6371 12.5025 12.0675 12.7591C12.0793 12.7658 12.0963 12.7764 12.1112 12.787C12.6598 13.1237 13.01 13.7002 13.0617 14.3618C13.1148 15.0407 12.8399 15.7082 12.3262 16.1479C12.2781 16.1914 12.2275 16.2321 12.1747 16.2697L8.72251 18.8954C8.70417 18.9094 8.6833 18.9197 8.66104 18.9259L8.48675 18.9749C8.34738 19.0132 8.2244 19.0959 8.13659 19.2104C8.04877 19.3248 8.00093 19.4648 8.00037 19.6089C8.00098 19.7667 8.05785 19.9192 8.16082 20.0391C8.26379 20.159 8.40616 20.2385 8.56252 20.2635L9.22576 20.3657C9.33889 20.3827 9.44662 20.4252 9.54072 20.4901C9.63481 20.5549 9.71278 20.6404 9.76865 20.7399C9.82545 20.8397 9.8586 20.9512 9.86557 21.0658C9.87253 21.1804 9.85312 21.2951 9.80883 21.4011C9.69709 21.6675 9.56224 21.9059 9.40776 22.1109C9.21723 22.3667 8.96903 22.5743 8.68319 22.7169C8.39735 22.8595 8.08188 22.9332 7.76222 22.9319ZM11.019 12.8408C10.9045 12.8408 10.7889 12.8519 10.6733 12.8743C9.10431 13.1774 7.64462 13.7717 6.33483 14.6408C4.74287 15.6996 4.10696 17.6783 4.78892 19.4529C5.31181 20.8154 5.9778 21.7635 6.76837 22.2711C6.94918 22.389 7.14969 22.4737 7.36043 22.5212C8.03669 22.6737 8.70801 22.4324 9.11366 21.8922C9.25016 21.7112 9.36978 21.4991 9.46959 21.2614C9.49237 21.2066 9.50231 21.1475 9.49865 21.0883C9.495 21.0292 9.47784 20.9717 9.44849 20.9202C9.41982 20.869 9.37975 20.8251 9.33137 20.7917C9.283 20.7584 9.2276 20.7366 9.16944 20.728L8.50546 20.6256C8.29872 20.5927 8.10682 20.4982 7.95502 20.3545C7.80322 20.2109 7.69865 20.0247 7.65508 19.8206C7.64015 19.7513 7.6327 19.6805 7.63288 19.6096C7.63356 19.3857 7.70767 19.1681 7.84389 18.9901C7.98012 18.812 8.17101 18.6832 8.38749 18.6233L8.52729 18.584L11.9543 15.9775C11.9991 15.9448 12.0398 15.9143 12.0782 15.8786L12.084 15.8733C12.511 15.5092 12.7394 14.955 12.6955 14.3909C12.6532 13.8471 12.3658 13.3736 11.9075 13.0918C11.8979 13.0857 11.8883 13.0796 11.8787 13.0734C11.6221 12.9198 11.3254 12.8408 11.019 12.8408ZM8.61096 18.7502H8.61279H8.61096Z" fill="#4D4D4F"/>
<path d="M7.62519 27.1817C7.57873 27.1818 7.53397 27.1643 7.5 27.1327C7.46603 27.1011 7.44539 27.0579 7.44227 27.0117L7.13716 22.7121C7.13518 22.6837 7.13989 22.6552 7.15093 22.6289C7.16196 22.6026 7.17901 22.5792 7.20072 22.5606C7.22243 22.542 7.24819 22.5287 7.27595 22.5219C7.30371 22.515 7.33271 22.5146 7.36063 22.5209C8.03598 22.6737 8.70784 22.4322 9.11368 21.8918C9.25018 21.7108 9.3698 21.4987 9.46961 21.261C9.49239 21.2063 9.50233 21.1471 9.49867 21.0879C9.49501 21.0288 9.47786 20.9713 9.44851 20.9198C9.41983 20.8686 9.37977 20.8247 9.33139 20.7914C9.28301 20.758 9.22761 20.7362 9.16945 20.7276L8.50547 20.6252C8.29874 20.5923 8.10683 20.4978 7.95504 20.3542C7.80324 20.2105 7.69867 20.0243 7.65509 19.8203C7.64016 19.7509 7.63272 19.6802 7.63289 19.6092C7.63358 19.3853 7.70768 19.1678 7.84391 18.9897C7.98014 18.8116 8.17103 18.6828 8.38751 18.6229L8.52731 18.5836L11.9543 15.9771C11.9991 15.9444 12.0398 15.9139 12.0782 15.8782C12.0985 15.8594 12.1229 15.8454 12.1495 15.8373C12.176 15.8292 12.2041 15.8272 12.2315 15.8314C12.259 15.8357 12.2851 15.846 12.308 15.8618C12.3308 15.8775 12.3498 15.8982 12.3635 15.9223C12.6759 16.4767 15.2779 21.3396 11.7944 23.4907L12.9139 25.7737C12.9385 25.824 12.9387 25.8827 12.9144 25.9332C12.8902 25.9836 12.844 26.0202 12.7891 26.0323L7.66519 27.1773C7.65206 27.1803 7.63864 27.1817 7.62519 27.1817ZM7.51951 22.9182L7.79306 26.7739L12.4822 25.7262L11.3904 23.4999C11.3699 23.4581 11.3661 23.4101 11.3798 23.3657C11.3936 23.3213 11.4238 23.2837 11.4643 23.2607C14.6031 21.4786 12.6902 17.329 12.1462 16.2911L8.72197 18.8955C8.70363 18.9095 8.68276 18.9199 8.66051 18.9261L8.48621 18.9751C8.34684 19.0134 8.22387 19.0961 8.13605 19.2105C8.04824 19.325 8.0004 19.465 7.99983 19.6091C8.00045 19.7669 8.05732 19.9193 8.16029 20.0393C8.26325 20.1592 8.40562 20.2387 8.56199 20.2637L9.22523 20.3659C9.33834 20.3829 9.44607 20.4254 9.54016 20.4903C9.63425 20.5551 9.71222 20.6405 9.76811 20.74C9.82492 20.8399 9.85807 20.9514 9.86503 21.066C9.872 21.1806 9.85259 21.2953 9.80829 21.4012C9.69656 21.6677 9.56171 21.9061 9.40723 22.1111C8.96195 22.7041 8.25467 23.0011 7.51951 22.9182Z" fill="#4D4D4F"/>
<path d="M30.4154 11.0199L28.7534 13.6993L28.7422 13.7792L25.255 13.3714L25.2619 13.3393L24.1301 11.4474C24.0618 11.3337 24.0263 11.2034 24.0275 11.0708C24.0288 10.9383 24.0668 10.8086 24.1373 10.6962C24.3651 10.336 24.8545 10.2477 25.1919 10.5084L25.5238 10.7635L26.9187 8.22127C26.9601 8.14564 27.0181 8.0803 27.0883 8.03015C27.1586 7.98 27.2394 7.94632 27.3246 7.93164C27.4097 7.91696 27.4971 7.92165 27.5802 7.94537C27.6633 7.96908 27.74 8.0112 27.8045 8.06858L30.3088 10.2912C30.4098 10.3807 30.4759 10.5029 30.4954 10.6362C30.5149 10.7695 30.4866 10.9054 30.4154 11.0199Z" fill="#F8F9FA"/>
<path d="M28.7424 13.962C28.7351 13.9621 28.7279 13.9616 28.7207 13.9608L25.2337 13.553C25.1902 13.5479 25.1499 13.5275 25.1201 13.4954C25.0904 13.4633 25.0732 13.4217 25.0717 13.378L23.9725 11.5408C23.8885 11.4006 23.844 11.2404 23.8439 11.0771C23.8439 10.9076 23.8914 10.7421 23.9815 10.5989C24.0493 10.4919 24.1387 10.4001 24.2441 10.3295C24.3495 10.2589 24.4685 10.211 24.5936 10.1888C24.7177 10.167 24.845 10.1713 24.9673 10.2014C25.0896 10.2315 25.2043 10.2867 25.304 10.3636L25.4656 10.4878L26.7574 8.13329C26.8118 8.03332 26.8883 7.94698 26.981 7.88077C27.0738 7.81457 27.1805 7.77024 27.2929 7.75112C27.4054 7.73155 27.5207 7.73764 27.6304 7.76893C27.7401 7.80022 27.8413 7.8559 27.9263 7.93178L30.4305 10.1542C30.5638 10.2722 30.6511 10.4333 30.677 10.6092C30.7028 10.7851 30.6654 10.9644 30.5716 11.1155L30.5714 11.1157L28.9297 13.7625L28.9238 13.8044C28.9177 13.8481 28.896 13.8881 28.8626 13.917C28.8293 13.946 28.7866 13.962 28.7424 13.962ZM25.3946 13.2037L28.6119 13.5801L30.2593 10.9241C30.3078 10.8462 30.3271 10.7537 30.3139 10.663C30.3007 10.5722 30.2557 10.4891 30.187 10.4281L27.6823 8.20515C27.6385 8.16599 27.5863 8.13724 27.5297 8.12109C27.4732 8.10494 27.4137 8.10179 27.3557 8.11189C27.2977 8.12172 27.2427 8.14457 27.1948 8.17873C27.147 8.21288 27.1076 8.25743 27.0796 8.30901L25.6847 10.8513C25.659 10.8981 25.6138 10.9314 25.5614 10.9425C25.5354 10.948 25.5086 10.9478 25.4827 10.9419C25.4568 10.936 25.4326 10.9246 25.4117 10.9083L25.0798 10.6532C25.0207 10.6072 24.9525 10.5742 24.8797 10.5562C24.807 10.5383 24.7312 10.5359 24.6574 10.5492C24.5828 10.5624 24.5119 10.591 24.449 10.6331C24.3861 10.6752 24.3328 10.7299 24.2923 10.7937C24.2391 10.8782 24.211 10.9765 24.211 11.0773C24.211 11.1744 24.2376 11.2698 24.2877 11.3536L25.3946 13.2037ZM30.4154 11.0199H30.4173H30.4154Z" fill="#4D4D4F"/>
<path d="M28.7422 13.7792L27.0942 24.947C26.9632 25.7161 26.6306 26.437 26.13 27.0367C25.6295 27.6365 24.9789 28.0937 24.244 28.3622L18.2991 30.5329L20.9707 44.7601L6.5638 47.8153L5.83965 43.2677L3.07953 43.8283C1.50188 44.1492 0.0999848 42.7745 0.393903 41.1964L2.32877 30.854C2.49472 29.9672 2.91617 29.1478 3.54165 28.4957C4.16714 27.8437 4.96959 27.3873 5.85102 27.1823L10.0229 26.2126L23.2038 22.5479L25.2553 13.3714L28.7422 13.7792Z" fill="#60A899"/>
<path d="M6.56362 47.9982C6.51999 47.9981 6.47782 47.9825 6.44464 47.9543C6.41147 47.926 6.38945 47.887 6.38253 47.844L5.68847 43.4851L3.11604 44.0073C2.72247 44.0879 2.31505 44.0705 1.92979 43.9569C1.54453 43.8433 1.19327 43.6368 0.907066 43.3558C0.619859 43.075 0.40636 42.7282 0.285386 42.3457C0.164413 41.9633 0.13968 41.5571 0.213367 41.163L2.14824 30.8206C2.32077 29.8989 2.75883 29.0472 3.40894 28.3694C4.05904 27.6917 4.89307 27.2173 5.80919 27.0042L9.98129 26.0345L23.0485 22.4011L25.0763 13.3316C25.0861 13.2874 25.1121 13.2484 25.1491 13.2222C25.1862 13.196 25.2317 13.1844 25.2768 13.1897L28.7638 13.5974C28.7882 13.6002 28.8118 13.6079 28.8332 13.62C28.8545 13.632 28.8733 13.6483 28.8882 13.6677C28.9032 13.6872 28.914 13.7094 28.9202 13.7331C28.9263 13.7568 28.9276 13.7815 28.924 13.8057L27.2761 24.9735C26.9979 26.6037 25.8606 27.9665 24.3075 28.5339L18.5084 30.6514L21.1515 44.7267C21.1603 44.7736 21.1503 44.8221 21.1238 44.8618C21.0972 44.9015 21.0561 44.9292 21.0093 44.9392L6.60233 47.9941C6.5896 47.9968 6.57662 47.9982 6.56362 47.9982ZM5.83946 43.085C5.8831 43.0851 5.92528 43.1007 5.95847 43.1289C5.99167 43.1571 6.01373 43.1962 6.02073 43.2391L6.71443 47.5964L20.7574 44.6186L18.1187 30.5668C18.1107 30.5242 18.1181 30.4803 18.1396 30.4427C18.1611 30.4051 18.1952 30.3763 18.236 30.3614L24.1809 28.1907C24.8849 27.9324 25.5081 27.4937 25.9878 26.9189C26.4676 26.3441 26.7868 25.6534 26.9135 24.9165L28.5334 13.9388L25.3984 13.5722L23.3828 22.5876C23.3756 22.6199 23.3597 22.6497 23.3368 22.6737C23.3139 22.6978 23.2849 22.7151 23.2529 22.724L10.0721 26.3888L5.89249 27.3604C5.0458 27.5574 4.275 27.9959 3.67416 28.6223C3.07332 29.2487 2.66844 30.0358 2.50894 30.8877L0.574253 41.2301C0.511625 41.5653 0.532704 41.9108 0.635632 42.236C0.73856 42.5613 0.920175 42.8563 1.16447 43.095C1.66773 43.5877 2.35262 43.7899 3.04284 43.6493L5.80314 43.0888C5.81508 43.0863 5.82725 43.085 5.83946 43.085Z" fill="#4D4D4F"/>
<path d="M5.8393 43.4507C5.79568 43.4506 5.75352 43.4351 5.72037 43.4068C5.68722 43.3786 5.66525 43.3395 5.6584 43.2966L4.19321 34.0976C4.18565 34.0497 4.19746 34.0007 4.22604 33.9615C4.25461 33.9222 4.29764 33.8959 4.34568 33.8882C4.39373 33.8807 4.44281 33.8925 4.48217 33.921C4.52154 33.9494 4.54799 33.9923 4.55575 34.0401L6.02094 43.239C6.02514 43.2651 6.02358 43.2919 6.01638 43.3174C6.00918 43.3429 5.9965 43.3665 5.97922 43.3867C5.96195 43.4068 5.94049 43.423 5.91633 43.434C5.89217 43.4451 5.86589 43.4508 5.8393 43.4507Z" fill="#4D4D4F"/>
<path d="M12.6068 50.7836L15.0588 56.0642L16.7884 75.4412H21.6489L23.2034 54.5805L20.9702 44.761L6.564 47.8159L6.27926 57.1771L3.4386 73.8046L7.92131 75.0484L15.0588 56.0642L12.6068 50.7836Z" fill="#F8F9FA"/>
<path d="M21.649 75.624H16.7886C16.7427 75.624 16.6986 75.607 16.6648 75.5761C16.6309 75.5453 16.6099 75.503 16.6058 75.4575L14.9476 56.8814L8.09321 75.1126C8.07727 75.1556 8.04565 75.191 8.00466 75.2117C7.96368 75.2324 7.91635 75.237 7.87213 75.2245L3.38924 73.9805C3.3455 73.9684 3.30782 73.9406 3.28349 73.9024C3.25916 73.8642 3.2499 73.8183 3.25751 73.7737L6.09615 57.1588L6.38052 47.8102C6.38177 47.7693 6.39677 47.7299 6.42311 47.6985C6.44946 47.6671 6.48563 47.6454 6.52583 47.6369L20.932 44.582C20.9792 44.5722 21.0284 44.5811 21.069 44.6071C21.1096 44.633 21.1384 44.6738 21.1491 44.7206L23.3823 54.5399C23.3863 54.5576 23.3876 54.5757 23.3863 54.5938L21.8318 75.4547C21.8284 75.5007 21.8077 75.5438 21.7738 75.5752C21.7399 75.6066 21.6953 75.624 21.649 75.624ZM16.9563 75.2583H21.4784L23.0183 54.594L20.8311 44.9774L6.74288 47.9647L6.46254 57.1825C6.46232 57.191 6.46146 57.1994 6.45997 57.2078L3.64701 73.6726L7.80847 74.8273L14.8601 56.0717L12.4402 50.8603C12.43 50.8385 12.4243 50.8149 12.4234 50.7909C12.4224 50.7669 12.4262 50.7429 12.4345 50.7204C12.4428 50.6978 12.4555 50.6771 12.4718 50.6595C12.4881 50.6418 12.5078 50.6275 12.5297 50.6174C12.5516 50.6073 12.5752 50.6016 12.5993 50.6007C12.6234 50.5997 12.6474 50.6035 12.6701 50.6117C12.6927 50.62 12.7135 50.6327 12.7312 50.649C12.7489 50.6652 12.7632 50.6849 12.7733 50.7067L15.2254 55.9874L15.2256 55.9879C15.2256 55.9879 15.2254 55.9889 15.2258 55.9883L15.226 55.9888V55.989L15.2261 55.9894L15.2263 55.9899C15.2263 55.9899 15.2269 55.9905 15.2265 55.9903C15.2267 55.9905 15.2268 55.9908 15.2269 55.991C15.2269 55.9912 15.2269 55.9923 15.2271 55.9916L15.2272 55.992L15.2274 55.9925V55.9931C15.235 56.0108 15.2398 56.0297 15.2414 56.049L16.9563 75.2583Z" fill="#4D4D4F"/>
<path d="M3.43859 73.8046L2.29025 77.0556L11.074 79.4999L11.8804 77.9376L7.9213 75.0484L3.43859 73.8046Z" fill="#60A899"/>
<path d="M11.074 79.6829C11.0574 79.6829 11.0408 79.6806 11.0247 79.6762L2.2409 77.2319C2.2167 77.2252 2.19415 77.2136 2.17464 77.1978C2.15513 77.1821 2.13908 77.1625 2.12748 77.1403C2.11589 77.1181 2.109 77.0937 2.10723 77.0687C2.10547 77.0438 2.10888 77.0187 2.11724 76.9951L3.26557 73.7441C3.281 73.7003 3.31254 73.6641 3.3538 73.6427C3.39506 73.6212 3.44295 73.6162 3.48776 73.6287L7.97065 74.8727C7.99197 74.8785 8.01205 74.8882 8.02991 74.9012L11.989 77.7902C12.0242 77.8159 12.0491 77.8533 12.0591 77.8957C12.0691 77.9381 12.0637 77.9826 12.0437 78.0213L11.2373 79.5838C11.2219 79.6137 11.1984 79.6387 11.1696 79.6562C11.1408 79.6737 11.1078 79.6829 11.074 79.6829ZM2.5284 76.9322L10.9794 79.2837L11.6455 77.9928L7.83984 75.2155L3.55454 74.0264L2.5284 76.9322Z" fill="#4D4D4F"/>
<path d="M16.7884 75.4412V78.878H25.9839V77.3069L21.6489 75.4412H16.7884Z" fill="#60A899"/>
<path d="M25.9839 79.0609H16.7884C16.7397 79.0609 16.693 79.0416 16.6586 79.0073C16.6242 78.973 16.6049 78.9265 16.6049 78.878V75.4412C16.6049 75.3927 16.6242 75.3462 16.6586 75.3119C16.693 75.2776 16.7397 75.2583 16.7884 75.2583H21.6488C21.6738 75.2584 21.6986 75.2635 21.7215 75.2733L26.0565 77.139C26.0894 77.1532 26.1174 77.1766 26.1371 77.2064C26.1568 77.2363 26.1673 77.2712 26.1673 77.3069V78.878C26.1673 78.9265 26.148 78.973 26.1136 79.0073C26.0792 79.0416 26.0325 79.0609 25.9839 79.0609ZM16.9718 78.6951H25.8004V77.427L21.6111 75.6241H16.9718V78.6951ZM11.5665 21.5846C11.5193 21.5849 11.4739 21.567 11.4396 21.5348C11.4053 21.5025 11.3848 21.4583 11.3823 21.4114C11.3798 21.3645 11.3956 21.3184 11.4263 21.2827C11.457 21.2471 11.5003 21.2245 11.5472 21.2198C12.4101 21.1277 13.2729 20.5683 13.2815 20.5627C13.3222 20.536 13.3718 20.5266 13.4195 20.5364C13.4671 20.5462 13.5089 20.5744 13.5356 20.615C13.5624 20.6555 13.5719 20.7049 13.562 20.7524C13.5522 20.7999 13.5238 20.8416 13.4832 20.8682C13.445 20.8933 12.539 21.4817 11.5863 21.5836C11.5797 21.5843 11.5731 21.5846 11.5665 21.5846ZM11.4679 18.4752C11.4365 18.4751 11.4055 18.467 11.3781 18.4516C11.3506 18.4362 11.3277 18.4141 11.3113 18.3873C11.295 18.3604 11.2858 18.3299 11.2847 18.2985C11.2837 18.2672 11.2907 18.2361 11.3052 18.2082C11.5804 17.6777 12.7084 17.3557 12.8361 17.3208C12.8595 17.3138 12.8841 17.3116 12.9083 17.3142C12.9326 17.3168 12.9561 17.3243 12.9775 17.3361C12.9989 17.3479 13.0177 17.3638 13.0328 17.383C13.0479 17.4021 13.059 17.4241 13.0655 17.4475C13.0719 17.471 13.0737 17.4955 13.0705 17.5197C13.0673 17.5438 13.0594 17.5671 13.047 17.5881C13.0347 17.6092 13.0183 17.6275 12.9988 17.6422C12.9793 17.6568 12.957 17.6674 12.9333 17.6733C12.5106 17.7893 11.7831 18.0828 11.631 18.3761C11.6157 18.406 11.5923 18.4311 11.5635 18.4485C11.5347 18.466 11.5017 18.4753 11.4679 18.4752Z" fill="#4D4D4F"/>
<path d="M12.3712 18.6224C12.2908 18.6224 12.2171 18.5692 12.1945 18.4883L12.1125 18.1938C12.1 18.1472 12.1065 18.0977 12.1305 18.0559C12.1545 18.0141 12.1941 17.9834 12.2407 17.9705C12.2872 17.9576 12.337 17.9636 12.3792 17.987C12.4214 18.0105 12.4526 18.0497 12.466 18.0959L12.548 18.3905C12.5556 18.4177 12.5568 18.4462 12.5515 18.4739C12.5461 18.5016 12.5345 18.5277 12.5173 18.5502C12.5002 18.5726 12.4781 18.5908 12.4527 18.6033C12.4274 18.6159 12.3995 18.6224 12.3712 18.6224Z" fill="#4D4D4F"/>
<path d="M93.7897 14.1279L96.0146 11.9088L97.9651 13.8527L96.1913 15.6189" fill="#60A899"/>
<path d="M96.1913 15.8018C96.155 15.8017 96.1196 15.7909 96.0895 15.7708C96.0594 15.7507 96.0359 15.7221 96.0221 15.6888C96.0082 15.6554 96.0046 15.6187 96.0116 15.5832C96.0186 15.5478 96.036 15.5152 96.0616 15.4896L97.7055 13.8527L96.0146 12.1675L93.9194 14.2574C93.8846 14.29 93.8385 14.3079 93.7907 14.3072C93.7429 14.3064 93.6973 14.2872 93.6636 14.2536C93.6298 14.2199 93.6105 14.1745 93.6098 14.1269C93.6091 14.0793 93.627 14.0333 93.6598 13.9986L95.8847 11.7795C95.9198 11.7464 95.9662 11.728 96.0145 11.728C96.0628 11.728 96.1092 11.7464 96.1443 11.7795L98.0948 13.7234C98.1118 13.7404 98.1254 13.7606 98.1346 13.7828C98.1438 13.805 98.1486 13.8288 98.1486 13.8528C98.1486 13.8768 98.1438 13.9006 98.1346 13.9228C98.1254 13.945 98.1118 13.9652 98.0948 13.9822L96.321 15.7484C96.2866 15.7826 96.2399 15.8018 96.1913 15.8018Z" fill="#4D4D4F"/>
<path d="M81.5374 15.6189L79.7636 13.8527L81.7141 11.9088L83.939 14.1279" fill="#60A899"/>
<path d="M81.5374 15.8018C81.4887 15.8018 81.4421 15.7826 81.4076 15.7484L79.6339 13.9822C79.6168 13.9652 79.6033 13.945 79.594 13.9228C79.5848 13.9006 79.5801 13.8768 79.5801 13.8528C79.5801 13.8288 79.5848 13.805 79.594 13.7828C79.6033 13.7606 79.6168 13.7404 79.6339 13.7234L81.5843 11.7795C81.6014 11.7625 81.6216 11.749 81.6439 11.7398C81.6662 11.7306 81.69 11.7259 81.7141 11.7259C81.7383 11.7259 81.7621 11.7306 81.7844 11.7398C81.8067 11.749 81.8269 11.7625 81.8439 11.7795L84.0689 13.9986C84.1404 14.0701 84.1404 14.1859 84.0689 14.2574C83.9971 14.3287 83.881 14.3287 83.8093 14.2574L81.7141 12.1675L80.0232 13.8527L81.6671 15.4897C81.6927 15.5152 81.7102 15.5478 81.7173 15.5833C81.7244 15.6187 81.7207 15.6555 81.7068 15.6889C81.6929 15.7223 81.6694 15.7509 81.6393 15.771C81.6091 15.7911 81.5736 15.8018 81.5374 15.8018Z" fill="#4D4D4F"/>
<path d="M88.8642 36.3463C95.3202 36.3463 100.554 31.1302 100.554 24.6958C100.554 18.2614 95.3202 13.0452 88.8642 13.0452C82.4083 13.0452 77.1747 18.2614 77.1747 24.6958C77.1747 31.1302 82.4083 36.3463 88.8642 36.3463Z" fill="#2E2E2E"/>
<path d="M88.8642 36.5294C82.3173 36.5294 76.9912 31.2209 76.9912 24.696C76.9912 18.1711 82.3175 12.8625 88.8642 12.8625C95.411 12.8625 100.737 18.1711 100.737 24.696C100.737 31.2209 95.4112 36.5294 88.8642 36.5294ZM88.8642 13.2281C82.5197 13.2281 77.3581 18.3724 77.3581 24.6958C77.3581 31.0192 82.5197 36.1635 88.8642 36.1635C95.2088 36.1635 100.37 31.0192 100.37 24.6958C100.37 18.3724 95.209 13.2281 88.8642 13.2281Z" fill="#4D4D4F"/>
<path d="M92.419 33.2459C97.1582 31.2895 99.4087 25.8745 97.4456 21.1511C95.4826 16.4278 90.0495 14.1849 85.3103 16.1413C80.5712 18.0978 78.3207 23.5128 80.2837 28.2361C82.2467 32.9594 87.6799 35.2024 92.419 33.2459Z" fill="#F8F9FA"/>
<path d="M88.8642 34.1358C83.6416 34.1358 79.3928 29.901 79.3928 24.6958C79.3928 19.4906 83.6416 15.256 88.8642 15.256C94.0869 15.256 98.3357 19.4906 98.3357 24.6958C98.3357 29.901 94.0869 34.1358 88.8642 34.1358ZM88.8642 15.6217C83.844 15.6217 79.7597 19.6922 79.7597 24.6958C79.7597 29.6993 83.844 33.7701 88.8642 33.7701C93.8845 33.7701 97.9687 29.6995 97.9687 24.6958C97.9689 19.6922 93.8845 15.6217 88.8642 15.6217Z" fill="#4D4D4F"/>
<path d="M93.3 24.8786H88.8642C88.8156 24.8786 88.7689 24.8594 88.7345 24.8251C88.7001 24.7908 88.6808 24.7443 88.6808 24.6958V17.6432C88.6808 17.5947 88.7001 17.5481 88.7345 17.5139C88.7689 17.4796 88.8156 17.4603 88.8642 17.4603C88.9129 17.4603 88.9595 17.4796 88.994 17.5139C89.0284 17.5481 89.0477 17.5947 89.0477 17.6432V24.5129H93.3C93.3486 24.5129 93.3953 24.5322 93.4297 24.5665C93.4641 24.6008 93.4834 24.6473 93.4834 24.6958C93.4834 24.7443 93.4641 24.7908 93.4297 24.8251C93.3953 24.8594 93.3486 24.8786 93.3 24.8786Z" fill="#4D4D4F"/>
</g>
<defs>
<clipPath id="clip0_397_2329">
<rect width="101" height="80" fill="white"/>
</clipPath>
</defs>
</svg>
