<svg width="107" height="80" viewBox="0 0 107 80" fill="none" xmlns="http://www.w3.org/2000/svg">
<g clip-path="url(#clip0_397_2390)">
<path d="M106.659 0.252289H45.0963V47.8807H106.659V0.252289Z" fill="#2E2E2E"/>
<path d="M106.659 48.0561H45.0965C45 48.0561 44.9216 47.9775 44.9216 47.8807V0.252282C44.9216 0.15544 45 0.0768433 45.0965 0.0768433H106.659C106.755 0.0768433 106.834 0.15544 106.834 0.252282V47.8807C106.834 47.9777 106.755 48.0561 106.659 48.0561ZM45.2713 47.7053H106.484V0.42772H45.2713V47.7053Z" fill="#4D4D4F"/>
<path d="M104.381 45.5951V2.53806L47.3744 2.53806V45.5951H104.381Z" fill="white"/>
<path d="M104.381 45.7705H47.3742C47.2777 45.7705 47.1994 45.6919 47.1994 45.5951V2.53808C47.1994 2.44124 47.2777 2.36264 47.3742 2.36264H104.381C104.477 2.36264 104.556 2.44124 104.556 2.53808V45.5951C104.556 45.6919 104.477 45.7705 104.381 45.7705ZM47.5491 45.4197H104.206V2.71352H47.5491V45.4197Z" fill="#4D4D4F"/>
<path d="M99.1783 42.6981H52.5769C52.4804 42.6981 52.402 42.6195 52.402 42.5226V15.2742C52.402 15.1774 52.4804 15.0988 52.5769 15.0988H99.1782C99.2747 15.0988 99.353 15.1774 99.353 15.2742V42.5226C99.3532 42.6195 99.2748 42.6981 99.1783 42.6981ZM52.7517 42.3472H99.0033V15.4496H52.7517V42.3472Z" fill="#4D4D4F"/>
<path d="M63.3786 42.6981C63.2821 42.6981 63.2038 42.6195 63.2038 42.5226V15.2742C63.2038 15.1774 63.2821 15.0988 63.3786 15.0988C63.4751 15.0988 63.5535 15.1774 63.5535 15.2742V42.5226C63.5535 42.6195 63.4751 42.6981 63.3786 42.6981ZM75.7011 42.6981C75.6046 42.6981 75.5263 42.6195 75.5263 42.5226V15.2742C75.5263 15.1774 75.6046 15.0988 75.7011 15.0988C75.7976 15.0988 75.8759 15.1774 75.8759 15.2742V42.5226C75.8759 42.6195 75.7978 42.6981 75.7011 42.6981ZM88.0236 42.6981C87.9271 42.6981 87.8488 42.6195 87.8488 42.5226V15.2742C87.8488 15.1774 87.9271 15.0988 88.0236 15.0988C88.1201 15.0988 88.1984 15.1774 88.1984 15.2742V42.5226C88.1984 42.6195 88.1203 42.6981 88.0236 42.6981Z" fill="#4D4D4F"/>
<path d="M31.7925 29.1086H20.0642C17.9945 29.1086 16.3168 30.8962 16.3168 33.1012V58.1288C16.3168 60.3339 17.9945 62.1214 20.0642 62.1214H39.0496" fill="#60A899"/>
<path d="M39.0496 62.2967H20.0643C17.9015 62.2967 16.142 60.4268 16.142 58.1286V33.1012C16.142 30.8028 17.9013 28.9332 20.0643 28.9332H31.7925C31.889 28.9332 31.9673 29.0118 31.9673 29.1086C31.9673 29.2054 31.889 29.284 31.7925 29.284H20.0643C18.0944 29.284 16.4916 30.9965 16.4916 33.1012V58.1288C16.4916 60.2335 18.0944 61.946 20.0643 61.946H39.0496C39.1461 61.946 39.2244 62.0246 39.2244 62.1214C39.2244 62.2182 39.1461 62.2967 39.0496 62.2967Z" fill="#4D4D4F"/>
<path d="M36.4959 25.4556L36.5987 27.8193C36.6277 28.4881 37.3822 28.853 37.9275 28.4674C44.5214 23.8039 40.9544 16.6853 39.4424 14.2549C39.1213 13.7388 38.5195 13.4723 37.9229 13.581C37.5748 13.6446 37.2157 13.5809 36.9105 13.4014L36.5491 13.1889C34.828 12.1774 32.6509 12.3165 31.1041 13.5802C30.0485 14.4426 28.9998 15.6653 28.4562 17.3386C28.341 17.6931 28.1879 18.0332 28.0085 18.3598C27.0944 20.023 24.6528 25.3979 28.527 29.6124C29.706 30.8949 31.8117 30.46 32.3855 28.813C32.891 27.3623 33.0938 25.1958 32.204 22.0856" fill="#4D4D4F"/>
<path d="M30.2121 30.5353C29.5299 30.5353 28.8769 30.2516 28.3987 29.7314C24.4271 25.4111 26.9789 19.8704 27.8557 18.2751C28.0385 17.9421 28.1849 17.6086 28.2903 17.2842C28.7688 15.8109 29.6785 14.5188 30.994 13.444C32.5796 12.1486 34.8476 11.9855 36.6377 13.0374L36.9991 13.2498C37.2682 13.4079 37.585 13.464 37.892 13.4083C38.5628 13.2856 39.23 13.5814 39.5911 14.1618C40.3411 15.3672 41.638 17.7946 41.8991 20.5065C42.2197 23.8405 40.9175 26.5672 38.0285 28.6104C37.7175 28.8302 37.3287 28.8614 36.9884 28.6939C36.6515 28.5277 36.4407 28.2037 36.4242 27.8267L36.3214 25.463C36.3172 25.3662 36.3921 25.2842 36.4886 25.2802C36.5847 25.2777 36.6667 25.3511 36.6708 25.4479L36.7736 27.8116C36.7842 28.0583 36.9222 28.2705 37.1425 28.3791C37.3664 28.4893 37.6222 28.4688 37.8269 28.3239C44.1966 23.8191 40.9751 17.0493 39.2945 14.3479C39.0099 13.8904 38.4838 13.6572 37.9544 13.7537C37.5656 13.8249 37.1634 13.7533 36.8223 13.5528L36.4609 13.3404C34.796 12.3619 32.6878 12.5128 31.2148 13.7163C29.9523 14.7477 29.0802 15.9848 28.6228 17.3932C28.5106 17.7386 28.3555 18.0923 28.162 18.4448C27.3137 19.9881 24.8427 25.3456 28.6557 29.4937C29.168 30.0511 29.9131 30.2919 30.6503 30.1391C31.3849 29.9863 31.972 29.469 32.2206 28.7553C32.8436 26.9676 32.7815 24.7398 32.0362 22.1342C32.0096 22.0411 32.0633 21.9441 32.1561 21.9172C32.249 21.8907 32.3458 21.9444 32.3724 22.0376C33.138 24.7144 33.198 27.0135 32.5507 28.8712C32.2612 29.7023 31.5772 30.3048 30.7212 30.483C30.5511 30.5179 30.3807 30.5353 30.2121 30.5353Z" fill="#4D4D4F"/>
<path d="M27.938 40.2968L28.8769 40.3579L28.5658 42.713L39.6697 45.7349L40.0399 45.6591C39.6624 42.5411 39.4251 38.627 40.143 36.1554L41.5844 39.6781L45.0967 36.7391L42.6797 31.9365C41.8017 30.1909 40.167 28.9533 38.2525 28.5839L36.3583 28.22C36.084 28.8979 35.4194 29.3763 34.6446 29.3763C33.8438 29.3763 33.1627 28.8665 32.9069 28.1516L28.765 29.0105C25.9246 29.5868 23.8444 32.0361 23.7265 34.9398L23.5204 40.0084L27.938 40.2968Z" fill="#4D4D4F"/>
<path d="M39.6697 45.9102C39.6543 45.9102 39.639 45.9081 39.6239 45.9041L28.52 42.8821C28.4356 42.8591 28.381 42.7769 28.3926 42.6897L28.6791 40.5205L27.9268 40.4718L23.5089 40.1837C23.4141 40.1776 23.3416 40.0965 23.3456 40.0014L23.5517 34.9326C23.6732 31.9386 25.8026 29.4325 28.73 28.8386L32.8712 27.9797C32.9565 27.9625 33.0417 28.01 33.071 28.0923C33.3083 28.7553 33.9407 29.2009 34.6444 29.2009C35.3298 29.2009 35.9389 28.79 36.1961 28.154C36.2274 28.0765 36.3094 28.0321 36.391 28.0477L38.2852 28.4116C40.2388 28.7886 41.9398 30.0767 42.8355 31.8574L45.2524 36.66C45.2891 36.733 45.2708 36.8214 45.2084 36.8739L41.6961 39.8126C41.6531 39.8484 41.5959 39.8614 41.5421 39.8483C41.488 39.8348 41.4436 39.7963 41.4223 39.7446L40.1813 36.7114C39.6234 39.2139 39.8818 42.8997 40.2133 45.6377C40.2243 45.7286 40.164 45.8125 40.0746 45.8309L39.7047 45.9067C39.693 45.9091 39.6813 45.9102 39.6697 45.9102ZM28.7592 42.5839L39.6753 45.5548L39.8468 45.5197C39.498 42.5726 39.2485 38.6072 39.9748 36.1065C39.9956 36.0349 40.0591 35.9844 40.1334 35.9804C40.2052 35.976 40.2761 36.0198 40.3044 36.089L41.6552 39.3902L44.8776 36.6939L42.5232 32.0156C41.676 30.3312 40.067 29.1128 38.2191 28.7562L36.4608 28.4184C36.1219 29.1116 35.4238 29.5518 34.644 29.5518C33.8445 29.5518 33.1214 29.076 32.7988 28.353L28.7998 29.1823C26.03 29.7444 24.0157 32.1147 23.9007 34.9469L23.7015 39.8446L27.9492 40.1216L28.8881 40.1826C28.9363 40.1858 28.9813 40.2088 29.0119 40.2465C29.0426 40.284 29.0564 40.3326 29.05 40.3809L28.7592 42.5839Z" fill="#4D4D4F"/>
<path d="M25.6039 46.9153C26.0531 47.1572 26.5519 47.3198 27.0859 47.3844L40.2198 48.9612C40.3224 48.9735 40.4259 48.9497 40.5128 48.8935L41.0254 48.5584C41.1174 48.4983 41.2282 48.4746 41.3366 48.4916L43.6509 48.8558C44.105 48.9272 44.5419 48.6516 44.6746 48.21L44.8788 47.5302C45.054 46.9468 44.7402 46.3284 44.1669 46.1277L42.4192 45.5158C42.0138 45.3739 41.5777 45.3444 41.1571 45.4305L40.04 45.6591C39.7967 45.709 39.5451 45.7009 39.3055 45.6356L28.5662 42.7128L28.8772 40.3577L27.9384 40.2967L23.5204 40.0086L23.3972 43.0379C23.3305 44.6912 24.2269 46.1744 25.6039 46.9153Z" fill="#F8F9FA"/>
<path d="M40.272 49.1398C40.2477 49.1398 40.2233 49.1384 40.199 49.1354L27.0651 47.5586C26.5201 47.4926 26.0008 47.3282 25.5213 47.0698C24.0577 46.2826 23.1552 44.6972 23.222 43.031L23.3454 40.0016C23.3473 39.9544 23.3681 39.91 23.4031 39.8782C23.4381 39.8467 23.4835 39.8303 23.5314 39.8337L28.8883 40.1828C28.9365 40.186 28.9814 40.2089 29.012 40.2467C29.0428 40.2842 29.0566 40.3328 29.0502 40.381L28.7592 42.584L39.3508 45.4665C39.5629 45.5244 39.789 45.5316 40.0047 45.4874L41.1217 45.2588C41.5728 45.1665 42.0416 45.1982 42.4766 45.3503L44.2242 45.9621C44.8879 46.1946 45.2489 46.9054 45.0461 47.5809L44.8419 48.2607C44.6849 48.7833 44.1608 49.1142 43.6238 49.0291L41.3095 48.6649C41.2434 48.6549 41.1766 48.6688 41.1209 48.7054L40.6082 49.0407C40.5074 49.1056 40.3904 49.1398 40.272 49.1398ZM23.6874 40.1954L23.5713 43.0453C23.5099 44.5781 24.3401 46.0365 25.6865 46.7607C26.1272 46.9982 26.6051 47.1495 27.1065 47.2103L40.2402 48.7872C40.3021 48.7939 40.3654 48.7798 40.418 48.7461L40.9298 48.4114C41.0581 48.3274 41.2121 48.2946 41.3634 48.3182L43.6777 48.6824C44.0438 48.7395 44.3999 48.5149 44.5069 48.1595L44.7111 47.4796C44.8599 46.9847 44.5952 46.4637 44.1088 46.2935L42.3612 45.6817C41.9858 45.5502 41.5814 45.5226 41.1915 45.6026L40.0745 45.8312C39.8057 45.8861 39.5237 45.8774 39.2592 45.8051L28.52 42.8824C28.4356 42.8595 28.3811 42.7772 28.3926 42.69L28.6791 40.5209L23.6874 40.1954Z" fill="#4D4D4F"/>
<path d="M28.8772 40.5331C28.8695 40.5331 28.8619 40.5326 28.854 40.5316C28.7584 40.5189 28.6909 40.4307 28.7036 40.3346L29.2797 35.9735C29.2923 35.8774 29.3811 35.8103 29.4761 35.8226C29.5717 35.8352 29.6392 35.9235 29.6264 36.0196L29.0503 40.3807C29.0386 40.4689 28.9634 40.5331 28.8772 40.5331Z" fill="#4D4D4F"/>
<path d="M41.584 39.6781L42.7892 42.6255C43.1563 43.5232 43.8207 44.2663 44.6704 44.7297L48.8 46.9818L50.4568 43.3004L47.0844 40.6884L45.0963 36.7391L41.584 39.6781Z" fill="#F8F9FA"/>
<path d="M48.8002 47.157C48.7714 47.157 48.7425 47.1498 48.7166 47.1356L44.587 44.8837C43.7046 44.4025 43.0087 43.624 42.6274 42.6918L41.4221 39.7444C41.3931 39.6737 41.4134 39.5921 41.4719 39.5432L44.9842 36.6044C45.0251 36.5702 45.0792 36.5565 45.1316 36.5674C45.1837 36.5783 45.2281 36.6123 45.2523 36.6602L47.2227 40.5739L50.5636 43.1616C50.6278 43.2112 50.6495 43.2986 50.6162 43.3726L48.9595 47.054C48.9394 47.0984 48.9018 47.1326 48.8558 47.1481C48.8376 47.154 48.8189 47.157 48.8002 47.157ZM41.7945 39.7304L42.9511 42.5588C43.3018 43.4165 43.942 44.1328 44.754 44.5756L48.7182 46.7374L50.2405 43.3544L46.9775 40.8272C46.9569 40.8112 46.9401 40.7907 46.9282 40.7674L45.0391 37.0151L41.7945 39.7304ZM36.3581 28.3954C36.3468 28.3954 36.3352 28.3944 36.3237 28.3919L36.2225 28.3716C36.1277 28.3526 36.0663 28.2602 36.0852 28.1653C36.1041 28.0702 36.1964 28.0084 36.2908 28.0276L36.3921 28.0479C36.4868 28.0669 36.5482 28.1593 36.5293 28.2542C36.5129 28.3377 36.4398 28.3954 36.3581 28.3954Z" fill="#4D4D4F"/>
<path d="M32.796 23.0746V28.623C32.796 28.8446 32.8347 29.057 32.9065 29.2528C33.1623 29.9677 33.8435 30.4775 34.6442 30.4775C35.4193 30.4775 36.0837 29.9991 36.358 29.3212C36.4463 29.107 36.4942 28.8705 36.4942 28.623V25.1491" fill="#F8F9FA"/>
<path d="M34.6442 30.653C33.7935 30.653 33.0289 30.1142 32.742 29.3121C32.6619 29.094 32.6212 28.8619 32.6212 28.623V23.0745C32.6212 22.9777 32.6995 22.8991 32.796 22.8991C32.8925 22.8991 32.9709 22.9777 32.9709 23.0745V28.623C32.9709 28.8203 33.0044 29.0117 33.0705 29.1923C33.3083 29.8567 33.9405 30.3021 34.6442 30.3021C35.3296 30.3021 35.9387 29.8912 36.1959 29.2553C36.2779 29.0565 36.3193 28.844 36.3193 28.623V25.1489C36.3193 25.0521 36.3977 24.9735 36.4942 24.9735C36.5907 24.9735 36.669 25.0521 36.669 25.1489V28.623C36.669 28.8903 36.6186 29.1477 36.5195 29.3882C36.2088 30.1561 35.4726 30.653 34.6442 30.653Z" fill="#4D4D4F"/>
<path d="M31.5393 19.6847H31.5379C31.5295 19.6833 31.5239 19.6833 31.5153 19.6833C31.5 19.6833 31.4844 19.6833 31.469 19.6862C30.9101 19.7088 30.4663 20.1709 30.4663 20.7374C30.4663 21.3193 30.9354 21.79 31.5153 21.79C31.7372 21.79 31.9423 21.7223 32.1108 21.6054C32.1362 21.769 32.167 21.9281 32.2049 22.086C32.2442 22.2593 32.2892 22.4284 32.3425 22.5933C32.3425 22.5962 32.3439 22.5976 32.3439 22.599C32.9702 24.5984 34.418 25.9991 36.1046 25.9991C36.245 25.9991 36.3826 25.9893 36.5188 25.9695C38.5845 25.6863 40.1967 23.2935 40.1967 20.3823C40.1967 18.1137 39.2165 16.1591 37.8053 15.2742L37.8049 15.274C37.8049 15.274 35.5018 19.6553 31.4695 19.6854L31.5393 19.6847Z" fill="#F8F9FA"/>
<path d="M36.1045 26.1746C34.389 26.1746 32.8474 24.7918 32.1771 22.6514C32.1764 22.6489 32.1755 22.6463 32.175 22.6439C32.1748 22.6432 32.1747 22.6425 32.1745 22.6416C32.1231 22.4821 32.0771 22.313 32.0344 22.1249C32.0147 22.0428 31.9967 21.9598 31.9802 21.8747C31.8346 21.9344 31.6772 21.9654 31.5155 21.9654C30.8407 21.9654 30.2917 21.4146 30.2917 20.7374C30.2917 20.0816 30.7973 19.5461 31.4459 19.5118C31.451 19.5111 31.4563 19.5105 31.4615 19.5104C31.4907 19.5074 31.5208 19.507 31.5452 19.5091C35.381 19.4249 37.628 15.2351 37.6504 15.1925C37.6946 15.1082 37.7979 15.0746 37.8832 15.1174C39.4007 16.0679 40.3717 18.1314 40.3717 20.3825C40.3717 23.3675 38.7256 25.8442 36.5428 26.1433C36.4001 26.1639 36.2524 26.1746 36.1045 26.1746ZM32.5121 22.5505C33.1363 24.5389 34.5461 25.8237 36.1045 25.8237C36.2356 25.8237 36.3665 25.8144 36.4938 25.7958C38.5057 25.52 40.0218 23.1928 40.0218 20.3823C40.0218 18.3272 39.1804 16.4449 37.864 15.5235C37.3864 16.3312 35.1369 19.7811 31.5529 19.8596C31.5491 19.8598 31.5451 19.86 31.5411 19.8602L31.4973 19.8605C31.4933 19.8605 31.4893 19.8605 31.4853 19.8605C31.4818 19.8609 31.4788 19.8611 31.4764 19.8612C31.0083 19.8802 30.6415 20.2649 30.6415 20.7372C30.6415 21.2209 31.0337 21.6144 31.5157 21.6144C31.6956 21.6144 31.8669 21.5614 32.0115 21.4609C32.061 21.4265 32.1248 21.4204 32.1799 21.4439C32.2352 21.4677 32.2745 21.5184 32.2838 21.5782C32.3089 21.7411 32.3387 21.8937 32.375 22.0446C32.4163 22.2267 32.46 22.3875 32.5089 22.5386C32.51 22.5428 32.511 22.5467 32.5121 22.5505Z" fill="#4D4D4F"/>
<path d="M34.8787 19.743C34.824 19.743 34.7699 19.7172 34.7358 19.669C34.6801 19.5898 34.6986 19.4804 34.7774 19.4244C35.3889 18.99 36.4321 19.3868 36.4762 19.4039C36.5662 19.4388 36.611 19.5402 36.5762 19.6305C36.5415 19.7209 36.4401 19.7658 36.3503 19.7312C36.0978 19.6339 35.3595 19.4405 34.9796 19.7107C34.949 19.7325 34.9136 19.743 34.8787 19.743ZM35.6459 20.8121C35.5494 20.8121 35.471 20.7335 35.471 20.6367V20.3053C35.471 20.2084 35.5494 20.1298 35.6459 20.1298C35.7424 20.1298 35.8207 20.2084 35.8207 20.3053V20.6367C35.8207 20.7335 35.7424 20.8121 35.6459 20.8121ZM39.1363 19.743C39.1013 19.743 39.0662 19.7325 39.0354 19.7107C38.6552 19.4404 37.917 19.6339 37.6647 19.7312C37.5747 19.7658 37.4734 19.7209 37.4388 19.6305C37.404 19.5402 37.4488 19.4388 37.5388 19.4039C37.5829 19.3868 38.6265 18.99 39.2375 19.4244C39.3164 19.4804 39.3349 19.5898 39.2791 19.669C39.245 19.7172 39.1912 19.743 39.1363 19.743ZM38.3693 20.8121C38.2728 20.8121 38.1945 20.7335 38.1945 20.6367V20.3053C38.1945 20.2084 38.2728 20.1298 38.3693 20.1298C38.4658 20.1298 38.5441 20.2084 38.5441 20.3053V20.6367C38.5441 20.7335 38.4658 20.8121 38.3693 20.8121ZM36.6463 24.2421C36.5555 24.2421 36.4788 24.1719 36.4721 24.0797C36.465 23.983 36.5374 23.899 36.6335 23.8918C37.3762 23.8365 37.942 23.3639 37.9478 23.3589C38.0215 23.2968 38.1319 23.3058 38.1941 23.3795C38.2565 23.4533 38.2476 23.5639 38.174 23.6265C38.1478 23.6489 37.5189 24.1777 36.6594 24.2416C36.655 24.2419 36.6506 24.2421 36.6463 24.2421Z" fill="#4D4D4F"/>
<path d="M24.9181 49.7442L25.1915 54.7988C30.3691 52.583 35.5735 51.0863 40.8128 50.5244C40.8128 50.5244 40.684 49.9 40.5128 48.8933L40.3783 48.9802L27.0857 47.3842C26.5519 47.3195 26.0529 47.157 25.6038 46.9151L25.1307 48.2588C24.963 48.7351 24.8908 49.24 24.9181 49.7442Z" fill="#2E2E2E"/>
<path d="M25.1915 54.9744C25.1593 54.9744 25.1272 54.9654 25.0992 54.9479C25.0508 54.9177 25.02 54.8656 25.017 54.8084L24.7436 49.7538C24.7149 49.2235 24.7897 48.7009 24.966 48.2005L25.4391 46.8568C25.456 46.8086 25.4933 46.7702 25.5408 46.7516C25.5882 46.7332 25.6417 46.7365 25.6866 46.7607C26.1274 46.9982 26.6052 47.1495 27.1068 47.2103L40.3367 48.7988L40.4182 48.7461C40.4673 48.714 40.5296 48.7091 40.5832 48.7331C40.6369 48.7568 40.6752 48.8061 40.6852 48.8642C40.8537 49.8558 40.9827 50.483 40.984 50.4891C40.9941 50.5375 40.9831 50.5881 40.9541 50.6281C40.9249 50.6681 40.8805 50.6938 40.8313 50.6991C35.7903 51.2398 30.6969 52.6337 25.26 54.9605C25.2382 54.9696 25.2148 54.9744 25.1915 54.9744ZM25.0927 49.7347L25.3527 54.5396C30.6674 52.2868 35.6614 50.9217 40.6039 50.3709C40.5591 50.1428 40.4783 49.7189 40.3804 49.1556C40.3736 49.1549 40.3654 49.1553 40.3577 49.1544L27.0651 47.5584C26.5879 47.5007 26.1306 47.3675 25.7026 47.1619L25.2957 48.3172C25.1349 48.7739 25.0665 49.2507 25.0927 49.7347Z" fill="#4D4D4F"/>
<path d="M0.341095 50.1277L89.3319 50.1277V47.7528L0.341095 47.7528V50.1277Z" fill="#60A899"/>
<path d="M89.3319 50.3033H0.341104C0.244594 50.3033 0.166267 50.2247 0.166267 50.1279V47.753C0.166267 47.6561 0.244594 47.5775 0.341104 47.5775H89.3319C89.4284 47.5775 89.5067 47.6561 89.5067 47.753V50.1279C89.5067 50.2247 89.4286 50.3033 89.3319 50.3033ZM0.515941 49.9525H89.1571V47.9284H0.515941V49.9525Z" fill="#4D4D4F"/>
<path d="M85.6666 50.1279H4.00655V79.7477H85.6666V50.1279Z" fill="#60A899"/>
<path d="M85.6666 79.9232H4.00656C3.91005 79.9232 3.83172 79.8446 3.83172 79.7477V50.1279C3.83172 50.0311 3.91005 49.9525 4.00656 49.9525H85.6666C85.7631 49.9525 85.8415 50.0311 85.8415 50.1279V79.7477C85.8415 79.8446 85.7631 79.9232 85.6666 79.9232ZM4.18139 79.5723H85.4918V50.3033H4.18139V79.5723Z" fill="#4D4D4F"/>
<path d="M37.6018 23.0482C37.585 23.0482 37.568 23.0458 37.5512 23.0409L36.979 22.8679C36.8865 22.84 36.8342 22.7421 36.862 22.6493C36.89 22.5565 36.9876 22.5044 37.0799 22.5319L37.3486 22.6132L36.8608 20.8451C36.8351 20.7518 36.8897 20.6551 36.9827 20.6293C37.0753 20.6037 37.172 20.6582 37.1977 20.7516L37.77 22.8261C37.7869 22.8877 37.7693 22.9537 37.7236 22.9982C37.6909 23.0309 37.6469 23.0482 37.6018 23.0482Z" fill="#4D4D4F"/>
<path d="M99.1783 19.6196H52.5769C52.4804 19.6196 52.402 19.541 52.402 19.4442C52.402 19.3474 52.4804 19.2688 52.5769 19.2688H99.1782C99.2747 19.2688 99.353 19.3474 99.353 19.4442C99.353 19.541 99.2748 19.6196 99.1783 19.6196Z" fill="#4D4D4F"/>
<path d="M99.1783 27.1396H52.5769C52.4804 27.1396 52.402 27.061 52.402 26.9642C52.402 26.8674 52.4804 26.7888 52.5769 26.7888H99.1782C99.2747 26.7888 99.353 26.8674 99.353 26.9642C99.353 27.061 99.2748 27.1396 99.1783 27.1396Z" fill="#4D4D4F"/>
<path d="M99.1783 34.794H52.5769C52.4804 34.794 52.402 34.7154 52.402 34.6186C52.402 34.5217 52.4804 34.4431 52.5769 34.4431H99.1782C99.2747 34.4431 99.353 34.5217 99.353 34.6186C99.353 34.7154 99.2748 34.794 99.1783 34.794Z" fill="#4D4D4F"/>
<path d="M60.6318 22.2512H54.9178C54.8212 22.2512 54.7429 22.1726 54.7429 22.0758C54.7429 21.979 54.8212 21.9004 54.9178 21.9004H60.6318C60.7283 21.9004 60.8066 21.979 60.8066 22.0758C60.8066 22.1726 60.7283 22.2512 60.6318 22.2512ZM60.6318 24.5109H54.9178C54.8212 24.5109 54.7429 24.4323 54.7429 24.3354C54.7429 24.2386 54.8212 24.16 54.9178 24.16H60.6318C60.7283 24.16 60.8066 24.2386 60.8066 24.3354C60.8066 24.4323 60.7283 24.5109 60.6318 24.5109Z" fill="#4D4D4F"/>
<path d="M84.7194 22.2512H79.0055C78.909 22.2512 78.8307 22.1726 78.8307 22.0758C78.8307 21.979 78.909 21.9004 79.0055 21.9004H84.7194C84.8159 21.9004 84.8942 21.979 84.8942 22.0758C84.8942 22.1726 84.8159 22.2512 84.7194 22.2512ZM84.7194 24.5109H79.0055C78.909 24.5109 78.8307 24.4323 78.8307 24.3354C78.8307 24.2386 78.909 24.16 79.0055 24.16H84.7194C84.8159 24.16 84.8942 24.2386 84.8942 24.3354C84.8942 24.4323 84.8159 24.5109 84.7194 24.5109Z" fill="#4D4D4F"/>
<path d="M96.3671 29.633H90.6533C90.5568 29.633 90.4785 29.5544 90.4785 29.4575C90.4785 29.3607 90.5568 29.2821 90.6533 29.2821H96.3671C96.4637 29.2821 96.542 29.3607 96.542 29.4575C96.542 29.5544 96.4637 29.633 96.3671 29.633ZM96.3671 31.8928H90.6533C90.5568 31.8928 90.4785 31.8142 90.4785 31.7174C90.4785 31.6205 90.5568 31.5419 90.6533 31.5419H96.3671C96.4637 31.5419 96.542 31.6205 96.542 31.7174C96.542 31.8142 96.4637 31.8928 96.3671 31.8928Z" fill="#4D4D4F"/>
<path d="M96.3671 37.7795H90.6533C90.5568 37.7795 90.4785 37.7009 90.4785 37.604C90.4785 37.5072 90.5568 37.4286 90.6533 37.4286H96.3671C96.4637 37.4286 96.542 37.5072 96.542 37.604C96.542 37.7009 96.4637 37.7795 96.3671 37.7795ZM96.3671 40.0391H90.6533C90.5568 40.0391 90.4785 39.9605 90.4785 39.8637C90.4785 39.7668 90.5568 39.6882 90.6533 39.6882H96.3671C96.4637 39.6882 96.542 39.7668 96.542 39.8637C96.542 39.9605 96.4637 40.0391 96.3671 40.0391Z" fill="#4D4D4F"/>
<path d="M84.7194 29.8368H79.0055C78.909 29.8368 78.8307 29.7582 78.8307 29.6614C78.8307 29.5646 78.909 29.486 79.0055 29.486H84.7194C84.8159 29.486 84.8942 29.5646 84.8942 29.6614C84.8942 29.7582 84.8159 29.8368 84.7194 29.8368ZM84.7194 32.0967H79.0055C78.909 32.0967 78.8307 32.0181 78.8307 31.9212C78.8307 31.8244 78.909 31.7458 79.0055 31.7458H84.7194C84.8159 31.7458 84.8942 31.8244 84.8942 31.9212C84.8942 32.0181 84.8159 32.0967 84.7194 32.0967Z" fill="#4D4D4F"/>
<path d="M72.3969 29.8368H66.6828C66.5863 29.8368 66.508 29.7582 66.508 29.6614C66.508 29.5646 66.5863 29.486 66.6828 29.486H72.3969C72.4934 29.486 72.5717 29.5646 72.5717 29.6614C72.5717 29.7582 72.4934 29.8368 72.3969 29.8368ZM72.3969 32.0967H66.6828C66.5863 32.0967 66.508 32.0181 66.508 31.9212C66.508 31.8244 66.5863 31.7458 66.6828 31.7458H72.3969C72.4934 31.7458 72.5717 31.8244 72.5717 31.9212C72.5717 32.0181 72.4934 32.0967 72.3969 32.0967Z" fill="#4D4D4F"/>
<path d="M57.6671 32.1819C57.6223 32.1819 57.5775 32.1647 57.5434 32.1305L55.8423 30.4235C55.7739 30.3549 55.7739 30.244 55.8423 30.1754C55.9106 30.1068 56.0211 30.1068 56.0895 30.1754L57.6671 31.7584L60.3716 29.0446C60.44 28.976 60.5505 28.976 60.6188 29.0446C60.6872 29.1131 60.6872 29.224 60.6188 29.2926L57.7907 32.1305C57.7566 32.1647 57.7118 32.1819 57.6671 32.1819Z" fill="#4D4D4F"/>
<path d="M92.9466 24.7986C92.9019 24.7986 92.8571 24.7814 92.823 24.7472L91.1219 23.0402C91.0535 22.9716 91.0535 22.8607 91.1219 22.7921C91.1902 22.7235 91.3007 22.7235 91.3691 22.7921L92.9466 24.3751L95.6512 21.6612C95.7195 21.5926 95.83 21.5926 95.8984 21.6612C95.9668 21.7298 95.9668 21.8407 95.8984 21.9093L93.0702 24.7472C93.0362 24.7814 92.9914 24.7986 92.9466 24.7986Z" fill="#4D4D4F"/>
<path d="M68.1197 24.884C68.0749 24.884 68.0301 24.8668 67.996 24.8326C67.9277 24.764 67.9277 24.6532 67.996 24.5846L71.2242 21.3453C71.2926 21.2767 71.4031 21.2767 71.4715 21.3453C71.5398 21.4139 71.5398 21.5247 71.4715 21.5933L68.2433 24.8326C68.2092 24.8668 68.1644 24.884 68.1197 24.884Z" fill="#4D4D4F"/>
<path d="M71.3478 24.884C71.3031 24.884 71.2583 24.8668 71.2242 24.8326L67.996 21.5933C67.9277 21.5247 67.9277 21.4139 67.996 21.3453C68.0644 21.2767 68.1749 21.2767 68.2433 21.3453L71.4715 24.5846C71.5398 24.6532 71.5398 24.764 71.4715 24.8326C71.4374 24.8668 71.3926 24.884 71.3478 24.884Z" fill="#4D4D4F"/>
<path d="M80.026 40.5289C79.9813 40.5289 79.9365 40.5117 79.9024 40.4775C79.8341 40.4089 79.8341 40.2981 79.9024 40.2295L83.1306 36.9902C83.199 36.9216 83.3095 36.9216 83.3778 36.9902C83.4462 37.0588 83.4462 37.1696 83.3778 37.2382L80.1497 40.4775C80.1156 40.5117 80.0708 40.5289 80.026 40.5289Z" fill="#4D4D4F"/>
<path d="M83.2542 40.5289C83.2095 40.5289 83.1647 40.5117 83.1306 40.4775L79.9024 37.2382C79.8341 37.1696 79.8341 37.0588 79.9024 36.9902C79.9708 36.9216 80.0813 36.9216 80.1497 36.9902L83.3778 40.2295C83.4462 40.2981 83.4462 40.4089 83.3778 40.4775C83.3437 40.5117 83.299 40.5289 83.2542 40.5289Z" fill="#4D4D4F"/>
<path d="M69.0874 35.2867L67.6168 47.753H46.6658L48.0858 34.8634C48.1897 33.9202 48.984 33.2065 49.9295 33.2065H67.2451C68.3562 33.2065 69.218 34.1797 69.0874 35.2867Z" fill="#F8F9FA"/>
<path d="M67.6168 47.9284H46.666C46.6163 47.9284 46.569 47.9072 46.5357 47.87C46.5027 47.8328 46.4868 47.7833 46.4922 47.7337L47.9122 34.844C48.026 33.8105 48.8934 33.0311 49.9298 33.0311H67.2455C67.8249 33.0311 68.3779 33.2802 68.7627 33.7148C69.1475 34.1495 69.3292 34.7298 69.2612 35.3072L67.7906 47.7735C67.78 47.8619 67.7055 47.9284 67.6168 47.9284ZM46.8611 47.5776H67.4614L68.9138 35.2662C68.9701 34.7883 68.8197 34.3079 68.5012 33.9481C68.1826 33.5884 67.7249 33.3821 67.2453 33.3821H49.9297C49.0719 33.3821 48.354 34.0272 48.2598 34.8828L46.8611 47.5776ZM69.0874 35.2867H69.0891H69.0874Z" fill="#4D4D4F"/>
<path d="M57.9993 41.8605C58.7592 41.8605 59.3752 41.2424 59.3752 40.4798C59.3752 39.7173 58.7592 39.0991 57.9993 39.0991C57.2393 39.0991 56.6233 39.7173 56.6233 40.4798C56.6233 41.2424 57.2393 41.8605 57.9993 41.8605Z" fill="#2E2E2E"/>
<path d="M57.9993 42.0358C57.1441 42.0358 56.4485 41.3377 56.4485 40.4797C56.4485 39.6216 57.1441 38.9235 57.9993 38.9235C58.8544 38.9235 59.5501 39.6216 59.5501 40.4797C59.5501 41.3377 58.8544 42.0358 57.9993 42.0358ZM57.9993 39.2746C57.337 39.2746 56.7981 39.8153 56.7981 40.4798C56.7981 41.1444 57.337 41.6851 57.9993 41.6851C58.6615 41.6851 59.2004 41.1444 59.2004 40.4798C59.2004 39.8153 58.6615 39.2746 57.9993 39.2746Z" fill="#4D4D4F"/>
</g>
<defs>
<clipPath id="clip0_397_2390">
<rect width="107" height="80" fill="white"/>
</clipPath>
</defs>
</svg>
