<svg width="93" height="80" viewBox="0 0 93 80" fill="none" xmlns="http://www.w3.org/2000/svg">
<g clip-path="url(#clip0_397_2466)">
<path d="M78.7703 48.0822H19.9138C19.8175 48.0822 19.7397 48.0048 19.7397 47.9091V6.17142C19.7397 6.07566 19.8175 5.99826 19.9138 5.99826H78.7703C78.8666 5.99826 78.9445 6.07566 78.9445 6.17142V47.9091C78.9445 48.0048 78.8666 48.0822 78.7703 48.0822ZM20.088 47.7359H78.5961V6.34458H20.088V47.7359Z" fill="#4D4D4F"/>
<path d="M75.6691 45.28L76.4818 33.1006L72.2004 37.9195C71.8479 38.3151 71.2324 38.3335 70.858 37.9564L64.3943 31.466L65.9845 29.3467L71.3318 34.0178L76.5257 26.5667C76.7821 26.1979 77.18 25.9581 77.6201 25.8961C77.6943 25.8843 77.7703 25.8793 77.8478 25.8793H78.8478C79.497 27.9349 80.3873 29.8028 81.6049 31.414C82.0737 32.0345 82.8477 32.3496 83.6185 32.2256C83.8595 32.187 84.0974 32.1401 84.3301 32.0881L84.8832 45.2803H75.6691V45.28Z" fill="#4D4D4F"/>
<path d="M84.8834 45.4532H75.6692C75.6212 45.4532 75.575 45.4334 75.5421 45.3984C75.5093 45.3635 75.4923 45.3164 75.4954 45.2686L76.2744 33.5958L72.331 38.0341C72.1305 38.2592 71.8425 38.3927 71.5406 38.4009C71.2401 38.4111 70.949 38.2942 70.7341 38.0779L64.2706 31.5877C64.21 31.5268 64.2032 31.4312 64.2548 31.3624L65.845 29.2433C65.8741 29.2045 65.9182 29.1796 65.9664 29.1747C66.016 29.1697 66.0631 29.1851 66.0996 29.2168L71.3 33.7593L76.3826 26.468C76.6628 26.0648 77.105 25.7936 77.5957 25.7245C77.6726 25.7124 77.7561 25.7061 77.8479 25.7061H78.8479C78.924 25.7061 78.9913 25.7552 79.0141 25.8274C79.6963 27.9882 80.5893 29.7815 81.7443 31.31C82.1771 31.8829 82.8842 32.1685 83.5908 32.0545C83.8144 32.0189 84.0438 31.9745 84.2921 31.9191C84.3419 31.9079 84.3954 31.9193 84.4361 31.9507C84.4771 31.982 84.502 32.0296 84.5042 32.0809L85.0573 45.2731C85.0594 45.3202 85.0418 45.3661 85.0091 45.4002C84.9762 45.4339 84.9307 45.4532 84.8834 45.4532ZM75.8552 45.1068H84.7017L84.165 32.3006C83.9856 32.3378 83.8144 32.3693 83.6463 32.3964C82.8116 32.5314 81.9767 32.1941 81.4657 31.5179C80.3083 29.9861 79.4096 28.1974 78.7203 26.0525H77.8478C77.7746 26.0525 77.7091 26.0571 77.6477 26.067C77.2499 26.1231 76.8942 26.341 76.6689 26.6651L71.475 34.1164C71.4466 34.1569 71.4022 34.1837 71.3531 34.1896C71.3028 34.1957 71.2542 34.1804 71.2169 34.1479L66.0112 29.6005L64.6235 31.45L70.9818 37.8346C71.1282 37.9823 71.3228 38.0604 71.5312 38.0547C71.7399 38.0492 71.9313 37.9603 72.0701 37.8047L76.3514 32.9861C76.4007 32.9306 76.4799 32.9126 76.5489 32.941C76.6177 32.9694 76.6607 33.0384 76.6556 33.1122L75.8552 45.1068Z" fill="#4D4D4F"/>
<path d="M92.0688 76.2282L87.3201 78.4582C86.8429 78.6829 86.2729 78.5018 86.0149 78.0442C85.9272 77.8899 85.885 77.7205 85.885 77.5529C85.885 77.3098 85.9744 77.0684 86.1497 76.8788L88.175 74.679L88.116 74.5314C89.2442 74.2396 91.0671 73.7835 92.1953 73.502L92.6555 74.8568C92.8395 75.395 92.5866 75.9851 92.0688 76.2282Z" fill="#4D4D4F"/>
<path d="M86.8935 78.7268C86.479 78.7268 86.0773 78.5089 85.863 78.1288C85.7638 77.9538 85.711 77.7545 85.711 77.5527C85.711 77.2591 85.8214 76.978 86.0215 76.7616L87.973 74.6421L87.9545 74.5955C87.936 74.5493 87.9383 74.4975 87.9608 74.4532C87.9834 74.4088 88.024 74.3765 88.0724 74.3638C89.1696 74.08 90.9267 73.6402 92.1531 73.334C92.241 73.3117 92.3314 73.361 92.3603 73.4464L92.8208 74.8012C93.0333 75.4227 92.7421 76.1036 92.1433 76.3848L87.3944 78.6147C87.2333 78.6906 87.0621 78.7268 86.8935 78.7268ZM88.3469 74.6507C88.3556 74.7025 88.3401 74.756 88.3035 74.7957L86.2781 76.9955C86.1368 77.1484 86.0591 77.346 86.0591 77.5527C86.0591 77.6949 86.0962 77.8355 86.1664 77.959C86.3791 78.3365 86.8526 78.4864 87.2453 78.3017L91.9944 76.0715C92.4328 75.8658 92.6459 75.3675 92.4906 74.9124L92.0817 73.7088C90.9366 73.9948 89.3991 74.3801 88.3469 74.6507ZM92.0688 76.2282H92.0705H92.0688Z" fill="#4D4D4F"/>
<path d="M74.4651 75.3915L74.1717 77.4488C74.0806 78.0793 73.4818 78.5086 72.8512 78.3945L67.9288 77.4975C67.4516 77.4102 67.1042 76.9962 67.1042 76.5134V76.3373C67.1042 75.8712 67.4279 75.4672 67.8834 75.3616L70.9053 74.6656L70.9071 74.6455L74.4651 75.3915Z" fill="#4D4D4F"/>
<path d="M73.0573 78.5863C72.9785 78.5863 72.8993 78.5792 72.8202 78.5648L67.8973 77.6677C67.3369 77.5652 66.9301 77.0796 66.9301 76.5132V76.3371C66.9301 75.788 67.3057 75.3174 67.8437 75.1927L70.7943 74.5132C70.797 74.5108 70.7998 74.5086 70.803 74.5063C70.8429 74.4767 70.8935 74.4654 70.9428 74.4758L74.501 75.222C74.5909 75.2407 74.6505 75.3255 74.6376 75.4157L74.3441 77.4731C74.2931 77.8254 74.1053 78.1337 73.8152 78.3416C73.5907 78.5025 73.3279 78.5863 73.0573 78.5863ZM70.9531 74.832C70.9503 74.8327 70.9475 74.8336 70.9446 74.8343L67.9226 75.5302C67.5433 75.6182 67.2784 75.9501 67.2784 76.3373V76.5134C67.2784 76.9129 67.565 77.2551 67.9602 77.3273L72.8827 78.2244C73.1403 78.2713 73.3995 78.213 73.6119 78.0608C73.8246 77.9086 73.9622 77.6824 73.9995 77.4242L74.2701 75.5276L70.9531 74.832Z" fill="#4D4D4F"/>
<path d="M92.1952 73.502C91.067 73.7837 89.2441 74.2398 88.1159 74.5314L82.8966 61.2873L79.679 52.3404L76.5897 60.4791L74.4648 75.3915L70.9067 74.6454L71.9827 58.8795L75.6691 45.28H84.8832L87.9726 61.071L92.1952 73.502Z" fill="#F8F9FA"/>
<path d="M74.4651 75.5647C74.4533 75.5647 74.4411 75.5635 74.4292 75.561L70.871 74.8149C70.7861 74.7971 70.7274 74.7198 70.7331 74.6338L71.8091 58.8679C71.8099 58.8566 71.8118 58.8454 71.8146 58.8346L75.5008 45.2352C75.5214 45.1595 75.5904 45.107 75.6691 45.107H84.8832C84.9666 45.107 85.0384 45.1657 85.0541 45.2471L88.1414 61.0268L92.3601 73.4468C92.3758 73.4927 92.3713 73.5429 92.3481 73.5851C92.3248 73.6275 92.2849 73.6585 92.2375 73.6701C91.012 73.9763 89.2558 74.4159 88.16 74.6992C88.0748 74.7211 87.986 74.6764 87.954 74.5948L82.7348 61.3507L79.6749 52.8426L76.7598 60.5224L74.6377 75.4159C74.6309 75.4632 74.6048 75.506 74.5653 75.5335C74.5357 75.5538 74.5007 75.5647 74.4651 75.5647ZM71.091 74.507L74.3188 75.1837L76.4174 60.4546C76.4193 60.4421 76.4223 60.4296 76.427 60.4177L79.5162 52.2791C79.5416 52.2118 79.6068 52.1673 79.6792 52.1673C79.6797 52.1673 79.6803 52.1673 79.6808 52.1673C79.7538 52.168 79.8187 52.2139 79.8433 52.2821L83.061 61.2289L88.2222 74.3252C89.2681 74.0558 90.8136 73.6686 91.9702 73.3796L87.8082 61.1264C87.8056 61.119 87.8038 61.1115 87.8023 61.1041L84.7402 45.453H75.8032L72.1561 58.9079L71.091 74.507Z" fill="#4D4D4F"/>
<path d="M65.9844 29.3463L64.6705 28.3321C64.5772 28.2601 64.4743 28.2014 64.3645 28.1577L63.2963 27.733C63.144 27.6724 62.9699 27.7193 62.8694 27.848L62.1346 28.7874C62.0038 28.9545 62.0429 29.1969 62.2195 29.3152L63.2545 30.0085C63.3811 30.0933 63.4911 30.2002 63.5794 30.324L64.3945 31.4661L65.9844 29.3463Z" fill="#F8F9FA"/>
<path d="M64.3945 31.6393C64.3938 31.6393 64.3931 31.6393 64.3924 31.6393C64.3366 31.6386 64.2846 31.6116 64.2523 31.5662L63.4373 30.4239C63.361 30.3172 63.2668 30.2256 63.1569 30.152L62.1221 29.4587C61.9979 29.3758 61.9132 29.2436 61.8896 29.0966C61.866 28.9498 61.9052 28.7983 61.997 28.681L62.732 27.7415C62.8796 27.5532 63.1384 27.4836 63.3608 27.5719L64.4291 27.9969C64.5542 28.0466 64.6712 28.1132 64.7774 28.1953L66.0911 29.2093C66.1662 29.2672 66.1806 29.374 66.1238 29.4497L64.534 31.5695C64.501 31.6133 64.4493 31.6393 64.3945 31.6393ZM63.1604 27.88C63.1017 27.88 63.0442 27.9065 63.0068 27.9543L62.2718 28.8938C62.2386 28.9363 62.2248 28.9891 62.2335 29.0422C62.242 29.0956 62.2715 29.1413 62.3166 29.1716L63.3516 29.8649C63.4965 29.9622 63.621 30.0829 63.7213 30.2237L64.3979 31.1718L65.7426 29.3789L64.5637 28.4689C64.4833 28.4069 64.3943 28.3562 64.2997 28.3186L63.2314 27.8937C63.2085 27.8843 63.1844 27.88 63.1604 27.88Z" fill="#4D4D4F"/>
<path d="M18.2527 28.7983V45.6942H6.1347L6.58664 28.3439C6.622 27.0109 7.08578 25.7248 7.91041 24.6753L10.7603 21.0471L14.8363 22.6433L15.5294 22.9148L17.2226 25.4282C17.8936 26.4241 18.2527 27.5977 18.2527 28.7983Z" fill="#60A899"/>
<path d="M18.2527 45.8674H6.13488C6.08786 45.8674 6.04292 45.8485 6.01018 45.8151C5.97744 45.7817 5.9595 45.7365 5.96072 45.6895L6.41266 28.3392C6.44888 26.9785 6.932 25.6393 7.77335 24.5688L10.6233 20.9404C10.6706 20.8798 10.7528 20.8578 10.8242 20.8859L15.5932 22.7538C15.6261 22.7668 15.6545 22.7893 15.6742 22.8185L17.3673 25.332C18.0605 26.3604 18.4271 27.5591 18.4271 28.7985V45.6944C18.4269 45.79 18.3489 45.8674 18.2527 45.8674ZM6.31356 45.5211H18.0786V28.7983C18.0786 27.6279 17.7325 26.4959 17.0777 25.5247L15.4149 23.0561L10.8176 21.2556L8.04782 24.782C7.25227 25.7948 6.79528 27.0613 6.76097 28.3486L6.31356 45.5211Z" fill="#4D4D4F"/>
<path d="M16.9932 29.5439L20.4081 32.9931L30.7069 32.2086L31.7188 35.4902L21.701 37.1072C20.9898 37.222 20.262 37.0471 19.6819 36.6222L15.6924 33.631" fill="#F8F9FA"/>
<path d="M21.2768 37.3139C20.6706 37.3139 20.0701 37.1216 19.5786 36.7614L15.5874 33.7694C15.5108 33.7117 15.4955 33.6031 15.5533 33.5268C15.6113 33.4509 15.7201 33.4352 15.7973 33.4928L19.7867 36.4838C20.324 36.8777 21.0123 37.0428 21.673 36.9361L31.4936 35.351L30.5812 32.392L20.4213 33.1659C20.3698 33.169 20.3198 33.1512 20.2839 33.1146L16.8692 29.6655C16.8017 29.5972 16.8027 29.4878 16.8713 29.4206C16.9398 29.3532 17.0498 29.3543 17.1176 29.4227L20.4755 32.8145L30.6937 32.0362C30.7705 32.0319 30.8495 32.0805 30.8734 32.1581L31.8852 35.4395C31.9 35.4873 31.8933 35.539 31.8668 35.5816C31.8401 35.6241 31.7964 35.653 31.7468 35.6611L21.7291 37.2781C21.5788 37.3022 21.4276 37.3139 21.2768 37.3139Z" fill="#4D4D4F"/>
<path d="M30.8523 32.6804L33.5267 32.2267C33.5977 32.2146 33.6702 32.2118 33.7421 32.2182L36.1948 32.4388C36.4464 32.4615 36.6006 32.7238 36.4969 32.9527L36.323 33.3372C36.2667 33.4617 36.1453 33.5444 36.0082 33.552L34.1038 33.6575L34.8165 34.1139C34.9562 34.2035 35.0349 34.3619 35.0215 34.5266C35.003 34.7529 34.8172 34.9295 34.589 34.9378L31.5822 35.0466L30.8523 32.6804Z" fill="#F8F9FA"/>
<path d="M31.582 35.2201C31.5058 35.2201 31.438 35.1707 31.4155 35.0977L30.686 32.7313C30.6714 32.6838 30.678 32.6322 30.7041 32.5898C30.7304 32.5474 30.7738 32.5183 30.8232 32.51L33.4974 32.0563C33.5833 32.0416 33.6709 32.0383 33.7578 32.0459L36.2103 32.2665C36.3844 32.2823 36.541 32.3811 36.6293 32.5311C36.7174 32.6812 36.7273 32.8655 36.6556 33.0241L36.4816 33.4083C36.3982 33.5926 36.2204 33.7141 36.0175 33.725L34.6486 33.8009L34.9107 33.9687C35.1045 34.093 35.2134 34.3122 35.1949 34.541C35.1695 34.8549 34.9116 35.1001 34.5951 35.1112L31.5883 35.2199C31.5862 35.2201 31.5841 35.2201 31.582 35.2201ZM31.0768 32.8178L31.7094 34.8689L34.5824 34.765C34.7224 34.76 34.8363 34.6516 34.8475 34.5129C34.8559 34.4116 34.8076 34.3146 34.7218 34.2598L34.0089 33.8031C33.9455 33.7626 33.9157 33.6857 33.9349 33.6132C33.9541 33.5406 34.0183 33.4887 34.0936 33.4847L35.9982 33.3792C36.0706 33.3753 36.134 33.332 36.1638 33.2662L36.3378 32.8819C36.3637 32.8244 36.3604 32.7604 36.3282 32.7058C36.2961 32.6514 36.2418 32.6168 36.1787 32.6113L33.7263 32.3907C33.6693 32.3855 33.612 32.3877 33.5556 32.3974L31.0768 32.8178Z" fill="#4D4D4F"/>
<path d="M13.2532 29.5439V37.9513L16.8306 44.9574L14.012 46.7898L9.54068 39.8525C9.24026 39.3863 9.08787 38.841 9.10355 38.2876L9.3505 29.5441" fill="#F8F9FA"/>
<path d="M14.012 46.9629C13.9998 46.9629 13.9876 46.9617 13.9756 46.9591C13.93 46.9494 13.8904 46.9223 13.8654 46.8833L9.39405 39.946C9.07325 39.4483 8.9125 38.8733 8.92922 38.2828L9.17635 29.5392C9.17914 29.4436 9.25647 29.3737 9.35539 29.3709C9.45152 29.3737 9.52711 29.4533 9.52467 29.5489L9.27754 38.2925C9.26273 38.8132 9.4045 39.3203 9.68733 39.759L14.0639 46.5493L16.6047 44.8975L13.098 38.03C13.0857 38.0055 13.0792 37.9787 13.0792 37.9515V29.5441C13.0792 29.4483 13.1571 29.3709 13.2534 29.3709C13.3497 29.3709 13.4275 29.4483 13.4275 29.5441V37.91L16.9861 44.879C17.0263 44.9578 17.0005 45.054 16.926 45.1023L14.1073 46.9347C14.0789 46.9533 14.0456 46.9629 14.012 46.9629Z" fill="#4D4D4F"/>
<path d="M14.2891 46.6097L15.6383 48.0653L18.367 50.6765C18.4621 50.7676 18.6077 50.7817 18.7186 50.7107L19.2871 50.3472C19.4248 50.2591 19.4598 50.0739 19.3633 49.9423L18.0955 48.2088L18.9377 48.6064C19.0798 48.6734 19.2496 48.6355 19.3491 48.5145C19.4586 48.3811 19.4506 48.1875 19.3304 48.0636L18.5654 47.2748L16.6883 45.05L14.2891 46.6097Z" fill="#F8F9FA"/>
<path d="M18.5641 50.9292C18.4486 50.9292 18.3344 50.8857 18.2461 50.8014L15.5174 48.1901L14.1611 46.7271C14.1264 46.6897 14.11 46.639 14.1163 46.5884C14.1226 46.5378 14.151 46.4927 14.1938 46.4648L16.5926 44.9051C16.6665 44.8568 16.7645 44.8717 16.8213 44.9387L18.6984 47.1635L19.4556 47.9434C19.6367 48.1304 19.6488 48.423 19.4838 48.6239C19.3334 48.8075 19.078 48.8648 18.863 48.7631L18.6386 48.6573L19.5044 49.8407C19.5784 49.9418 19.6075 50.0703 19.5843 50.1933C19.5612 50.3162 19.4871 50.4255 19.3814 50.493L18.8128 50.8565C18.736 50.9055 18.6498 50.9292 18.5641 50.9292ZM14.5564 46.6426L15.7661 47.9479L18.4875 50.5517C18.5246 50.5875 18.581 50.5927 18.6244 50.5649L19.1928 50.2016C19.2186 50.1849 19.2362 50.1593 19.2418 50.1292C19.2473 50.0991 19.2405 50.0688 19.2226 50.044L17.9546 48.3105C17.9075 48.2466 17.9105 48.159 17.9613 48.098C18.0124 48.0369 18.0984 48.0182 18.17 48.0521L19.0122 48.4499C19.0822 48.4824 19.1651 48.4639 19.2141 48.4047C19.2677 48.3392 19.2637 48.2442 19.2047 48.1834L18.4396 47.3946L16.6538 45.2786L14.5564 46.6426Z" fill="#4D4D4F"/>
<path d="M22.757 76.7652C22.7314 76.7652 22.7054 76.7595 22.6817 76.7482C22.6375 76.7271 22.6044 76.6887 22.5903 76.6422L18.0923 61.8615L13.3445 54.093L10.9271 62.1267C10.9245 62.1352 10.9214 62.1435 10.9176 62.1515L4.8468 74.8708C4.81214 74.9437 4.73133 74.9827 4.65174 74.9657L1.39866 74.2464C1.35198 74.236 1.31175 74.2071 1.28719 74.1666C1.26246 74.1261 1.25567 74.0772 1.26839 74.0315L5.96419 56.9939L7.76881 45.6674C7.78204 45.5832 7.85501 45.5212 7.9407 45.5212H17.9424C18.0119 45.5212 18.0747 45.5622 18.1023 45.6258L24.146 59.5657C24.1523 59.5799 24.1567 59.5951 24.1586 59.6106L26.3254 75.2038C26.3364 75.2824 26.2924 75.3584 26.2183 75.3879L22.8221 76.7527C22.8012 76.761 22.7791 76.7652 22.757 76.7652ZM13.2899 53.497C13.3504 53.497 13.407 53.5281 13.4387 53.5801L18.4015 61.7002C18.4091 61.7127 18.415 61.726 18.4194 61.7399L22.8686 76.3605L25.9621 75.1172L23.8172 59.6809L17.828 45.8672H8.0896L6.30676 57.0571C6.30571 57.0634 6.30449 57.0696 6.30292 57.0758L1.65292 73.9474L4.59183 74.5972L10.5973 62.0147L13.1231 53.6203C13.1428 53.5548 13.1994 53.507 13.2678 53.4982C13.2751 53.4975 13.2826 53.497 13.2899 53.497Z" fill="#4D4D4F"/>
<path d="M30.2713 78.21L24.6777 79.6604C24.3134 79.756 23.9358 79.5648 23.7974 79.2161L22.757 76.592L26.1532 75.2272L27.0435 76.0739C27.2847 76.302 27.6186 76.4059 27.9474 76.3539L29.821 76.0604C29.8783 76.0521 29.9355 76.0469 29.9913 76.0469C30.4263 76.0469 30.8295 76.3035 31.0064 76.7092C31.2764 77.3281 30.9272 78.0407 30.2713 78.21Z" fill="#4D4D4F"/>
<path d="M24.4886 79.8582C24.1203 79.8582 23.7765 79.6355 23.6354 79.2795L22.5948 76.6557C22.5598 76.5673 22.603 76.4672 22.6917 76.4317L26.0879 75.0668C26.1513 75.041 26.2243 75.0551 26.2735 75.1022L27.1638 75.9489C27.3641 76.1387 27.648 76.2251 27.92 76.1832L29.794 75.8897C29.8647 75.8793 29.9305 75.8741 29.9913 75.8741C30.5019 75.8741 30.9629 76.1749 31.1661 76.6407C31.3152 76.9825 31.3065 77.3702 31.1423 77.7049C30.9784 78.0393 30.6766 78.2845 30.3149 78.3778L24.7216 79.8282C24.6441 79.8483 24.5659 79.8582 24.4886 79.8582ZM22.9823 76.6883L23.9595 79.1524C24.0652 79.4194 24.3536 79.5664 24.6333 79.493L30.2273 78.0424C30.2273 78.0424 30.2273 78.0424 30.2274 78.0424C30.4906 77.9744 30.71 77.796 30.8292 77.5529C30.9488 77.3092 30.9551 77.027 30.8467 76.7782C30.6987 76.4393 30.3629 76.2201 29.9913 76.2201C29.9477 76.2201 29.899 76.2239 29.8466 76.2317L27.9745 76.5248C27.5956 76.5841 27.2023 76.4628 26.9235 76.1991L26.1142 75.4294L22.9823 76.6883Z" fill="#4D4D4F"/>
<path d="M7.81601 78.8087C7.81601 78.9578 7.78397 79.107 7.71483 79.248C7.4771 79.7325 6.89873 79.9439 6.4029 79.7292L0.672779 77.2511C0.338919 77.1068 0.192104 76.7179 0.345711 76.3893L1.43681 74.0771L4.68972 74.7964L5.49746 76.3439C5.61884 76.5785 5.79265 76.7832 6.00513 76.9441L7.41667 78.0071C7.67599 78.2033 7.81601 78.5018 7.81601 78.8087Z" fill="#4D4D4F"/>
<path d="M6.80746 79.9867C6.64898 79.9867 6.48789 79.9548 6.33324 79.888L0.603286 77.4099C0.399174 77.3217 0.243301 77.1593 0.164233 76.9524C0.0848178 76.7446 0.093179 76.5186 0.187746 76.3162L1.27901 74.0035C1.31332 73.9302 1.39396 73.8906 1.47442 73.9079L4.72751 74.6272C4.77784 74.6383 4.8205 74.671 4.84436 74.7165L5.6521 76.2641C5.76235 76.4769 5.91665 76.6592 6.11084 76.8066L7.52186 77.8693C7.81984 78.0942 7.99051 78.4365 7.99051 78.8088C7.99051 78.9903 7.95063 79.1638 7.87157 79.3241C7.66623 79.742 7.24669 79.9867 6.80746 79.9867ZM1.53485 74.2762L0.503146 76.4627C0.448635 76.579 0.443757 76.7096 0.489734 76.8294C0.535189 76.9482 0.624532 77.0416 0.741913 77.0923L6.47204 79.5704C6.88375 79.7491 7.36094 79.574 7.55808 79.1719C7.61346 79.0592 7.6415 78.9371 7.6415 78.8087C7.6415 78.5456 7.52099 78.3039 7.31078 78.1449L5.89941 77.0821C5.66656 76.9056 5.47394 76.6779 5.3421 76.423L4.57198 74.9477L1.53485 74.2762Z" fill="#4D4D4F"/>
<path d="M18.3118 18.3827L18.0065 18.6341C17.9474 18.6843 17.9035 18.7515 17.8851 18.8268L17.6068 19.9184L17.45 20.5339C17.3252 21.0251 16.8396 21.337 16.337 21.2481L15.2038 21.0469L14.8361 22.6431L10.7601 21.0469L11.1262 19.6251L13.3337 18.0104L13.1717 16.9777C13.1649 16.939 13.1632 16.9022 13.1632 16.8635C13.1632 16.6859 13.2272 16.5131 13.3471 16.3773C13.5764 16.1207 13.9575 16.0554 14.2593 16.2248L15.2409 16.7714L15.2189 14.9891C15.2139 14.481 15.686 14.1004 16.1836 14.2111L17.7637 14.5616C17.826 14.5751 17.8884 14.5851 17.9509 14.5884V17.1285C17.9509 17.2007 17.9711 17.2693 18.0115 17.3297L18.3842 17.8982C18.4871 18.054 18.4568 18.262 18.3118 18.3827Z" fill="#F8F9FA"/>
<path d="M14.8361 22.8165C14.8145 22.8165 14.7929 22.8125 14.7724 22.8045L10.6966 21.2081C10.6147 21.1761 10.5698 21.0887 10.5916 21.004L10.9576 19.5822C10.9677 19.5434 10.9907 19.5093 11.0231 19.4855L13.1454 17.9332L12.9998 17.0043C12.9904 16.9517 12.9892 16.9013 12.9892 16.8636C12.9892 16.6424 13.0698 16.4291 13.2163 16.263C13.5 15.9453 13.9746 15.8662 14.345 16.0738L15.063 16.4738L15.0449 14.991C15.042 14.6949 15.1728 14.4185 15.4042 14.2326C15.6348 14.0471 15.9333 13.9775 16.2217 14.0419L17.8017 14.3922C17.8628 14.4052 17.9137 14.4125 17.9605 14.4152C18.0528 14.4201 18.1251 14.4961 18.1251 14.5881V17.1281C18.1251 17.1669 18.1357 17.2024 18.1566 17.2336L18.5303 17.8031C18.6813 18.0322 18.6357 18.3385 18.4239 18.515C18.4236 18.5152 18.4234 18.5153 18.4231 18.5157L18.1178 18.7671C18.0869 18.7933 18.0638 18.8294 18.0545 18.8675L17.6192 20.5759C17.4727 21.1522 16.8952 21.5226 16.3069 21.418L15.3368 21.2459L15.0063 22.6814C14.9951 22.7304 14.9626 22.7723 14.9178 22.7959C14.8922 22.8097 14.8643 22.8165 14.8361 22.8165ZM10.9672 20.9416L14.7118 22.4083L15.0343 21.0081C15.055 20.9181 15.144 20.8603 15.2346 20.8764L16.3678 21.0776C16.7766 21.1505 17.1794 20.893 17.2813 20.4913L17.7163 18.7843C17.7425 18.6779 17.8057 18.5773 17.8934 18.5025L18.2005 18.2497C18.2768 18.1858 18.2933 18.0755 18.239 17.9929L17.8658 17.4242C17.8079 17.3377 17.7769 17.235 17.7769 17.1285V14.7408C17.7607 14.7377 17.7442 14.7346 17.7273 14.7307L16.1458 14.3801C15.9613 14.3392 15.7708 14.3834 15.6233 14.502C15.4753 14.6211 15.3915 14.7979 15.3934 14.9874L15.4154 16.7692C15.4161 16.831 15.3837 16.8885 15.3302 16.9202C15.2767 16.9519 15.2104 16.9527 15.1562 16.9224L14.1747 16.3759C13.9457 16.2476 13.6529 16.2966 13.4775 16.4925C13.3877 16.5945 13.3377 16.7268 13.3377 16.8639C13.3377 16.8923 13.3385 16.9195 13.3436 16.9479L13.5061 17.9837C13.5162 18.0476 13.4895 18.1115 13.4371 18.15L11.2797 19.728L10.9672 20.9416ZM18.3119 18.3827H18.3137H18.3119Z" fill="#4D4D4F"/>
<path d="M19.472 12.8546C19.4753 13.0977 19.4569 13.3493 19.3978 13.5874C19.2426 14.2229 18.5984 14.6386 17.9509 14.5884C17.8886 14.5851 17.826 14.5749 17.7637 14.5616L16.1836 14.2111C15.686 14.1004 15.2139 14.481 15.2189 14.9891L15.2409 16.7714L14.2593 16.2248C13.9575 16.0554 13.5764 16.1209 13.3471 16.3773C13.2274 16.5131 13.1632 16.6857 13.1632 16.8636C13.1632 16.9022 13.1649 16.9391 13.1717 16.9777L13.3337 18.0104L11.1262 19.6251L11.1396 19.5732L10.2392 16.6423C10.0875 16.151 10.0149 15.6379 10.052 15.1249C10.0536 15.0998 10.0553 15.0746 10.0571 15.0478C10.1718 13.7233 11.2173 12.6653 12.5461 12.5077L15.8816 12.1088L18.1986 11.7801C18.8614 11.6861 19.4652 12.1891 19.472 12.8546Z" fill="#4D4D4F"/>
<path d="M11.1264 19.7983C11.0924 19.7983 11.0583 19.7884 11.0289 19.7685C10.9677 19.7276 10.9392 19.6528 10.9576 19.582L10.959 19.5773L10.0727 16.693C9.90677 16.1555 9.84129 15.6237 9.87856 15.1124L9.88326 15.0379C10.0045 13.6372 11.1156 12.5028 12.5256 12.3357L15.861 11.9366L18.174 11.6085C18.545 11.5562 18.918 11.6649 19.2012 11.9067C19.48 12.1446 19.642 12.4892 19.646 12.8523C19.65 13.1392 19.6234 13.4005 19.5668 13.6287C19.3949 14.3326 18.6972 14.8185 17.9373 14.761C17.8757 14.7576 17.8078 14.748 17.7271 14.7307L16.1456 14.3801C15.9612 14.3392 15.7707 14.3834 15.6231 14.502C15.4751 14.6211 15.3913 14.7979 15.3932 14.9873L15.4152 16.7692C15.4159 16.831 15.3835 16.8885 15.33 16.9202C15.2766 16.9518 15.2102 16.9527 15.156 16.9224L14.1745 16.3759C13.9455 16.2476 13.6527 16.2966 13.4773 16.4925C13.3875 16.5944 13.3375 16.7267 13.3375 16.8639C13.3375 16.8923 13.3384 16.9195 13.3434 16.9479L13.5059 17.9837C13.516 18.0476 13.4894 18.1115 13.4369 18.1499L11.2295 19.7647C11.199 19.787 11.1626 19.7983 11.1264 19.7983ZM18.3571 11.942C18.3126 11.942 18.2679 11.9451 18.2233 11.9515L15.9063 12.28L12.5667 12.6796C11.3197 12.8275 10.3373 13.8298 10.2304 15.0627L10.2258 15.1354C10.1917 15.6059 10.2521 16.0951 10.4056 16.5915L11.2448 19.3233L13.1451 17.9333L12.9995 17.0045C12.9901 16.9518 12.9888 16.9015 12.9888 16.8637C12.9888 16.6426 13.0695 16.4293 13.2159 16.2632C13.4996 15.9454 13.9742 15.8663 14.3446 16.0739L15.0627 16.4739L15.0446 14.9912C15.0416 14.6951 15.1724 14.4187 15.4039 14.2327C15.6345 14.0473 15.933 13.9776 16.2214 14.0421L17.8013 14.3924C17.8625 14.4054 17.9133 14.4126 17.9602 14.4154C18.5434 14.4608 19.0981 14.0788 19.2282 13.5461C19.2778 13.3461 19.301 13.1143 19.2973 12.8568C19.2973 12.8566 19.2973 12.8564 19.2973 12.8561C19.2945 12.5927 19.1768 12.3422 18.9741 12.169C18.8015 12.0216 18.5821 11.942 18.3571 11.942ZM17.6071 20.0925C17.605 20.0925 17.6033 20.0925 17.6012 20.0923C16.601 20.0594 15.9425 19.5898 15.915 19.5697C15.8374 19.5134 15.8201 19.405 15.8769 19.3279C15.9333 19.2509 16.042 19.2336 16.12 19.2897C16.1259 19.294 16.7243 19.7169 17.6127 19.7463C17.7088 19.7494 17.7841 19.8294 17.7809 19.925C17.7778 20.0187 17.7005 20.0925 17.6071 20.0925Z" fill="#4D4D4F"/>
<path d="M17.9507 16.3157C17.9277 16.3157 17.9042 16.3112 17.8818 16.3015C17.2926 16.0483 16.6752 16.2994 16.6689 16.3022C16.5805 16.3389 16.4781 16.2977 16.441 16.2097C16.4035 16.1217 16.4446 16.0204 16.5331 15.983C16.5636 15.9704 17.2914 15.6703 18.0197 15.9836C18.1082 16.0216 18.1486 16.1235 18.1104 16.2111C18.0824 16.2765 18.0183 16.3157 17.9507 16.3157Z" fill="#4D4D4F"/>
<path d="M17.2761 16.7557C17.1797 16.7557 17.1019 16.6783 17.1019 16.5825V16.3489C17.1019 16.2532 17.1797 16.1758 17.2761 16.1758C17.3724 16.1758 17.4502 16.2532 17.4502 16.3489V16.5825C17.4502 16.6781 17.3724 16.7557 17.2761 16.7557Z" fill="#4D4D4F"/>
<path d="M87.7924 30.5319C86.7873 31.2864 85.6253 31.7945 84.3303 32.0878C84.0976 32.1397 83.8597 32.1868 83.6187 32.2253C82.848 32.3493 82.0739 32.0341 81.6051 31.4137C80.3875 29.8024 79.4971 27.9345 78.848 25.879C78.5799 25.0407 78.3539 24.1704 78.1616 23.275C78.042 22.7167 78.2005 22.1349 78.585 21.7107L78.821 21.4507C78.9661 21.2897 79.0082 21.0634 78.9323 20.8623C78.8447 20.636 78.627 20.4935 78.391 20.4935C78.3539 20.4935 78.3168 20.4968 78.2797 20.5036L77.9458 20.5706C77.8936 19.2897 77.3135 18.5082 76.0757 18.3456C76.0049 18.3356 75.9375 18.3171 75.8751 18.2904C75.6019 18.173 75.4164 17.903 75.4164 17.5945C75.4164 17.2909 75.5968 17.0161 75.8767 16.897L77.7553 16.0904C79.101 15.5119 80.6862 15.9848 81.4518 17.2272C82.1667 18.3891 82.7486 19.6684 83.1887 21.0719C83.44 21.88 83.8548 22.6294 84.4097 23.27L88.1027 27.5304C88.885 28.4345 88.75 29.8142 87.7924 30.5319Z" fill="#60A899"/>
<path d="M83.2831 32.4254C82.5758 32.4254 81.9024 32.0957 81.4658 31.5179C80.2867 29.9574 79.376 28.13 78.6819 25.9311C78.4232 25.1226 78.1909 24.2408 77.9913 23.3113C77.8603 22.7016 78.034 22.0599 78.4555 21.595L78.6916 21.3351C78.7926 21.223 78.8224 21.0649 78.7689 20.9235C78.6994 20.7435 78.5054 20.6377 78.3109 20.6741L77.9802 20.7406C77.9297 20.7501 77.8781 20.7382 77.8382 20.707C77.7982 20.6757 77.7738 20.6286 77.7717 20.578C77.7209 19.337 77.1585 18.663 76.0528 18.5177C75.9643 18.5051 75.8821 18.4824 75.806 18.4499C75.4633 18.3022 75.2421 17.9667 75.2421 17.5948C75.2421 17.2206 75.4641 16.8841 75.8081 16.738L77.686 15.9319C79.1155 15.317 80.798 15.8357 81.6002 17.1371C82.3266 18.3179 82.917 19.6246 83.3548 21.0208C83.6016 21.8147 84.001 22.5333 84.5414 23.1576L88.2344 27.4178C88.6428 27.8897 88.8385 28.5148 88.7717 29.1331C88.7046 29.752 88.3941 30.2982 87.897 30.6706C86.9003 31.4187 85.7133 31.9524 84.3688 32.257C84.1129 32.3141 83.8768 32.3598 83.6464 32.3967C83.525 32.4159 83.4034 32.4254 83.2831 32.4254ZM78.391 20.3205C78.7057 20.3205 78.9821 20.5089 79.0948 20.8003C79.1942 21.0642 79.139 21.3574 78.9508 21.5666L78.7142 21.827C78.3673 22.2097 78.2243 22.7376 78.332 23.2389C78.5293 24.1577 78.7586 25.0282 79.0141 25.8267C79.6965 27.9879 80.5896 29.7813 81.7446 31.3098C82.1774 31.8828 82.8844 32.1683 83.591 32.0544C83.8146 32.0187 84.044 31.9744 84.2923 31.9189C85.5877 31.6254 86.7304 31.1124 87.6875 30.3938C87.6875 30.3938 87.6875 30.3936 87.6877 30.3936C88.1069 30.0795 88.369 29.6183 88.4256 29.0959C88.4822 28.5723 88.3164 28.0429 87.9707 27.6434L84.2777 23.3832C83.7058 22.7228 83.2834 21.9622 83.0224 21.1231C82.5931 19.7544 82.0147 18.4739 81.3033 17.3174C80.5911 16.1621 79.0956 15.7032 77.8243 16.2493L75.9458 17.0557C75.7299 17.1475 75.5906 17.3589 75.5906 17.5943C75.5906 17.828 75.7294 18.0388 75.9443 18.1312C75.9916 18.1517 76.0444 18.166 76.1005 18.174C77.3196 18.3344 77.9944 19.0699 78.107 20.3614L78.2452 20.3337C78.2954 20.3248 78.3436 20.3205 78.391 20.3205Z" fill="#4D4D4F"/>
<path d="M77.6202 26.0691C77.5791 26.0691 77.5389 26.0545 77.5073 26.0277C77.4683 25.995 77.446 25.9467 77.446 25.8959V25.0459C77.446 24.7778 77.2438 24.548 76.9758 24.5113L76.736 24.4779C76.0813 24.3889 75.5624 23.8708 75.4746 23.218L75.252 21.534C75.2506 21.5217 75.2454 21.5115 75.2369 21.5016L75.0563 21.2919C74.9923 21.2173 74.9572 21.1233 74.9572 21.0268C74.9572 20.8545 75.0667 20.7001 75.2297 20.6424C75.249 20.6355 75.2645 20.617 75.2687 20.5946L75.7038 18.2592C75.7135 18.2073 75.7463 18.1626 75.7931 18.138C75.84 18.1129 75.8953 18.1112 75.9439 18.1316C75.9917 18.1522 76.0444 18.1666 76.1005 18.1745C77.3196 18.3349 77.9945 19.0705 78.107 20.3619L78.2452 20.3342C78.6272 20.2648 78.965 20.4651 79.0948 20.8005C79.1942 21.0644 79.139 21.3576 78.9508 21.5667L78.7142 21.8272C78.3673 22.2099 78.2243 22.7378 78.332 23.2391C78.5293 24.1579 78.7587 25.0284 79.0141 25.8268C79.031 25.8795 79.0215 25.937 78.9887 25.9815C78.956 26.0261 78.9037 26.0525 78.848 26.0525H77.848C77.7748 26.0525 77.7094 26.0571 77.6479 26.067C77.6387 26.0684 77.6294 26.0691 77.6202 26.0691ZM76.011 18.5106L75.6111 20.6573C75.5846 20.8 75.4835 20.9191 75.3473 20.9683C75.3159 20.9792 75.3053 21.0066 75.3053 21.0267C75.3053 21.0412 75.3105 21.0547 75.321 21.0667L75.5014 21.2762C75.5559 21.3394 75.5892 21.4144 75.5977 21.4926L75.8198 23.1721C75.8868 23.6706 76.2832 24.0665 76.7839 24.1345L77.0239 24.1681C77.4629 24.2282 77.7944 24.6054 77.7944 25.0455V25.7063C77.8119 25.7058 77.8297 25.7056 77.848 25.7056H78.6112C78.3807 24.9591 78.1724 24.1548 77.9913 23.311C77.8604 22.7013 78.034 22.0596 78.4555 21.5946L78.6916 21.3347C78.7926 21.2225 78.8224 21.0646 78.7689 20.9231C78.6994 20.7432 78.5054 20.6374 78.3109 20.6738L77.98 20.7403C77.9297 20.7498 77.8781 20.7378 77.8382 20.7067C77.7982 20.6753 77.7738 20.6282 77.7717 20.5777C77.7209 19.3366 77.1585 18.6627 76.0528 18.5174C76.0387 18.5155 76.0247 18.5132 76.011 18.5106Z" fill="#4D4D4F"/>
<path d="M78.7705 0.187347H19.9138V6.17142H78.7705V0.187347Z" fill="#60A899"/>
<path d="M78.7703 6.34458H19.9138C19.8175 6.34458 19.7397 6.26718 19.7397 6.17142V0.187351C19.7397 0.0915933 19.8175 0.0141907 19.9138 0.0141907H78.7703C78.8666 0.0141907 78.9445 0.0915933 78.9445 0.187351V6.17142C78.9445 6.267 78.8666 6.34458 78.7703 6.34458ZM20.088 5.99826H78.5961V0.360511H20.088V5.99826ZM76.4195 23.1803C75.9765 23.1803 75.5841 23.0694 75.5594 23.0623C75.4671 23.0357 75.4139 22.9397 75.4406 22.848C75.4672 22.7562 75.5637 22.7032 75.656 22.7295C75.6642 22.7318 76.4726 22.9595 76.9803 22.7373C77.0688 22.6994 77.1712 22.7389 77.2099 22.8263C77.2485 22.9139 77.2085 23.0161 77.1203 23.0545C76.904 23.1491 76.6546 23.1803 76.4195 23.1803ZM76.5749 19.9641C76.5453 19.9641 76.5153 19.9567 76.4878 19.9408C76.2987 19.8317 75.8694 19.8933 75.6433 19.9574C75.5515 19.9841 75.4545 19.9306 75.4281 19.8386C75.4016 19.7467 75.4549 19.6509 75.5474 19.6246C75.6217 19.6035 76.2839 19.4234 76.6623 19.6412C76.7456 19.689 76.7741 19.795 76.7257 19.8777C76.6937 19.9332 76.6351 19.9641 76.5749 19.9641Z" fill="#4D4D4F"/>
<path d="M76.1484 20.4003C76.0521 20.4003 75.9742 20.3229 75.9742 20.2272V20.072C75.9742 19.9763 76.0521 19.8989 76.1484 19.8989C76.2447 19.8989 76.3226 19.9763 76.3226 20.072V20.2272C76.3226 20.3228 76.2447 20.4003 76.1484 20.4003Z" fill="#4D4D4F"/>
<path d="M38.8035 48.0762C38.7072 48.0762 38.6293 47.9988 38.6293 47.903V0.187015C38.6293 0.0912576 38.7072 0.013855 38.8035 0.013855C38.8998 0.013855 38.9776 0.0912576 38.9776 0.187015V47.903C38.9776 47.9986 38.8996 48.0762 38.8035 48.0762ZM59.8805 48.0762C59.7842 48.0762 59.7063 47.9988 59.7063 47.903V0.187015C59.7063 0.0912576 59.7842 0.013855 59.8805 0.013855C59.9768 0.013855 60.0547 0.0912576 60.0547 0.187015V47.903C60.0547 47.9986 59.9768 48.0762 59.8805 48.0762Z" fill="#4D4D4F"/>
<path d="M27.3582 9.49557H22.2631V16.0786H27.3582V9.49557Z" fill="#4D4D4F"/>
<path d="M27.3582 16.2518H22.2631C22.1667 16.2518 22.0889 16.1744 22.0889 16.0786V9.49558C22.0889 9.39982 22.1667 9.32242 22.2631 9.32242H27.3582C27.4545 9.32242 27.5324 9.39982 27.5324 9.49558V16.0786C27.5324 16.1742 27.4545 16.2518 27.3582 16.2518ZM22.4372 15.9054H27.184V9.66874H22.4372V15.9054Z" fill="#4D4D4F"/>
<path d="M57.8208 9.49557H52.7256V16.0786H57.8208V9.49557Z" fill="#D3E4EC"/>
<path d="M57.8208 16.2518H52.7256C52.6293 16.2518 52.5515 16.1744 52.5515 16.0786V9.49558C52.5515 9.39982 52.6293 9.32242 52.7256 9.32242H57.8208C57.9171 9.32242 57.9949 9.39982 57.9949 9.49558V16.0786C57.9949 16.1742 57.9171 16.2518 57.8208 16.2518ZM52.8998 15.9054H57.6466V9.66874H52.8998V15.9054Z" fill="#4D4D4F"/>
<path d="M26.8162 22.1526H21.7211V28.7356H26.8162V22.1526Z" fill="#4D4D4F"/>
<path d="M26.8162 28.9086H21.7211C21.6248 28.9086 21.5469 28.8312 21.5469 28.7354V22.1524C21.5469 22.0566 21.6248 21.9792 21.7211 21.9792H26.8162C26.9125 21.9792 26.9904 22.0566 26.9904 22.1524V28.7354C26.9904 28.8312 26.9123 28.9086 26.8162 28.9086ZM21.8952 28.5622H26.642V22.3255H21.8952V28.5622Z" fill="#4D4D4F"/>
<path d="M35.3574 22.1526H30.2623V28.7356H35.3574V22.1526Z" fill="#4D4D4F"/>
<path d="M35.3574 28.9086H30.2623C30.166 28.9086 30.0881 28.8312 30.0881 28.7354V22.1524C30.0881 22.0566 30.166 21.9792 30.2623 21.9792H35.3574C35.4537 21.9792 35.5316 22.0566 35.5316 22.1524V28.7354C35.5316 28.8312 35.4535 28.9086 35.3574 28.9086ZM30.4364 28.5622H35.1832V22.3255H30.4364V28.5622Z" fill="#4D4D4F"/>
<path d="M33.2882 11.3003L31.6401 9.66165L29.992 11.3003L31.6401 12.939L33.2882 11.3003Z" fill="#D3E4EC"/>
<path d="M31.6404 13.1129C31.594 13.1129 31.5498 13.0947 31.5172 13.0622L29.8692 11.4234C29.8011 11.3557 29.8011 11.2462 29.8692 11.1785L31.5172 9.53991C31.5853 9.47221 31.6954 9.47221 31.7635 9.53991L33.4115 11.1785C33.4796 11.2462 33.4796 11.3557 33.4115 11.4234L31.7635 13.0622C31.7308 13.0945 31.6865 13.1129 31.6404 13.1129ZM30.2386 11.301L31.6404 12.6949L33.0422 11.301L31.6404 9.90719L30.2386 11.301Z" fill="#4D4D4F"/>
<path d="M36.1907 16.5819L34.5426 14.9432L32.8945 16.5818L34.5425 18.2205L36.1907 16.5819Z" fill="#D3E4EC"/>
<path d="M34.5429 18.3945C34.4965 18.3945 34.4523 18.3763 34.4197 18.3437L32.7715 16.7049C32.7388 16.6724 32.7205 16.6286 32.7205 16.5825C32.7205 16.5365 32.7388 16.4925 32.7715 16.4601L34.4197 14.8215C34.4878 14.7538 34.5979 14.7538 34.666 14.8215L36.3141 16.4601C36.3821 16.5278 36.3821 16.6372 36.3141 16.7049L34.666 18.3437C34.6333 18.3761 34.589 18.3945 34.5429 18.3945ZM33.1409 16.5825L34.5429 17.9764L35.9447 16.5825L34.5429 15.1887L33.1409 16.5825Z" fill="#4D4D4F"/>
<path d="M44.3162 10.1455L42.6681 8.50687L41.02 10.1455L42.6681 11.7842L44.3162 10.1455Z" fill="#F8F9FA"/>
<path d="M42.6682 11.9581C42.6236 11.9581 42.579 11.9411 42.5451 11.9074L40.897 10.2687C40.8289 10.201 40.8289 10.0916 40.897 10.0239L42.5451 8.38528C42.6132 8.31758 42.7232 8.31758 42.7913 8.38528L44.4396 10.0239C44.4723 10.0565 44.4906 10.1003 44.4906 10.1463C44.4906 10.1924 44.4723 10.2364 44.4396 10.2687L42.7913 11.9074C42.7574 11.9411 42.7128 11.9581 42.6682 11.9581ZM41.2664 10.1463L42.6682 11.5401L44.0702 10.1463L42.6682 8.75256L41.2664 10.1463Z" fill="#4D4D4F"/>
<path d="M47.2186 15.427L45.5705 13.7883L43.9224 15.4269L45.5704 17.0656L47.2186 15.427Z" fill="#F8F9FA"/>
<path d="M45.5707 17.2396C45.5261 17.2396 45.4815 17.2227 45.4476 17.1889L43.7993 15.5503C43.7666 15.5177 43.7483 15.4739 43.7483 15.4279C43.7483 15.3818 43.7666 15.3378 43.7993 15.3054L45.4476 13.6667C45.5129 13.6017 45.6285 13.6017 45.6938 13.6667L47.3419 15.3054C47.41 15.3731 47.41 15.4826 47.3419 15.5503L45.6938 17.1889C45.6599 17.2227 45.6153 17.2396 45.5707 17.2396ZM44.1687 15.4279L45.5707 16.8216L46.9725 15.4279L45.5707 14.0339L44.1687 15.4279Z" fill="#4D4D4F"/>
<path d="M49.0125 25.4432L44.9711 21.4248L40.9295 25.443L44.9709 29.4614L49.0125 25.4432Z" fill="#D3E4EC"/>
<path d="M44.9712 29.6355C44.9267 29.6355 44.8821 29.6185 44.8481 29.5848L40.8066 25.5666C40.7739 25.534 40.7556 25.4902 40.7556 25.4442C40.7556 25.3981 40.7739 25.3541 40.8066 25.3217L44.8481 21.3034C44.8809 21.2708 44.9249 21.2527 44.9712 21.2527C45.0176 21.2527 45.0618 21.2708 45.0944 21.3034L49.1357 25.3217C49.2038 25.3895 49.2038 25.4989 49.1357 25.5666L45.0944 29.5848C45.0602 29.6185 45.0158 29.6355 44.9712 29.6355ZM41.176 25.444L44.9712 29.2173L48.7663 25.444L44.9712 21.6705L41.176 25.444Z" fill="#4D4D4F"/>
<path d="M57.9956 32.2078L53.9542 28.1894L49.9127 32.2076L53.9541 36.226L57.9956 32.2078Z" fill="#60A899"/>
<path d="M53.9543 36.4C53.9097 36.4 53.8651 36.383 53.8312 36.3492L49.7897 32.3311C49.7569 32.2985 49.7386 32.2547 49.7386 32.2086C49.7386 32.1626 49.7569 32.1186 49.7897 32.0862L53.8312 28.0679C53.8965 28.0029 54.0121 28.0029 54.0774 28.0679L58.1187 32.0862C58.1868 32.1539 58.1868 32.2634 58.1187 32.3311L54.0774 36.3492C54.0433 36.383 53.9989 36.4 53.9543 36.4ZM50.1591 32.2086L53.9543 35.982L57.7494 32.2086L53.9543 28.4351L50.1591 32.2086Z" fill="#4D4D4F"/>
<path d="M70.0257 12.7862L65.9843 8.76782L61.9427 12.7861L65.9841 16.8045L70.0257 12.7862Z" fill="#4D4D4F"/>
<path d="M65.9844 16.9785C65.9381 16.9785 65.8938 16.9604 65.8612 16.9278L61.8199 12.9095C61.7518 12.8417 61.7518 12.7323 61.8199 12.6646L65.8612 8.64642C65.9293 8.57872 66.0394 8.57872 66.1075 8.64642L70.149 12.6646C70.1817 12.6972 70.2 12.741 70.2 12.787C70.2 12.8331 70.1817 12.8771 70.149 12.9095L66.1075 16.9278C66.0748 16.9602 66.0307 16.9785 65.9844 16.9785ZM62.1893 12.787L65.9844 16.5605L69.7796 12.787L65.9844 9.01369L62.1893 12.787Z" fill="#4D4D4F"/>
<path d="M74.9483 24.0441L70.9069 20.0257L66.8653 24.044L70.9067 28.0623L74.9483 24.0441Z" fill="#4D4D4F"/>
<path d="M70.9071 28.2364C70.8625 28.2364 70.818 28.2194 70.784 28.1856L66.7425 24.1674C66.7098 24.1349 66.6915 24.0911 66.6915 24.045C66.6915 23.9989 66.7098 23.955 66.7425 23.9226L70.784 19.9042C70.8493 19.8393 70.9649 19.8393 71.0303 19.9042L75.0716 23.9226C75.1397 23.9903 75.1397 24.0997 75.0716 24.1674L71.0303 28.1856C70.9961 28.2196 70.9515 28.2364 70.9071 28.2364ZM67.1119 24.045L70.9071 27.8183L74.7022 24.045L70.9071 20.2715L67.1119 24.045Z" fill="#4D4D4F"/>
<path d="M69.3756 41.0308L65.3342 37.0125L61.2926 41.0307L65.334 45.0491L69.3756 41.0308Z" fill="#60A899"/>
<path d="M65.3344 45.2232C65.2898 45.2232 65.2453 45.2062 65.2113 45.1725L61.1698 41.1543C61.1371 41.1217 61.1188 41.0779 61.1188 41.0319C61.1188 40.9858 61.1371 40.9418 61.1698 40.9094L65.2113 36.8911C65.244 36.8585 65.2881 36.8403 65.3344 36.8403C65.3808 36.8403 65.425 36.8585 65.4576 36.8911L69.4989 40.9094C69.567 40.9771 69.567 41.0866 69.4989 41.1543L65.4576 45.1725C65.4234 45.2062 65.3788 45.2232 65.3344 45.2232ZM61.5392 41.0319L65.3344 44.8052L69.1295 41.0319L65.3344 37.2583L61.5392 41.0319Z" fill="#4D4D4F"/>
<path d="M50.4342 39.726L46.3929 35.7076L42.3513 39.7258L46.3927 43.7442L50.4342 39.726Z" fill="#60A899"/>
<path d="M46.3929 43.9183C46.3466 43.9183 46.3023 43.9001 46.2698 43.8675L42.2283 39.8492C42.1955 39.8166 42.1772 39.7728 42.1772 39.7268C42.1772 39.6807 42.1955 39.6367 42.2283 39.6043L46.2698 35.5861C46.3379 35.5184 46.4479 35.5184 46.516 35.5861L50.5573 39.6043C50.6254 39.672 50.6254 39.7815 50.5573 39.8492L46.516 43.8675C46.4833 43.8999 46.4391 43.9183 46.3929 43.9183ZM42.5977 39.7268L46.3929 43.5003L50.188 39.7268L46.3929 35.9534L42.5977 39.7268Z" fill="#4D4D4F"/>
<path d="M50.4578 10.456L48.8098 8.81732L47.1616 10.4559L48.8097 12.0946L50.4578 10.456Z" fill="#F8F9FA"/>
<path d="M48.81 12.2686C48.7654 12.2686 48.7209 12.2516 48.6869 12.2178L47.0387 10.5792C47.0059 10.5467 46.9876 10.5028 46.9876 10.4568C46.9876 10.4107 47.0059 10.3667 47.0387 10.3344L48.6869 8.69557C48.7196 8.66302 48.7637 8.64484 48.81 8.64484C48.8564 8.64484 48.9006 8.66302 48.9332 8.69557L50.5812 10.3344C50.6493 10.4021 50.6493 10.5115 50.5812 10.5792L48.9332 12.2178C48.899 12.2516 48.8546 12.2686 48.81 12.2686ZM47.4081 10.4568L48.81 11.8506L50.2118 10.4568L48.81 9.06285L47.4081 10.4568Z" fill="#4D4D4F"/>
</g>
<defs>
<clipPath id="clip0_397_2466">
<rect width="93" height="80" fill="white"/>
</clipPath>
</defs>
</svg>
