<svg width="80" height="80" viewBox="0 0 80 80" fill="none" xmlns="http://www.w3.org/2000/svg">
<g clip-path="url(#clip0_397_2060)">
<path d="M79.839 67.8019H0.160828V67.9725H79.839V67.8019Z" fill="#606060"/>
<path d="M46.9893 34.975C46.9893 34.975 45.7592 32.644 44.8525 32.5792C43.9461 32.5144 45.2411 33.6152 44.8525 33.68C44.464 33.7448 42.7157 33.0326 42.4568 33.68C42.1979 34.3275 42.1979 34.9102 42.4568 35.2339C42.7157 35.5576 45.0469 35.7878 45.6296 36.5936L46.9893 34.975Z" fill="white"/>
<path d="M45.6269 36.6726L45.5904 36.6222C45.2421 36.1403 44.2461 35.8691 43.4461 35.651C42.9136 35.5059 42.5288 35.4011 42.4192 35.2643C42.1485 34.9262 42.1459 34.327 42.412 33.6619C42.6045 33.1808 43.4763 33.3736 44.1771 33.5286C44.4744 33.5942 44.7315 33.6512 44.8448 33.632C44.8624 33.6291 44.8731 33.6238 44.8765 33.6166C44.9003 33.5638 44.7875 33.3827 44.7051 33.2504C44.5616 33.02 44.4133 32.7819 44.5016 32.6358C44.5523 32.5518 44.6683 32.5174 44.8563 32.531C45.7789 32.5968 46.9816 34.8563 47.0325 34.9526L47.0477 34.9814L45.6269 36.6726ZM43.0605 33.4544C42.7893 33.4544 42.5749 33.516 42.5021 33.6979C42.2493 34.3302 42.2467 34.8928 42.4949 35.2035C42.5848 35.3158 43.0155 35.4331 43.4715 35.5571C44.26 35.7718 45.2352 36.0374 45.6312 36.516L46.9309 34.9686C46.7864 34.7024 45.6651 32.6856 44.8491 32.6272C44.7048 32.6168 44.6136 32.6371 44.5845 32.6854C44.5272 32.7806 44.6715 33.0123 44.7875 33.1987C44.9117 33.3984 45.0101 33.556 44.9648 33.6563C44.9528 33.683 44.9248 33.7168 44.8605 33.7278C44.7285 33.7496 44.4757 33.6939 44.156 33.6232C43.8096 33.5467 43.3925 33.4544 43.0605 33.4544Z" fill="#4D4D4F"/>
<path d="M59.7336 36.2344C59.7336 36.2344 54.8773 38.0115 53.4325 38.5734L47.0512 34.7606L45.4056 36.687C45.4056 36.687 52.0277 42.1051 52.9912 42.0651C53.9544 42.0248 56.8843 41.5835 57.5667 40.9011C58.2485 40.2187 59.7336 36.2344 59.7336 36.2344Z" fill="#60A899"/>
<path d="M52.9813 42.1136C51.9733 42.1136 45.6445 36.9453 45.3747 36.7243L45.3363 36.6928L47.0405 34.6973L53.4368 38.5189C54.8928 37.9539 59.6685 36.2061 59.7168 36.1883L59.8157 36.152L59.7789 36.2507C59.7181 36.4139 58.2824 40.2528 57.6005 40.9347C56.8811 41.6539 53.8555 42.0768 52.9928 42.1128C52.9893 42.1136 52.9853 42.1136 52.9813 42.1136ZM45.4747 36.6805C46.0168 37.1221 52.0464 42.0165 52.9787 42.0165C52.9821 42.0165 52.9856 42.0165 52.9891 42.0163C54.0168 41.9733 56.8811 41.5176 57.532 40.8667C58.1395 40.2592 59.4163 36.9355 59.6509 36.3163C58.9504 36.5728 54.7637 38.1077 53.4501 38.6184L53.428 38.6269L53.4077 38.6147L47.0616 34.8229L45.4747 36.6805Z" fill="#4D4D4F"/>
<path d="M55.464 54.3514H68.4707V53.0642C68.4707 53.0642 71.7288 51.5357 71.7288 38.4634H62.664C62.664 38.4634 63.3075 52.3805 58.8027 52.3805C58.8024 52.3805 55.464 52.7024 55.464 54.3514Z" fill="white"/>
<path d="M68.5192 54.4H55.4155V54.3515C55.4155 52.6776 58.6597 52.3456 58.7979 52.3322C59.3837 52.332 59.9093 52.0901 60.3648 51.6133C63.0603 48.7904 62.6203 38.5685 62.6155 38.4656L62.6131 38.4149H71.7773V38.4634C71.7773 45.224 70.8896 48.8408 70.1448 50.6843C69.4064 52.512 68.6723 53.0066 68.5192 53.0936V54.4ZM55.5136 54.3029H68.4221V53.0336L68.4501 53.0205C68.4581 53.0168 69.2656 52.6133 70.0637 50.6256C70.7995 48.7936 71.676 45.2064 71.6803 38.5122H62.7147C62.7296 38.889 62.8123 41.3005 62.6083 43.9826C62.3109 47.8917 61.5797 50.4819 60.4352 51.6808C59.9608 52.1776 59.4117 52.4296 58.8027 52.4296C58.7747 52.432 55.5795 52.7584 55.5136 54.3029Z" fill="#4D4D4F"/>
<path d="M62.0507 64.5784V57.8507L61.7691 57.5288V54.3512H62.292H63.4181V57.5288L63.1365 57.8507V64.5784C63.1365 64.5784 66.7565 64.7288 67.8829 66.6595H67.1187C67.1187 66.6595 65.4696 65.4931 63.1365 65.4931V67.6651H62.2917H62.0504V65.4931C59.7176 65.4931 58.0683 66.6595 58.0683 66.6595H57.304C58.4307 64.7288 62.0507 64.5784 62.0507 64.5784Z" fill="white"/>
<path d="M63.1853 67.7136H62.0021V65.5419C59.7379 65.5579 58.1131 66.6877 58.0968 66.6992L58.0843 66.708H57.22L57.2627 66.6349C58.3195 64.8232 61.5736 64.5595 62.0024 64.5325V57.8691L61.7208 57.5472V54.3029H63.4669V57.5472L63.1853 57.8691V64.5325C63.6141 64.5595 66.8683 64.8232 67.9251 66.6349L67.9677 66.708H67.1035L67.0909 66.6992C67.0747 66.6877 65.4496 65.5579 63.1856 65.5419V67.7136H63.1853ZM62.0992 67.6165H63.088V65.4445H63.1365C65.3499 65.4445 66.9725 66.5021 67.1336 66.6109H67.7965C66.6485 64.7941 63.1701 64.6285 63.1347 64.6269L63.088 64.625V57.8325L63.3696 57.5106V54.4H61.8176V57.5106L62.0992 57.8325V64.625L62.0525 64.6269C62.0171 64.6285 58.5387 64.7941 57.3907 66.6109H58.0536C58.2147 66.5021 59.8373 65.4445 62.0507 65.4445H62.0992V67.6165Z" fill="#4D4D4F"/>
<path d="M67.7617 67.6443C68.1619 67.4785 68.3519 67.0197 68.1861 66.6196C68.0204 66.2194 67.5616 66.0294 67.1615 66.1951C66.7613 66.3609 66.5713 66.8196 66.737 67.2198C66.9028 67.62 67.3615 67.81 67.7617 67.6443Z" fill="#4D4D4F"/>
<path d="M58.0302 67.6807C58.4518 67.5812 58.7128 67.1588 58.6133 66.7372C58.5137 66.3157 58.0913 66.0546 57.6698 66.1542C57.2482 66.2537 56.9872 66.6761 57.0867 67.0977C57.1863 67.5192 57.6087 67.7803 58.0302 67.6807Z" fill="#4D4D4F"/>
<path d="M54.3248 67.7053H47.8992C47.8992 67.7053 47.1896 67.5083 48.2539 67.0747C49.3181 66.6411 51.2893 65.6949 51.2893 65.6949C51.2893 65.6949 53.4968 65.5373 54.3248 65.6949C54.3248 65.6947 55.6256 67.7053 54.3248 67.7053Z" fill="white"/>
<path d="M54.3248 67.7539H47.8925L47.8861 67.752C47.8597 67.7445 47.6285 67.676 47.6192 67.5144C47.6104 67.3608 47.812 67.2021 48.2357 67.0293C49.2867 66.6011 51.2488 65.6603 51.2685 65.6509L51.2768 65.6469L51.2861 65.6464C51.3765 65.64 53.5096 65.4901 54.3341 65.6472L54.3547 65.6509L54.3659 65.6683C54.3995 65.72 55.1827 66.9421 54.8832 67.4923C54.7885 67.6659 54.6008 67.7539 54.3248 67.7539ZM47.9061 67.6568H54.3248C54.5624 67.6568 54.7216 67.5859 54.7976 67.4461C55.0517 66.9795 54.3899 65.8904 54.2949 65.7387C53.4947 65.5952 51.4565 65.7317 51.3019 65.7427C51.1603 65.8104 49.2907 66.7048 48.2723 67.1195C47.7621 67.3272 47.7133 67.4611 47.716 67.5088C47.7203 67.5843 47.852 67.6403 47.9061 67.6568Z" fill="#4D4D4F"/>
<path d="M54.3219 64.6699L54.3248 65.616C54.3248 65.616 54.0883 66.0101 53.024 66.0496C51.9597 66.0891 51.2896 65.6949 51.2896 65.6949L51.2557 64.6699H54.3219Z" fill="white"/>
<path d="M52.8725 66.1011C51.8957 66.1011 51.2912 65.7525 51.2645 65.7368L51.2416 65.7232L51.2053 64.6213H54.3704L54.3733 65.6293L54.3664 65.6408C54.3563 65.6579 54.104 66.0581 53.0256 66.0979C52.9739 66.1 52.9227 66.1011 52.8725 66.1011ZM51.3371 65.6656C51.4627 65.7317 52.0936 66.0349 53.0221 66.0013C53.9456 65.9669 54.2299 65.66 54.2763 65.6008L54.2736 64.7187H51.3059L51.3371 65.6656Z" fill="#4D4D4F"/>
<path d="M57.0904 49.3312C57.0904 49.3312 50.5475 50.1096 50.4843 52.1485C50.4213 54.1874 50.4859 64.6768 50.4859 64.6768H54.8888L55.5035 53.9058C55.5035 53.9058 57.3493 53.7344 58.5795 52.8925C59.8096 52.0509 62.6171 49.8632 62.6171 49.8632L57.0904 49.3312Z" fill="#4D4D4F"/>
<path d="M59.3104 67.7053H52.8848C52.8848 67.7053 52.1752 67.5083 53.2395 67.0747C54.3037 66.6411 56.2749 65.6949 56.2749 65.6949C56.2749 65.6949 58.4824 65.5373 59.3104 65.6949C59.3104 65.6947 60.6112 67.7053 59.3104 67.7053Z" fill="white"/>
<path d="M59.3104 67.7539H52.8781L52.8717 67.752C52.8453 67.7445 52.6141 67.676 52.6048 67.5144C52.596 67.3608 52.7976 67.2021 53.2213 67.0293C54.2723 66.6011 56.2344 65.6603 56.2541 65.6509L56.2624 65.6469L56.2717 65.6464C56.3621 65.64 58.4952 65.4901 59.3197 65.6472L59.3403 65.6509L59.3515 65.6683C59.3851 65.72 60.1683 66.9421 59.8688 67.4923C59.7744 67.6659 59.5864 67.7539 59.3104 67.7539ZM52.8917 67.6568H59.3104C59.548 67.6568 59.7072 67.5859 59.7832 67.4461C60.0373 66.9795 59.3755 65.8904 59.2805 65.7387C58.48 65.5952 56.4421 65.7317 56.2875 65.7427C56.1459 65.8104 54.2763 66.7048 53.2579 67.1195C52.7477 67.3272 52.6989 67.4611 52.7016 67.5088C52.7061 67.5843 52.8376 67.6403 52.8917 67.6568Z" fill="#4D4D4F"/>
<path d="M59.3075 64.6699L59.3104 65.616C59.3104 65.616 59.0739 66.0101 58.0096 66.0496C56.9453 66.0891 56.2752 65.6949 56.2752 65.6949L56.2413 64.6699H59.3075Z" fill="white"/>
<path d="M57.8581 66.1011C56.8813 66.1011 56.2768 65.7525 56.2501 65.7368L56.2272 65.7232L56.1909 64.6213H59.356L59.3589 65.6293L59.352 65.6408C59.3419 65.6579 59.0896 66.0581 58.0112 66.0979C57.9595 66.1 57.9083 66.1011 57.8581 66.1011ZM56.3227 65.6656C56.4483 65.7317 57.0795 66.0349 58.0077 66.0013C58.9312 65.9669 59.2155 65.66 59.2619 65.6008L59.2592 64.7187H56.2915L56.3227 65.6656Z" fill="#4D4D4F"/>
<path d="M66.8675 50.3024C66.8675 50.3024 66.9819 53.3592 64.5936 53.5466C62.2053 53.7341 60.3277 53.9282 60.3277 53.9282L59.8744 64.6765H55.4715C55.4715 64.6765 54.9408 52.7216 55.4973 51.7709C56.0541 50.8202 59.8883 49.7197 59.8883 49.7197L66.8675 50.3024ZM58.5947 34.4197C58.5947 34.4197 58.6595 32.1536 58.2061 31.1176C57.7528 30.0816 58.9184 29.3693 60.3429 29.0456C61.7675 28.7218 63.4509 29.4989 63.8395 30.9232C64.228 32.3477 64.4312 32.964 65.4627 33.5624C66.4941 34.1608 68.1128 35.9088 66.6237 38.1752C66.6237 38.1752 67.7352 35.4045 65.496 34.0056C65.496 34.0056 64.5517 33.2544 64.2928 32.7362C64.2928 32.7362 64.6165 33.7074 65.7821 34.4845C66.6237 35.2616 67.0123 37.204 65.9117 38.1752C64.8109 39.1464 59.6027 38.4058 58.1419 36.945C57.0408 35.8442 57.5587 35.0026 58.5947 34.4197Z" fill="#4D4D4F"/>
<path d="M62.9443 35.844C62.9443 35.844 64.8707 35.7637 65.9544 36.7672C65.9544 36.7672 65.8384 44.3821 66.0568 45.9928C66.2755 47.6035 66.9576 49.4499 66.7971 50.2525L57.0253 49.4139C57.0253 49.4139 58.2083 44.5133 58.128 44.0317C58.0477 43.5501 56.8824 42.7267 57.0437 41.2923C57.2051 39.8579 57.6064 36.6872 59.8539 36.2056C60.9779 35.9645 62.9443 35.844 62.9443 35.844Z" fill="#60A899"/>
<path d="M66.8365 50.3046L66.7933 50.3008L56.9651 49.4574L56.9784 49.4024C57.3867 47.7107 58.1427 44.4128 58.0805 44.0395C58.0565 43.896 57.9173 43.7038 57.756 43.4814C57.3883 42.9739 56.8845 42.279 56.996 41.2867C57.1384 40.0203 57.5163 36.6568 59.8443 36.1579C60.9587 35.9192 62.9221 35.7968 62.9419 35.7958H62.9429C62.9624 35.7947 64.9021 35.7262 65.988 36.7318L66.004 36.7464L66.0037 36.768C66.0027 36.844 65.8901 44.3976 66.1059 45.9864C66.1944 46.6395 66.3571 47.3206 66.5141 47.979C66.7443 48.943 66.9429 49.7755 66.8456 50.2619L66.8365 50.3046ZM57.0859 49.3702L66.7571 50.2003C66.8304 49.7259 66.6304 48.8875 66.4189 48.0016C66.2613 47.3408 66.0981 46.6574 66.0088 45.9995C65.7979 44.4462 65.8989 37.2419 65.9056 36.7883C64.8517 35.8304 62.984 35.891 62.9467 35.8926C62.9048 35.8952 60.9651 36.0168 59.864 36.2528C57.6045 36.7371 57.232 40.0502 57.092 41.2974C56.9848 42.2523 57.4757 42.9296 57.8341 43.4243C58.0096 43.6664 58.1483 43.8576 58.176 44.0235C58.2533 44.4872 57.2224 48.8024 57.0859 49.3702Z" fill="#4D4D4F"/>
<path d="M59.9341 36.2253V34.7C59.9341 34.7 62.0411 32.8989 62.6696 33.4893C62.6696 33.4893 62.6691 34.9787 62.9443 35.844C62.9443 35.844 62.4627 37.0883 61.2587 37.0883C60.0547 37.0883 59.9341 36.2253 59.9341 36.2253Z" fill="white"/>
<path d="M61.2587 37.1368C60.0267 37.1368 59.8875 36.2411 59.8861 36.232L59.8856 36.2254V34.6776L59.9027 34.663C59.9901 34.5883 62.0501 32.8408 62.7029 33.4539L62.7181 33.4683V33.4894C62.7181 33.5043 62.7208 34.9814 62.9907 35.8294L62.9957 35.8456L62.9896 35.8616C62.9848 35.8744 62.4819 37.1368 61.2587 37.1368ZM59.9829 36.2216C59.9931 36.2851 60.1381 37.0398 61.2589 37.0398C62.3435 37.0398 62.8328 35.9824 62.8931 35.8419C62.6419 35.0347 62.6229 33.6984 62.6216 33.5112C62.0421 33.0254 60.1816 34.5566 59.9832 34.7224V36.2216H59.9829Z" fill="#4D4D4F"/>
<path d="M58.8669 31.8714C58.8669 31.8714 59.8251 31.7002 60.9259 30.6642C60.9259 30.6642 61.312 31.7701 62.3491 32.1882C62.3491 32.1882 63.2568 31.7 63.3861 32.2181C63.5157 32.736 62.5781 33.7136 62.0757 34.0666C61.5733 34.4197 60.7963 34.9376 59.7603 34.7434C58.7243 34.5493 58.6211 32.949 58.8669 31.8714Z" fill="white"/>
<path d="M60.2053 34.8339C60.0597 34.8339 59.9083 34.8208 59.7515 34.7912C59.4597 34.7365 59.2229 34.5728 59.0469 34.3048C58.6445 33.6915 58.6429 32.6352 58.8197 31.8605L58.8269 31.8293L58.8587 31.8237C58.868 31.8221 59.8168 31.6416 60.8928 30.6291L60.9472 30.5779L60.972 30.6483C60.9757 30.6592 61.3587 31.7237 62.3469 32.1349C62.4555 32.0795 62.9533 31.8411 63.2421 31.9688C63.3408 32.0123 63.4051 32.0923 63.4336 32.2064C63.5685 32.7456 62.6397 33.7299 62.104 34.1064C61.7253 34.3723 61.0683 34.8339 60.2053 34.8339ZM58.9075 31.9128C58.7421 32.6643 58.7467 33.6701 59.128 34.2517C59.2888 34.4968 59.5045 34.6464 59.7691 34.696C60.8165 34.8923 61.6173 34.3296 62.0477 34.0272C62.5696 33.6605 63.4563 32.6997 63.3389 32.2301C63.3179 32.1453 63.2731 32.0891 63.2024 32.0579C62.9272 31.9363 62.3773 32.2283 62.372 32.2312L62.352 32.2421L62.3309 32.2336C61.4355 31.8723 61.0123 30.9987 60.9069 30.7483C59.9285 31.6491 59.0827 31.8739 58.9075 31.9128Z" fill="#4D4D4F"/>
<path d="M56.9584 44.6755C56.9584 44.6755 54.3707 44.1045 54.3061 45.3347C54.2413 46.5648 56.4429 46.3707 56.4429 46.3707L56.9584 44.6755Z" fill="white"/>
<path d="M56.1155 46.4312C55.6736 46.4312 54.904 46.3715 54.5067 45.9877C54.3275 45.8149 54.2437 45.5941 54.2576 45.332C54.2699 45.1005 54.3675 44.9136 54.5483 44.776C55.2355 44.2531 56.8984 44.6123 56.9688 44.6277L57.02 44.6389L56.4795 46.4157L56.4469 46.4187C56.4304 46.4205 56.3021 46.4312 56.1155 46.4312ZM55.7264 44.5923C55.3043 44.5923 54.8715 44.6523 54.6069 44.8536C54.4501 44.9731 54.3651 45.1357 54.3544 45.3373C54.3421 45.5701 54.416 45.7656 54.5739 45.9179C55.0603 46.3875 56.1984 46.3379 56.4059 46.3245L56.8963 44.7123C56.7384 44.6811 56.2403 44.5923 55.7264 44.5923Z" fill="#4D4D4F"/>
<path d="M66.9968 37.6296C66.9968 37.6296 68.2917 38.8597 68.0328 41.4498C67.7738 44.0397 67.709 46.4354 65.0544 46.4354C62.3997 46.4354 56.3781 46.4354 56.3781 46.4354L56.9645 44.508C56.9645 44.508 63.4024 44.5872 64.1312 42.7597C64.8602 40.932 64.5816 40.044 64.397 39.1282C64.2125 38.2122 64.5645 35.1322 66.9968 37.6296Z" fill="#60A899"/>
<path d="M65.0544 46.484H56.3125L56.9285 44.4589L56.9651 44.4595C57.0291 44.4611 63.3779 44.5179 64.0861 42.7416C64.7539 41.0675 64.5704 40.1939 64.3933 39.3488C64.3787 39.2784 64.3637 39.2083 64.3496 39.1379C64.2227 38.5075 64.3531 37.0813 65.0448 36.7163C65.54 36.4549 66.2085 36.7507 67.0312 37.5955C67.0712 37.6347 68.3368 38.8989 68.0811 41.4547C68.0659 41.6064 68.0515 41.7576 68.0371 41.9075C67.9211 43.1141 67.8117 44.2539 67.416 45.0933C66.9685 46.0421 66.2181 46.484 65.0544 46.484ZM56.4435 46.3867H65.0541C67.5091 46.3867 67.7088 44.3067 67.94 41.8979C67.9544 41.7477 67.9688 41.5965 67.9843 41.4448C68.2376 38.9112 66.976 37.6768 66.9632 37.6645L66.9619 37.6632C66.1725 36.8528 65.5429 36.5629 65.0899 36.8019C64.4395 37.1451 64.3224 38.512 64.4445 39.1184C64.4587 39.1885 64.4733 39.2584 64.488 39.3285C64.6683 40.1877 64.8547 41.0763 64.176 42.7776C63.4637 44.5629 57.5755 44.5603 57 44.5568L56.4435 46.3867Z" fill="#4D4D4F"/>
<path d="M70.4752 67.8061H69.3566L64.1139 46.8808L66.623 45.8624L70.4752 67.8061Z" fill="#4D4D4F"/>
<path d="M43.5238 67.8122H44.6424L49.8854 46.8869L47.3763 45.8688L43.5238 67.8122Z" fill="#4D4D4F"/>
<path d="M22.0272 67.8061H23.1459L28.3888 46.8808L25.8798 45.8624L22.0272 67.8061Z" fill="white"/>
<path d="M23.1838 67.8547H21.9694L21.9792 67.7976L25.8422 45.7949L28.4459 46.8515L28.4358 46.8925L23.1838 67.8547ZM22.0851 67.7576H23.108L28.3315 46.9099L25.9174 45.9301L22.0851 67.7576Z" fill="#4D4D4F"/>
<path d="M48.9787 67.8122H47.86L42.6174 46.8869L45.1264 45.8688L48.9787 67.8122Z" fill="white"/>
<path d="M49.0366 67.8608H47.8222L42.56 46.8576L45.1638 45.8011L45.1742 45.8603L49.0366 67.8608ZM47.8979 67.7637H48.9208L45.0888 45.9363L42.6747 46.916L47.8979 67.7637Z" fill="#4D4D4F"/>
<path d="M62.6286 44.6539V45.4424H45.8054L43.9654 37.425H54.2827L56.3856 44.588L62.6286 44.6539Z" fill="white"/>
<path d="M62.6771 45.4909H45.7667L43.9043 37.3765H54.319L56.4219 44.54L62.6771 44.6059V45.4909ZM45.844 45.3939H62.58V44.7019L56.3491 44.6363L54.2462 37.4736H44.0262L45.844 45.3939Z" fill="#4D4D4F"/>
<path d="M50.365 41.6779C50.4977 41.3013 50.3 40.8885 49.9235 40.7558C49.5469 40.623 49.1341 40.8207 49.0014 41.1973C48.8686 41.5738 49.0663 41.9867 49.4429 42.1194C49.8194 42.2521 50.2323 42.0544 50.365 41.6779Z" fill="#4D4D4F"/>
<path d="M68.7571 45.4355H22.8083V46.8832H68.7571V45.4355Z" fill="white"/>
<path d="M68.8057 46.9317H22.7595V45.3869H68.8054V46.9317H68.8057ZM22.8569 46.8346H68.7086V45.484H22.8569V46.8346Z" fill="#4D4D4F"/>
<path d="M37.0304 22.8347L47.4189 23.1704L46.5341 31.5531L36.0298 31.1819L37.0304 22.8347Z" fill="white"/>
<path d="M46.5776 31.6032L46.5322 31.6016L35.9752 31.2285L36.9872 22.7845L37.0317 22.7858L47.4725 23.1232L46.5776 31.6032ZM36.0842 31.1351L46.4906 31.5029L47.365 23.217L37.073 22.8845L36.0842 31.1351Z" fill="#4D4D4F"/>
<path d="M38.5567 24.0046L38.4941 25.1026L39.592 25.1652L39.6546 24.0672L38.5567 24.0046Z" fill="#60A899"/>
<path d="M39.6381 25.2179L38.4432 25.1499L38.5114 23.9552L39.7064 24.0232L39.6381 25.2179ZM38.5456 25.0581L39.5464 25.1152L39.6034 24.1144L38.6026 24.0573L38.5456 25.0581Z" fill="#4D4D4F"/>
<path d="M38.4227 26.3572L38.3601 27.4552L39.4581 27.5178L39.5207 26.4198L38.4227 26.3572Z" fill="#60A899"/>
<path d="M39.504 27.5703L38.3091 27.5023L38.3771 26.3077L39.572 26.3757L39.504 27.5703ZM38.4115 27.4106L39.4123 27.4677L39.4693 26.4669L38.4685 26.4098L38.4115 27.4106Z" fill="#4D4D4F"/>
<path d="M38.2885 28.7096L38.2259 29.8076L39.3238 29.8701L39.3864 28.7722L38.2885 28.7096Z" fill="#60A899"/>
<path d="M39.3699 29.9229L38.1749 29.8549L38.2429 28.66L39.4379 28.728L39.3699 29.9229ZM38.2773 29.7634L39.2781 29.8205L39.3352 28.8197L38.3344 28.7626L38.2773 29.7634Z" fill="#4D4D4F"/>
<path d="M40.4777 24.1093L40.4593 24.4325L42.9686 24.5755L42.987 24.2523L40.4777 24.1093Z" fill="white"/>
<path d="M40.4325 24.8936L40.4141 25.2168L44.7271 25.4622L44.7455 25.139L40.4325 24.8936Z" fill="white"/>
<path d="M40.3446 26.4624L40.3262 26.7856L42.8354 26.9287L42.8539 26.6055L40.3446 26.4624Z" fill="white"/>
<path d="M40.2994 27.2461L40.281 27.5693L44.594 27.8152L44.6124 27.4919L40.2994 27.2461Z" fill="white"/>
<path d="M40.2106 28.815L40.1921 29.1382L42.7014 29.2812L42.7198 28.958L40.2106 28.815Z" fill="white"/>
<path d="M40.166 29.5992L40.1476 29.9224L44.4606 30.1682L44.479 29.845L40.166 29.5992Z" fill="white"/>
<path d="M43.0392 24.2082L40.4328 24.0597L40.4088 24.48L43.0152 24.6285L43.0392 24.2082ZM42.9237 24.5258L40.5114 24.3882L40.5242 24.1618L42.9365 24.2994L42.9237 24.5258ZM40.4365 24.8466L40.388 24.844L40.364 25.2642L44.7256 25.513L44.7741 25.5157L44.7981 25.0954L40.4365 24.8466ZM44.6826 25.413L40.4666 25.1725L40.4794 24.9461L44.6954 25.1866L44.6826 25.413ZM42.905 26.5608L40.2986 26.4122L40.2746 26.8325L42.881 26.981L42.905 26.5608ZM42.7896 26.8784L40.3773 26.7408L40.3901 26.5144L42.8024 26.652L42.7896 26.8784ZM40.2538 27.1962L40.2298 27.6165L44.5912 27.8653L44.6397 27.868L44.6637 27.4477L40.3024 27.1989L40.2538 27.1962ZM40.3453 27.2986L44.5613 27.5392L44.5485 27.7656L40.3325 27.525L40.3453 27.2986ZM42.7709 28.9133L40.1645 28.7648L40.1405 29.185L42.7469 29.3336L42.7709 28.9133ZM42.6554 29.2309L40.2432 29.0933L40.256 28.8669L42.6682 29.0045L42.6554 29.2309ZM40.12 29.5488L40.096 29.969L44.4573 30.2176L44.5058 30.2202L44.5298 29.8L40.1685 29.5514L40.12 29.5488ZM40.2112 29.6514L44.4272 29.8917L44.4144 30.1181L40.1984 29.8778L40.2112 29.6514ZM38.5376 26.6058C38.5141 26.6058 38.4904 26.6045 38.4664 26.6018C38.3229 26.5858 38.2136 26.5082 38.1504 26.3773C37.9269 25.9154 38.3237 24.8522 38.5989 24.4117C38.728 24.2053 38.8765 24.0949 39.041 24.0837C39.2704 24.0688 39.4301 24.2568 39.4368 24.2648L39.288 24.3896C39.2869 24.3882 39.1826 24.2674 39.0533 24.2776C38.9549 24.2848 38.8576 24.3645 38.7637 24.5146C38.4757 24.9754 38.1576 25.9466 38.3253 26.2928C38.3594 26.3634 38.4112 26.4002 38.488 26.4088C39.0064 26.4677 39.4512 25.5762 39.817 24.6981C40.0722 24.0853 40.2109 22.7672 39.9925 22.4394C39.9586 22.3885 39.9288 22.3818 39.9066 22.3818C39.1701 22.3818 38.9768 22.7752 38.969 22.792L38.7922 22.7117C38.8018 22.6904 39.037 22.1874 39.9069 22.1874C39.976 22.1874 40.0749 22.2125 40.1544 22.3314C40.436 22.7538 40.2552 24.1517 39.9965 24.7725C39.5984 25.728 39.1464 26.6056 38.5376 26.6058Z" fill="#4D4D4F"/>
<path d="M40.7717 31.3295L39.1459 31.2647C39.4624 30.9117 39.4768 30.1285 39.2179 30.0637C38.9589 29.9989 38.8941 30.7759 38.4328 31.3293C37.9715 31.8826 37.2104 32.0709 37.2104 32.0709C37.2104 32.0709 37.2104 32.0709 33.5045 32.5357C29.7984 33.0005 29.5053 31.6823 29.5053 31.6823L27.5629 34.7903C27.5629 34.7903 29.0107 36.1607 31.6539 35.6698C34.2971 35.1789 40.3187 33.3722 40.7717 31.3295Z" fill="white"/>
<path d="M30.5434 35.8237C28.6101 35.8237 27.5424 34.8376 27.5298 34.8258L27.501 34.7986L29.5274 31.5565L29.553 31.6722C29.556 31.6848 29.8936 32.9402 33.4986 32.488L37.2048 32.0232C37.2066 32.0224 37.9506 31.8328 38.3957 31.2986C38.6096 31.0421 38.737 30.7346 38.8394 30.4874C38.9632 30.1888 39.0528 29.973 39.2296 30.0173C39.3122 30.0381 39.3754 30.1122 39.4122 30.232C39.492 30.492 39.4384 30.9373 39.2426 31.2205L40.8317 31.2837L40.8192 31.3405C40.3557 33.4293 34.337 35.2213 31.6626 35.7181C31.2626 35.792 30.889 35.8237 30.5434 35.8237ZM27.6261 34.7813C27.845 34.9669 29.2618 36.065 31.645 35.6224C34.5709 35.0789 40.1848 33.2834 40.7104 31.3757L39.041 31.3093L39.1098 31.2325C39.3264 30.9912 39.3992 30.52 39.3194 30.26C39.3045 30.2112 39.2698 30.1269 39.2061 30.1109C39.1109 30.088 39.0304 30.28 38.9293 30.5242C38.8242 30.7776 38.6936 31.0928 38.4704 31.3605C38.0042 31.9194 37.2541 32.1104 37.2224 32.1181L33.5106 32.584C30.3557 32.9797 29.6445 32.0968 29.4952 31.7906L27.6261 34.7813Z" fill="#4D4D4F"/>
<path d="M25.5792 27.3989L29.5056 31.6824L27.5632 34.7904C27.5632 34.7904 25.6208 33.6248 24.9733 32.2653C24.3259 30.9059 25.5792 27.3989 25.5792 27.3989Z" fill="#4D4D4F"/>
<path d="M12.7685 67.7722H19.3104C19.3104 67.7722 20.0328 67.5714 18.949 67.1301C17.8653 66.6885 15.8586 65.7253 15.8586 65.7253C15.8586 65.7253 13.6112 65.5647 12.7682 65.7253C12.7685 65.7253 11.4442 67.7722 12.7685 67.7722Z" fill="white"/>
<path d="M19.3173 67.8207H12.7685C12.4877 67.8207 12.2968 67.7314 12.201 67.5551C11.8965 66.9954 12.6936 65.7517 12.7277 65.6989L12.7389 65.6815L12.7594 65.6778C13.5989 65.5178 15.7704 65.6703 15.8624 65.677L15.8717 65.6775L15.88 65.6815C15.9 65.6911 17.8978 66.6493 18.9677 67.085C19.3986 67.2605 19.604 67.4218 19.5946 67.5778C19.585 67.7415 19.3501 67.8114 19.3234 67.8189L19.3173 67.8207ZM12.7984 65.7693C12.7026 65.9224 12.0274 67.0327 12.2864 67.5087C12.364 67.6514 12.5261 67.7237 12.7685 67.7237H19.3034C19.3586 67.7069 19.4933 67.6498 19.4976 67.5722C19.5002 67.5234 19.4506 67.3869 18.9309 67.1749C17.8938 66.7525 15.9893 65.8415 15.8464 65.773C15.6901 65.7623 13.613 65.6232 12.7984 65.7693Z" fill="#4D4D4F"/>
<path d="M12.9723 64.6818L12.7688 65.645C12.7688 65.645 13.0096 66.0464 14.0933 66.0866C15.1771 66.1266 15.8592 65.7253 15.8592 65.7253L16.0944 64.6818H12.9723Z" fill="white"/>
<path d="M14.2472 66.1381C14.1962 66.1381 14.1442 66.137 14.0914 66.1351C12.9941 66.0946 12.7376 65.6874 12.7272 65.6701L12.7173 65.6538L12.933 64.6335H16.1549L15.9018 65.7567L15.8837 65.7674C15.8568 65.7831 15.2413 66.1381 14.2472 66.1381ZM12.8205 65.6338C12.8762 65.7023 13.1728 66.0039 14.0946 66.0381C15.0565 66.0727 15.7024 65.7543 15.8162 65.6933L16.0333 64.7303H13.0114L12.8205 65.6338Z" fill="#4D4D4F"/>
<path d="M20.916 67.7722H27.4578C27.4578 67.7722 28.1802 67.5714 27.0965 67.1301C26.0128 66.6885 24.0061 65.7253 24.0061 65.7253C24.0061 65.7253 21.7586 65.5647 20.9157 65.7253C20.916 65.7253 19.5914 67.7722 20.916 67.7722Z" fill="white"/>
<path d="M27.4645 67.8207H20.916C20.6352 67.8207 20.4442 67.7314 20.3485 67.5551C20.044 66.9954 20.841 65.7517 20.8752 65.6989L20.8864 65.6815L20.9069 65.6778C21.7464 65.5178 23.9178 65.6703 24.0098 65.677L24.0192 65.6775L24.0274 65.6815C24.0474 65.6911 26.0453 66.6493 27.1152 67.085C27.5461 67.2605 27.7512 67.4218 27.7421 67.5778C27.7325 67.7415 27.4976 67.8114 27.4709 67.8189L27.4645 67.8207ZM20.9456 65.7693C20.8498 65.9224 20.1746 67.0327 20.4336 67.5087C20.5112 67.6514 20.6733 67.7237 20.9157 67.7237H27.4506C27.5058 67.7069 27.6405 67.6498 27.6448 67.5722C27.6474 67.5234 27.5978 67.3869 27.0781 67.1749C26.041 66.7525 24.1365 65.8415 23.9936 65.773C23.8376 65.7623 21.7605 65.6232 20.9456 65.7693Z" fill="#4D4D4F"/>
<path d="M20.9189 64.6818L20.916 65.645C20.916 65.645 21.1568 66.0464 22.2405 66.0866C23.3242 66.1266 24.0064 65.7253 24.0064 65.7253L24.0408 64.6818H20.9189Z" fill="white"/>
<path d="M22.3944 66.1381C22.3434 66.1381 22.2914 66.137 22.2386 66.1351C21.1413 66.0946 20.8848 65.6874 20.8744 65.6701L20.8674 65.6586L20.8704 64.6335H24.0909L24.0541 65.7538L24.0312 65.7674C24.004 65.7831 23.3885 66.1381 22.3944 66.1381ZM20.9645 65.6295C21.0106 65.6887 21.2994 66.0031 22.2421 66.0381C23.1904 66.0719 23.8317 65.7631 23.9586 65.6959L23.9904 64.7303H20.9672L20.9645 65.6295Z" fill="#4D4D4F"/>
<path d="M24.8416 39.1957L25.652 50.6749L24.8493 64.6818H20.2336V39.6063L24.8416 39.1957Z" fill="#60A899"/>
<path d="M24.8952 64.7304H20.1851V39.5618L24.8864 39.1426L25.7003 50.6712L24.8952 64.7304ZM20.2824 64.6333H24.8035L25.6035 50.672L24.7965 39.2482L20.2821 39.6506V64.6333H20.2824Z" fill="#4D4D4F"/>
<path d="M14.5776 40.1194C14.5776 40.1194 12.5277 63.3173 12.4474 64.6818H16.5813L22.3144 39.4178L14.5776 40.1194Z" fill="#60A899"/>
<path d="M16.6203 64.7304H12.396L12.3989 64.6789C12.4784 63.3293 14.5085 40.3469 14.5291 40.1149L14.5325 40.0744L22.3763 39.3632L22.3616 39.4282L16.6203 64.7304ZM12.4992 64.6333H16.5427L22.2523 39.4722L14.6224 40.1642C14.5264 41.2493 12.6168 62.876 12.4992 64.6333Z" fill="#4D4D4F"/>
<path d="M20.6704 25.0312C20.6704 25.0312 15.4904 25.096 14.8429 31.3765C14.1955 37.6571 14.584 40.1176 14.584 40.1176L24.9437 39.4053C24.9437 39.4053 24.62 33.9664 25.2675 31.8944C25.9149 29.8224 26.436 28.4275 25.8195 27.7328C25.2029 27.0384 24.6848 26.0024 20.6704 25.0312Z" fill="#4D4D4F"/>
<path d="M21.3941 23.1544C21.3941 23.1544 21.1141 24.2024 20.6434 25.0005L22.2562 26.7693L23.8885 26.1136L24.1322 25.0482C24.132 25.048 22.1533 22.7101 21.3941 23.1544Z" fill="white"/>
<path d="M22.2429 26.8266L20.5834 25.0064L20.6016 24.9754C21.0637 24.1922 21.3445 23.152 21.3472 23.1416L21.3522 23.1224L21.3696 23.1122C22.1552 22.6528 24.0874 24.9197 24.169 25.0165L24.1848 25.0349L23.9298 26.1488L22.2429 26.8266ZM20.7032 24.9941L22.269 26.7117L23.8464 26.0778L24.0789 25.061C23.893 24.8456 22.1282 22.8304 21.4352 23.1872C21.3941 23.3349 21.1258 24.2645 20.7032 24.9941Z" fill="#4D4D4F"/>
<path d="M25.5421 20.9541C25.5421 20.9541 25.7792 25.496 23.7056 25.0216C21.632 24.5472 21.2043 22.6376 21.2043 22.6376C21.2043 22.6376 20.1597 22.2544 20.2907 21.5021C20.3712 21.1501 21.0152 21.2149 21.2776 21.6869C21.2776 21.6869 20.6853 20.3162 21.9608 20.32C23.2368 20.3237 25.5421 20.9541 25.5421 20.9541Z" fill="white"/>
<path d="M23.9973 25.1048C23.9003 25.1048 23.7995 25.0928 23.6949 25.0691C21.7469 24.6232 21.2253 22.9053 21.1637 22.6741C21.0005 22.6091 20.1165 22.2211 20.2432 21.4941C20.2757 21.3517 20.3864 21.2584 20.5477 21.2355C20.7285 21.2099 20.9629 21.2763 21.1467 21.4437C21.0851 21.2027 21.0403 20.8453 21.2115 20.5859C21.3491 20.3773 21.5995 20.2717 21.9563 20.2717C21.9581 20.2717 21.9597 20.2717 21.9613 20.2717C23.2285 20.2755 25.5317 20.9011 25.5549 20.9075L25.5888 20.9168L25.5907 20.9517C25.5971 21.0744 25.7355 23.9696 24.6843 24.8533C24.4851 25.0208 24.2547 25.1048 23.9973 25.1048ZM20.6243 21.3275C20.6024 21.3275 20.5813 21.3288 20.5613 21.3317C20.4912 21.3416 20.3691 21.3787 20.3381 21.5133C20.216 22.2152 21.2112 22.5888 21.2211 22.5923L21.2459 22.6013L21.2517 22.6272C21.256 22.6459 21.6981 24.5125 23.7165 24.9744C24.0672 25.0549 24.3717 24.9888 24.6219 24.7789C25.5763 23.9768 25.508 21.3285 25.4952 20.992C25.204 20.9144 23.1315 20.3723 21.9611 20.3688C21.9595 20.3688 21.9579 20.3688 21.9563 20.3688C21.6344 20.3688 21.4112 20.4597 21.2928 20.6392C21.0456 21.0139 21.32 21.6613 21.3227 21.668L21.2357 21.7109C21.0917 21.4525 20.8275 21.3275 20.6243 21.3275Z" fill="#4D4D4F"/>
<path d="M22.3802 20.8277C22.3802 20.8277 23.6389 21.445 24.9232 21.4096C26.2077 21.3741 26.1306 20.4506 25.7026 19.9821C25.2746 19.5136 24.3682 18.9768 22.9304 19.1418C21.4928 19.3069 20.528 19.745 20.6272 21.2909C20.6272 21.2909 21.0754 21.3112 21.2776 21.6869C21.2776 21.6869 21.4709 22.1016 21.605 21.5149C21.7397 20.9282 21.9981 20.6989 22.3802 20.8277Z" fill="#4D4D4F"/>
<path d="M23.8706 26.124L22.256 26.769L23.2818 28.4037L24.5074 26.4744C24.3056 26.3437 24.0925 26.2242 23.8706 26.124Z" fill="#60A899"/>
<path d="M23.2816 28.4946L22.184 26.7456L23.8717 26.0712L23.8906 26.0797C24.1032 26.1757 24.3194 26.2946 24.5341 26.4336L24.5746 26.4597L23.2816 28.4946ZM22.328 26.7928L23.2821 28.313L24.4405 26.4896C24.2498 26.3682 24.0578 26.2634 23.8693 26.177L22.328 26.7928Z" fill="#4D4D4F"/>
<path d="M19.7842 25.1832L20.7389 27.8218L22.256 26.769L20.7042 25.0773C20.6442 25.0568 20.5882 25.0378 20.5362 25.02C20.3968 25.0472 20.1296 25.1013 19.7842 25.1832Z" fill="#60A899"/>
<path d="M20.7146 27.8979L19.7202 25.1485L19.7733 25.136C20.1229 25.0531 20.3957 24.9981 20.5272 24.9728L20.54 24.9704L20.732 25.0357L20.7402 25.0448L22.3296 26.7773L20.7146 27.8979ZM19.8485 25.2179L20.7629 27.7461L22.1824 26.7611L20.6768 25.1195L20.5325 25.0704C20.4048 25.0952 20.1602 25.1448 19.8485 25.2179ZM17.5917 26.1789C17.5917 26.1789 15.196 26.956 13.7714 29.8696L17.0088 31.2293C17.0088 31.2293 18.4333 28.5747 19.016 28.0565C19.5989 27.5387 18.6925 25.9848 17.5917 26.1789Z" fill="#4D4D4F"/>
<path d="M13.7717 29.8696C13.7717 29.8696 12.7357 31.553 12.6061 32.7832C12.4765 34.0133 13.1363 36.0541 13.6483 37.1381C14.16 38.2221 15.6125 42.1144 16.764 42.564C17.9155 43.0136 18.4981 42.4954 18.1744 41.9128C17.8507 41.3301 17.1384 40.6178 17.9155 40.6826C18.6925 40.7474 19.1637 40.4304 18.2483 40.0709C17.3328 39.7114 17.0371 39.412 16.764 38.5904C16.4909 37.7688 15.6493 33.884 15.6493 33.884C15.6493 33.884 16.2968 32.4594 17.0091 31.2293L13.7717 29.8696Z" fill="white"/>
<path d="M17.5499 42.7824C17.3304 42.7824 17.0627 42.7328 16.7464 42.6093C15.7861 42.2344 14.6493 39.5794 13.9701 37.993C13.8237 37.6512 13.6973 37.356 13.6043 37.1589C13.1277 36.1496 12.4221 34.0674 12.5579 32.7784C12.6869 31.5514 13.7197 29.8613 13.7304 29.8442L13.7523 29.8088L17.0789 31.2061L17.0512 31.2538C16.3867 32.4016 15.7709 33.7357 15.7003 33.8896C15.7592 34.161 16.5499 37.792 16.8101 38.5752C17.08 39.3874 17.3659 39.672 18.2661 40.0256C18.7483 40.2149 18.82 40.3816 18.7952 40.4882C18.7528 40.6709 18.3893 40.7706 17.9115 40.7309C17.7539 40.7181 17.6552 40.7376 17.6256 40.7882C17.5616 40.8978 17.764 41.1962 17.9427 41.4597C18.0389 41.6018 18.1387 41.7488 18.2168 41.8893C18.3528 42.1344 18.3432 42.3752 18.1904 42.5504C18.0755 42.6821 17.8616 42.7824 17.5499 42.7824ZM13.7917 29.9306C13.6432 30.18 12.7712 31.6813 12.6547 32.7882C12.5211 34.0578 13.2203 36.1173 13.6923 37.1173C13.7861 37.316 13.9128 37.612 14.0595 37.9546C14.6885 39.4237 15.8592 42.1586 16.7819 42.5186C17.5008 42.7992 17.9432 42.6858 18.1176 42.4861C18.2419 42.3437 18.2472 42.1434 18.1323 41.9362C18.0563 41.7994 17.9579 41.6541 17.8627 41.5138C17.6397 41.185 17.4472 40.9013 17.5421 40.7389C17.5933 40.6514 17.7171 40.617 17.92 40.6338C18.3693 40.6712 18.6755 40.576 18.7008 40.4658C18.7179 40.3925 18.6035 40.2618 18.2309 40.1157C17.3075 39.753 16.9965 39.4424 16.7184 38.6053C16.4477 37.7906 15.6107 33.9328 15.6024 33.8938L15.5989 33.8781L15.6056 33.8634C15.612 33.8493 16.2453 32.4597 16.94 31.2522L13.7917 29.9306Z" fill="#4D4D4F"/>
<path d="M65.8488 27.3675V25.6973H64.5125V21.0208H74.1994V25.6973H67.3517L65.8488 27.3675Z" fill="white"/>
<path d="M65.8 27.4939V25.7459H64.464V20.9723H74.248V25.7459H67.3733L65.8 27.4939ZM64.5611 25.6488H65.8971V27.2411L67.3301 25.6488H74.1507V21.0694H64.5611V25.6488Z" fill="#4D4D4F"/>
<path d="M70.525 21.9635H65.6816V22.4168H70.525V21.9635Z" fill="white"/>
<path d="M73.0301 23.1326H65.6816V23.5859H73.0301V23.1326Z" fill="white"/>
<path d="M73.0301 24.3016H65.6816V24.755H73.0301V24.3016Z" fill="white"/>
<path d="M70.5736 21.915H65.6331V22.4654H70.5736V21.915ZM70.4765 22.368H65.7301V22.012H70.4765V22.368ZM65.6331 23.084V23.6344H73.0789V23.084H65.6331ZM72.9819 23.5371H65.7304V23.1811H72.9819V23.5371ZM65.6331 24.8035H73.0789V24.2531H65.6331V24.8035ZM65.7301 24.3502H72.9816V24.7062H65.7301V24.3502Z" fill="#4D4D4F"/>
<path d="M15.4104 20.3275L13.6453 17.8229H5.80054V12.1877H17.1755V17.8229H15.4104V20.3275Z" fill="white"/>
<path d="M15.4589 20.4808L13.62 17.8715H5.75201V12.1392H17.2243V17.8718H15.4592V20.4808H15.4589ZM5.84908 17.7744H13.6704L15.3619 20.1744V17.7744H17.1269V12.2363H5.84908V17.7744Z" fill="#4D4D4F"/>
<path d="M9.09937 15.3013C9.26358 15.0356 9.18138 14.6871 8.91578 14.523C8.65017 14.3589 8.30174 14.4412 8.13753 14.707C7.97333 14.9727 8.05553 15.3212 8.32113 15.4853C8.58673 15.6494 8.93517 15.5671 9.09937 15.3013Z" fill="white"/>
<path d="M11.6708 15.5551C11.9747 15.4834 12.1628 15.1787 12.091 14.8747C12.0193 14.5707 11.7147 14.3824 11.4109 14.4542C11.107 14.5259 10.9189 14.8306 10.9906 15.1346C11.0624 15.4386 11.367 15.6269 11.6708 15.5551Z" fill="white"/>
<path d="M14.4624 14.4398C14.1501 14.4398 13.8968 14.6928 13.8968 15.0051C13.8968 15.3174 14.1499 15.5707 14.4624 15.5707C14.7747 15.5707 15.0277 15.3176 15.0277 15.0051C15.0277 14.6931 14.7747 14.4398 14.4624 14.4398Z" fill="white"/>
<path d="M8.61816 14.3912C8.27949 14.3912 8.00403 14.6667 8.00403 15.0054C8.00403 15.344 8.27949 15.6195 8.61816 15.6195C8.95683 15.6195 9.23229 15.344 9.23229 15.0054C9.23229 14.6667 8.95683 14.3912 8.61816 14.3912ZM8.61816 15.5222C8.33309 15.5222 8.10136 15.2904 8.10136 15.0054C8.10136 14.7203 8.33336 14.4886 8.61816 14.4886C8.90323 14.4886 9.13496 14.7203 9.13496 15.0054C9.13523 15.2904 8.90323 15.5222 8.61816 15.5222ZM11.5403 14.3912C11.2016 14.3912 10.9262 14.6667 10.9262 15.0054C10.9262 15.344 11.2016 15.6195 11.5403 15.6195C11.879 15.6195 12.1544 15.344 12.1544 15.0054C12.1544 14.6667 11.879 14.3912 11.5403 14.3912ZM11.5403 15.5222C11.2552 15.5222 11.0235 15.2904 11.0235 15.0054C11.0235 14.7203 11.2555 14.4886 11.5403 14.4886C11.8254 14.4886 12.0571 14.7203 12.0571 15.0054C12.0571 15.2904 11.8254 15.5222 11.5403 15.5222ZM14.4624 14.3912C14.1238 14.3912 13.8483 14.6667 13.8483 15.0054C13.8483 15.344 14.1238 15.6195 14.4624 15.6195C14.8011 15.6195 15.0766 15.344 15.0766 15.0054C15.0763 14.6667 14.8008 14.3912 14.4624 14.3912ZM14.4624 15.5222C14.1774 15.5222 13.9456 15.2904 13.9456 15.0054C13.9456 14.7203 14.1776 14.4886 14.4624 14.4886C14.7475 14.4886 14.9792 14.7203 14.9792 15.0054C14.9792 15.2904 14.7472 15.5222 14.4624 15.5222Z" fill="#4D4D4F"/>
</g>
<defs>
<clipPath id="clip0_397_2060">
<rect width="80" height="80" fill="white"/>
</clipPath>
</defs>
</svg>
