<svg width="80" height="80" viewBox="0 0 80 80" fill="none" xmlns="http://www.w3.org/2000/svg">
<g clip-path="url(#clip0_397_2169)">
<path d="M79.9611 66.2192H0.0392V66.3904H79.9611V66.2192Z" fill="#606060"/>
<path d="M20.6248 36.9683L25.2413 38.7464L24.8544 42.1021C24.8544 42.1021 21.9075 41.7605 21.0259 41.1728C20.1443 40.5851 20.0856 40.644 20.0856 40.644L20.6248 36.9683Z" fill="#4D4D4F"/>
<path d="M24.0869 54.0435H12.2824V52.8752C12.2824 52.8752 9.3256 51.488 9.3256 39.6237H17.5525C17.5525 39.6237 16.9685 52.2547 21.0571 52.2547C21.0571 52.2547 24.0869 52.5467 24.0869 54.0435Z" fill="white"/>
<path d="M24.1309 54.0874H12.2384V52.9016C12.0995 52.8226 11.4333 52.3736 10.7632 50.7149C10.0872 49.0418 9.2816 45.7594 9.2816 39.6237V39.5797H17.5989L17.5968 39.6258C17.5925 39.7192 17.1933 48.9965 19.6395 51.5584C20.0525 51.9912 20.5296 52.2106 21.0573 52.2106C21.1869 52.2229 24.1315 52.5242 24.1315 54.0434V54.0874H24.1309ZM12.3264 53.9992H24.0419C23.9821 52.5976 21.0821 52.3013 21.0525 52.2984C21.0523 52.2984 21.052 52.2984 21.0517 52.2984C20.5037 52.2984 20.0053 52.0698 19.5752 51.6192C18.5363 50.5312 17.8728 48.1805 17.6029 44.6325C17.4179 42.1984 17.4928 40.0096 17.5064 39.6677H9.3696C9.37333 45.7432 10.1691 48.9989 10.8365 50.6616C11.5611 52.4656 12.2939 52.8317 12.3011 52.8352L12.3261 52.8472V52.8749V53.9992H12.3264Z" fill="#4D4D4F"/>
<path d="M18.1091 63.3253V57.2195L18.3645 56.9275V54.0435H17.8899H16.8677V56.9275L17.1232 57.2195V63.3253C17.1232 63.3253 13.8376 63.4619 12.8155 65.2141H13.5091C13.5091 65.2141 15.0059 64.1555 17.1232 64.1555V66.1267H17.8899H18.1088V64.1555C20.2261 64.1555 21.7229 65.2141 21.7229 65.2141H22.4165C21.3944 63.4616 18.1091 63.3253 18.1091 63.3253Z" fill="white"/>
<path d="M18.1531 66.1707H17.0792V64.1995C15.0243 64.2139 13.5496 65.2395 13.5347 65.2499L13.5232 65.2579H12.7389L12.7776 65.1915C13.7368 63.5472 16.6899 63.3078 17.0792 63.2832V57.2355L16.8237 56.9435V53.999H18.4085V56.9435L18.1531 57.2355V63.2832C18.5421 63.3078 21.4955 63.5472 22.4547 65.1915L22.4933 65.2579H21.7091L21.6976 65.2499C21.6827 65.2395 20.208 64.2139 18.1531 64.1995V66.1707ZM17.1675 66.0824H18.0651V64.1112H18.1091C20.1176 64.1112 21.5907 65.0712 21.7368 65.1699H22.3384C21.2965 63.5211 18.1395 63.3707 18.1072 63.3694L18.0651 63.3675V57.2027L18.3205 56.9107V54.0875H16.912V56.9107L17.1675 57.2027V63.3675L17.1253 63.3694C17.0931 63.3707 13.9363 63.5211 12.8941 65.1699H13.4957C13.6419 65.0712 15.1147 64.1112 17.1235 64.1112H17.1675V66.0824Z" fill="#4D4D4F"/>
<path d="M13.8069 65.821C14.0135 65.4866 13.9099 65.048 13.5756 64.8414C13.2412 64.6348 12.8026 64.7383 12.596 65.0727C12.3893 65.4071 12.4929 65.8457 12.8273 66.0523C13.1617 66.2589 13.6002 66.1554 13.8069 65.821Z" fill="#4D4D4F"/>
<path d="M22.615 65.6215C22.7053 65.2389 22.4684 64.8556 22.0859 64.7653C21.7033 64.6749 21.32 64.9118 21.2296 65.2944C21.1393 65.6769 21.3762 66.0603 21.7587 66.1506C22.1413 66.241 22.5247 66.0041 22.615 65.6215Z" fill="white"/>
<path d="M21.9237 66.2072C21.5069 66.2072 21.1677 65.868 21.1677 65.4512C21.1677 65.0344 21.5069 64.6952 21.9237 64.6952C22.3405 64.6952 22.6797 65.0344 22.6797 65.4512C22.6797 65.868 22.3405 66.2072 21.9237 66.2072ZM21.9237 64.7835C21.5555 64.7835 21.256 65.0829 21.256 65.4512C21.256 65.8195 21.5555 66.1189 21.9237 66.1189C22.292 66.1189 22.5915 65.8195 22.5915 65.4512C22.5915 65.0829 22.292 64.7835 21.9237 64.7835Z" fill="#4D4D4F"/>
<path d="M26.2963 66.1632H32.128C32.128 66.1632 32.772 65.9843 31.8061 65.5907C30.84 65.1971 29.0512 64.3384 29.0512 64.3384C29.0512 64.3384 27.0477 64.1952 26.2963 64.3384C26.2963 64.3384 25.1155 66.1632 26.2963 66.1632Z" fill="white"/>
<path d="M32.1341 66.2072H26.2963C26.0456 66.2072 25.8752 66.1275 25.7896 65.9699C25.5179 65.4704 26.2288 64.3614 26.2592 64.3144L26.2696 64.2987L26.288 64.2952C27.0363 64.1526 28.9723 64.2886 29.0544 64.2947L29.0627 64.2952L29.0701 64.299C29.088 64.3075 30.8688 65.1616 31.8227 65.5502C32.2072 65.7067 32.3901 65.8507 32.3821 65.9904C32.3736 66.1368 32.1637 66.1992 32.1397 66.2059L32.1341 66.2072ZM26.3232 64.3784C26.2371 64.516 25.6365 65.5043 25.8672 65.928C25.9363 66.055 26.0805 66.1192 26.2963 66.1192H32.1219C32.1709 66.1043 32.2904 66.0536 32.2944 65.9851C32.2968 65.9416 32.2525 65.8203 31.7896 65.6318C30.8653 65.2552 29.1683 64.4438 29.04 64.3822C28.8992 64.372 27.0493 64.2483 26.3232 64.3784Z" fill="#4D4D4F"/>
<path d="M26.2987 63.4083L26.296 64.2669C26.296 64.2669 26.5107 64.6248 27.4765 64.6605C28.4427 64.6963 29.0507 64.3387 29.0507 64.3387L29.0813 63.4085H26.2987V63.4083Z" fill="white"/>
<path d="M27.6141 64.7072C27.5688 64.7072 27.5224 64.7064 27.4752 64.7045C26.4965 64.6683 26.2677 64.3051 26.2584 64.2896L26.252 64.2792L26.2547 63.3643H29.1272L29.0941 64.3643L29.0731 64.3765C29.0493 64.3907 28.5005 64.7072 27.6141 64.7072ZM26.3403 64.2528C26.3816 64.3059 26.6392 64.5853 27.4784 64.6163C28.3213 64.6472 28.8936 64.3717 29.0077 64.3117L29.036 63.4523H26.3427L26.3403 64.2528Z" fill="#4D4D4F"/>
<path d="M23.7861 49.4872C23.7861 49.4872 29.7245 50.1936 29.7816 52.044C29.8387 53.8944 29.78 63.4144 29.78 63.4144H25.7843L25.2264 53.6389C25.2264 53.6389 23.5512 53.4832 22.4347 52.7192C21.3181 51.9552 18.7704 49.9698 18.7704 49.9698L23.7861 49.4872Z" fill="#60A899"/>
<path d="M29.824 63.4587H25.7427L25.7403 63.4171L25.1845 53.6789C24.9283 53.6499 23.4299 53.4539 22.4096 52.756C21.3048 52 18.7685 50.0248 18.7429 50.0051L18.6557 49.9371L23.7867 49.4429L23.7915 49.4435C24.0355 49.4725 29.7683 50.1757 29.8259 52.0427C29.8824 53.8728 29.8248 63.3195 29.8243 63.4147L29.824 63.4587ZM25.8259 63.3704H29.7365C29.7408 62.6656 29.7923 53.8099 29.7379 52.0456C29.6832 50.2755 23.9805 49.5557 23.7859 49.5317L18.8851 50.0035C19.3427 50.3589 21.4736 52.0085 22.4597 52.6832C23.5536 53.4317 25.2141 53.5939 25.2307 53.5952L25.2685 53.5987L25.2707 53.6365L25.8259 63.3704Z" fill="#4D4D4F"/>
<path d="M20.596 66.1632H26.4277C26.4277 66.1632 27.0717 65.9843 26.1056 65.5907C25.1395 65.1971 23.3507 64.3384 23.3507 64.3384C23.3507 64.3384 21.3472 64.1952 20.5957 64.3384C20.596 64.3384 19.4155 66.1632 20.596 66.1632Z" fill="white"/>
<path d="M26.4339 66.2072H20.596C20.3453 66.2072 20.1749 66.1275 20.0893 65.9699C19.8176 65.4704 20.5285 64.3614 20.5589 64.3144L20.5693 64.2987L20.5877 64.2952C21.3363 64.1526 23.272 64.2886 23.3541 64.2947L23.3624 64.2952L23.3699 64.299C23.3877 64.3075 25.1685 65.1616 26.1224 65.5502C26.5069 65.7067 26.6899 65.8507 26.6819 65.9904C26.6733 66.1368 26.4635 66.1992 26.4395 66.2059L26.4339 66.2072ZM20.6229 64.3784C20.5368 64.516 19.9363 65.5043 20.1669 65.928C20.236 66.055 20.3803 66.1192 20.596 66.1192H26.4216C26.4707 66.1043 26.5901 66.0536 26.5941 65.9851C26.5965 65.9416 26.5523 65.8203 26.0893 65.6318C25.1651 65.2552 23.468 64.4438 23.3397 64.3822C23.1989 64.372 21.3493 64.2483 20.6229 64.3784Z" fill="#4D4D4F"/>
<path d="M20.5987 63.4083L20.596 64.2669C20.596 64.2669 20.8107 64.6248 21.7768 64.6605C22.7429 64.6963 23.3509 64.3387 23.3509 64.3387L23.3816 63.4085H20.5987V63.4083Z" fill="white"/>
<path d="M21.9141 64.7072C21.8688 64.7072 21.8224 64.7064 21.7752 64.7045C20.7965 64.6683 20.5677 64.3051 20.5584 64.2896L20.552 64.2792L20.5547 63.3643H23.4272L23.3941 64.3643L23.3731 64.3765C23.3493 64.3907 22.8005 64.7072 21.9141 64.7072ZM20.6403 64.2528C20.6816 64.3059 20.9392 64.5853 21.7784 64.6163C22.6219 64.6472 23.1936 64.3717 23.3077 64.3117L23.336 63.4523H20.6427L20.6403 64.2528Z" fill="#4D4D4F"/>
<path d="M13.7376 50.3688C13.7376 50.3688 13.6339 53.143 15.8013 53.3131C17.9688 53.4832 19.6731 53.6595 19.6731 53.6595L20.0845 63.4144H24.08C24.08 63.4144 24.5616 52.5643 24.0565 51.7016C23.5512 50.839 20.0715 49.84 20.0715 49.84L13.7376 50.3688Z" fill="#60A899"/>
<path d="M24.1221 63.4587H20.0419L19.6304 53.6998C19.3667 53.6728 17.7635 53.5115 15.7979 53.3574C13.6136 53.1859 13.6925 50.3955 13.6936 50.3675L13.6949 50.3286L20.0757 49.796L20.0835 49.7982C20.2261 49.8392 23.5861 50.8118 24.0944 51.6798C24.6005 52.5438 24.1437 62.9734 24.124 63.4168L24.1221 63.4587ZM20.1261 63.3704H24.0376C24.0696 62.6299 24.4955 52.539 24.0181 51.724C23.5387 50.9056 20.2499 49.9382 20.0667 49.8848L13.7808 50.4094C13.7797 50.744 13.8432 53.1152 15.8043 53.2691C17.9475 53.4374 19.66 53.6139 19.6771 53.6155L19.7149 53.6195L20.1261 63.3704Z" fill="#4D4D4F"/>
<path d="M22.9187 45.5789C22.9187 46.6717 23.7928 49.5128 23.7928 49.5128L13.8485 50.3869C13.8485 50.3869 13.7392 49.0392 14.1035 47.0722C14.4677 45.1053 13.2656 40.1149 12.9744 39.168C13.9944 37.7109 17.0176 36.436 17.0176 36.436C17.0176 36.436 18.8491 36.5722 20.1139 36.7637C20.1139 36.7637 22.7581 37.957 22.8029 39.6234C22.8477 41.2904 22.9187 45.5789 22.9187 45.5789Z" fill="#4D4D4F"/>
<path d="M17.3083 34.6509C17.3083 34.6509 17.2728 35.6347 17.0179 36.436L18.8027 37.6744L20.1139 36.7637V35.7717C20.1139 35.772 17.8901 34.1043 17.3083 34.6509Z" fill="white"/>
<path d="M18.8027 37.7283L16.9659 36.4539L16.9757 36.4229C17.2259 35.6368 17.2637 34.6592 17.2643 34.6496L17.2648 34.6315L17.2779 34.6192C17.88 34.0533 20.0483 35.668 20.1403 35.7371L20.1579 35.7504V36.7875L18.8027 37.7283ZM17.0696 36.4184L18.8027 37.6208L20.0699 36.7408V35.7941C19.8621 35.6413 17.8931 34.216 17.3515 34.6715C17.3451 34.8107 17.2957 35.6875 17.0696 36.4184Z" fill="#4D4D4F"/>
<path d="M20.5328 31.8648C20.5328 31.8648 21.6619 35.8352 19.7315 35.8352C17.8011 35.8352 17.036 34.2325 17.036 34.2325C17.036 34.2325 16.0344 34.105 15.9979 33.413C15.9979 33.0853 16.5808 33.0122 16.9085 33.3765C16.9085 33.3765 16.1072 32.2837 17.2363 32.0288C18.3656 31.7736 20.5328 31.8648 20.5328 31.8648Z" fill="white"/>
<path d="M19.7315 35.8792C17.9179 35.8792 17.1085 34.4648 17.0072 34.2728C16.8496 34.2483 15.9891 34.084 15.9539 33.4152C15.9539 33.2827 16.0331 33.1776 16.1709 33.1248C16.3259 33.0654 16.5467 33.0768 16.7432 33.1878C16.64 32.987 16.528 32.6798 16.6269 32.4158C16.7067 32.2024 16.9085 32.0576 17.2269 31.9859C18.3488 31.7326 20.5133 31.82 20.5349 31.8208L20.5667 31.8222L20.5755 31.8528C20.6059 31.9603 21.3147 34.4934 20.5635 35.488C20.3669 35.7475 20.0872 35.8792 19.7315 35.8792ZM16.3736 33.1779C16.3104 33.1779 16.252 33.188 16.2027 33.207C16.1427 33.2299 16.0421 33.2872 16.0421 33.4128C16.076 34.0576 17.032 34.1875 17.0419 34.1886L17.0656 34.1915L17.076 34.2131C17.0835 34.2288 17.8525 35.7907 19.7317 35.7907C20.0584 35.7907 20.3144 35.6707 20.4931 35.4344C21.1749 34.5315 20.5787 32.2024 20.4992 31.9072C20.2259 31.8974 18.2824 31.8374 17.2464 32.0712C16.9589 32.136 16.7784 32.2622 16.7096 32.4459C16.5667 32.8275 16.9405 33.3448 16.9443 33.3499L16.876 33.4054C16.7323 33.2464 16.5376 33.1779 16.3736 33.1779Z" fill="#4D4D4F"/>
<path d="M20.1005 36.7771L18.8027 37.6747L20.0411 38.9131L20.7349 36.9582C20.5299 36.8835 20.3173 36.8208 20.1005 36.7771Z" fill="#60A899"/>
<path d="M20.0592 38.9936L18.7341 37.6686L20.0909 36.7302L20.1093 36.7339C20.3168 36.7758 20.5323 36.8374 20.7501 36.9168L20.7912 36.9318L20.0592 38.9936ZM18.8712 37.6808L20.0229 38.8326L20.6787 36.9848C20.4853 36.9163 20.2944 36.8622 20.1099 36.824L18.8712 37.6808Z" fill="#4D4D4F"/>
<path d="M16.2947 36.7717L17.6733 38.913L18.8024 37.6746L17.0872 36.4922C17.0299 36.4864 16.9765 36.4808 16.9269 36.4757C16.8091 36.5274 16.5837 36.6293 16.2947 36.7717Z" fill="#60A899"/>
<path d="M17.6675 38.985L16.2309 36.7538L16.2752 36.732C16.5691 36.5872 16.7987 36.4837 16.9091 36.4349L16.9197 36.4301L17.1029 36.449L18.8691 37.6666L17.6675 38.985ZM16.3587 36.7896L17.6795 38.841L18.736 37.6824L17.0717 36.5349L16.9341 36.5208C16.8264 36.5682 16.6208 36.661 16.3587 36.7896ZM12.9965 39.0677C12.9965 39.0677 12.6797 41.8477 13.0763 43.733L16.0315 42.4853C16.0315 42.4853 15.2557 37.3072 14.8539 37.5581C13.9139 38.1458 12.9965 39.0677 12.9965 39.0677Z" fill="#4D4D4F"/>
<path d="M13.0763 43.7331C13.0763 43.7331 13.2672 47.0235 15.4373 47.0235C17.9685 47.0235 23.316 47.0192 23.316 47.0192L22.9157 45.2003C22.9157 45.2003 16.5635 45.012 16.3256 43.9293C16.088 42.8469 16.0291 42.4941 16.0291 42.4941L13.0763 43.7331Z" fill="white"/>
<path d="M15.4373 47.0675C13.2509 47.0675 13.0341 43.7688 13.0323 43.7355L13.0304 43.7043L16.0635 42.432L16.0725 42.4869C16.0731 42.4904 16.1339 42.8517 16.3685 43.9197C16.5507 44.7493 20.7317 45.0912 22.9168 45.156L22.9512 45.1571L23.3707 47.0629H23.316C23.316 47.0632 17.9685 47.0675 15.4373 47.0675ZM13.1227 43.7616C13.1499 44.0944 13.4453 46.9795 15.4373 46.9795C17.8181 46.9795 22.6912 46.9757 23.2611 46.9752L22.8797 45.2432C22.3224 45.2253 16.5179 45.012 16.2824 43.9387C16.0973 43.096 16.0203 42.692 15.9952 42.556L13.1227 43.7616Z" fill="#4D4D4F"/>
<path d="M24.8456 42.1131C24.8456 42.1131 26.668 42.288 27.9013 41.5843C29.0981 40.9013 32.1384 37.5144 32.7899 36.9685C33.5069 36.3677 34.9739 35.2899 34.7579 34.6173C34.5419 33.9448 33.7779 33.8275 33.3664 34.1211C32.9549 34.4149 32.4848 34.8261 32.4848 34.4149C32.4848 34.0037 32.4261 33.5923 32.1323 33.9448C31.8384 34.2973 31.956 34.7675 31.8973 35.12C31.8387 35.4725 31.8387 35.4725 31.1333 36.1779C30.4283 36.8829 27.8061 39.0429 25.1981 38.7635L24.8456 42.1131Z" fill="white"/>
<path d="M25.3477 42.1752C25.0435 42.1752 24.8475 42.1573 24.8413 42.1568L24.7971 42.1525L25.1589 38.7149L25.2029 38.7197C27.5789 38.9744 30.1008 37.148 31.1024 36.1467C31.7976 35.4515 31.7976 35.4515 31.8541 35.1128C31.8712 35.0099 31.8731 34.896 31.8747 34.7752C31.8789 34.4939 31.8835 34.1749 32.0987 33.9165C32.2011 33.7936 32.2877 33.7472 32.3632 33.7744C32.4765 33.8155 32.5291 34.0189 32.5291 34.4147C32.5291 34.4619 32.536 34.5216 32.5685 34.5379C32.6621 34.5851 32.9445 34.376 33.1717 34.2083C33.2283 34.1664 33.2851 34.1245 33.3408 34.0848C33.5701 33.9211 33.8947 33.8795 34.1877 33.9765C34.484 34.0747 34.7013 34.2973 34.7997 34.6035C34.9987 35.2224 33.9069 36.1123 33.1096 36.7621C33.0043 36.848 32.9056 36.9285 32.8181 37.0016C32.6099 37.1763 32.1592 37.6397 31.5885 38.2264C30.3861 39.4627 28.7395 41.156 27.9232 41.6219C27.0907 42.0976 25.9832 42.1752 25.3477 42.1752ZM24.8941 42.0728C25.1797 42.0931 26.7784 42.1741 27.8795 41.5461C28.6851 41.0864 30.3267 39.3984 31.5253 38.1659C32.0979 37.5773 32.5499 37.1123 32.7616 36.9349C32.8493 36.8613 32.9483 36.7808 33.0539 36.6947C33.7875 36.0965 34.8963 35.1928 34.7157 34.6312C34.6261 34.3525 34.4288 34.1501 34.16 34.0611C33.8971 33.9739 33.5957 34.012 33.392 34.1576C33.3368 34.1971 33.2803 34.2387 33.2243 34.2803C32.9272 34.4997 32.6709 34.6891 32.5288 34.6176C32.4704 34.588 32.4408 34.5203 32.4408 34.4155C32.4408 33.9344 32.3584 33.8672 32.3331 33.8581C32.3165 33.8523 32.2677 33.8517 32.1661 33.9736C31.9707 34.208 31.9667 34.4973 31.9624 34.7773C31.9605 34.9013 31.9589 35.0187 31.9405 35.128C31.8795 35.4944 31.8659 35.508 31.1643 36.2096C30.2176 37.1563 27.924 38.8323 25.6592 38.8325C25.5181 38.8325 25.3776 38.8261 25.2371 38.8125L24.8941 42.0728ZM17.0179 33.4739C16.5939 33.0029 16.2667 33.1808 16.2667 33.1808C15.7965 32.652 15.8552 31.7704 16.1491 31.4765C16.4429 31.1827 16.384 30.7125 17.0304 30.36C17.6768 30.0075 17.7944 30.5949 18.2056 30.36C18.9696 30.0075 19.7336 29.7723 20.8499 29.9485C21.9664 30.1248 20.0859 30.9475 20.0859 30.9475C20.0859 30.9475 20.6147 30.7125 21.1437 31.3C21.6725 31.8877 20.7347 32.5424 20.7347 32.5424C20.7347 32.5424 20.3168 32.0176 19.6157 31.8288C19.6157 31.8288 19.2043 32.5928 17.5003 32.6515C17.5003 32.6515 17.324 33.9443 17.7352 34.4144C17.7352 34.4144 20.4131 33.7261 20.8371 34.5405C20.8371 34.5405 20.8243 35.8339 19.6619 35.8339C19.6619 35.8339 18.1896 35.8805 17.1397 34.4131L17.0179 33.4739Z" fill="#4D4D4F"/>
<path d="M69.1027 66.1765H68.0872L63.3291 47.1851L65.6061 46.2608L69.1027 66.1765Z" fill="white"/>
<path d="M69.1552 66.2205H68.0531L68.0448 66.1872L63.2773 47.1586L65.6405 46.1997L65.6499 46.2533L69.1552 66.2205ZM68.1216 66.1322H69.0501L65.5723 46.3221L63.3811 47.2112L68.1216 66.1322Z" fill="#4D4D4F"/>
<path d="M42.8789 66.1822H43.8944L48.6525 47.1907L46.3755 46.2664L42.8789 66.1822Z" fill="white"/>
<path d="M43.9285 66.2261H42.8267L42.8357 66.1744L46.3416 46.2051L48.7048 47.164L48.6955 47.2011L43.9285 66.2261ZM42.9315 66.1379H43.8597L48.6003 47.2168L46.4091 46.3277L42.9315 66.1379Z" fill="#4D4D4F"/>
<path d="M9.55973 66.1765H10.5749L15.3331 47.1851L13.056 46.2608L9.55973 66.1765Z" fill="#4D4D4F"/>
<path d="M35.7832 66.1822H34.768L30.0096 47.1907L32.2867 46.2664L35.7832 66.1822Z" fill="#4D4D4F"/>
<path d="M67.5672 45.8734H10.4203V47.1872H67.5672V45.8734Z" fill="white"/>
<path d="M67.6115 47.2312H10.3763V45.829H67.6115V47.2312ZM10.4645 47.1432H67.5235V45.9176H10.4645V47.1432Z" fill="#4D4D4F"/>
<path d="M18.6827 45.1597V45.8755H33.9512L35.6211 38.5989H26.2573L24.3488 45.1L18.6827 45.1597Z" fill="white"/>
<path d="M33.9861 45.9195H18.6387V45.116L24.3157 45.0563L26.2245 38.5549H35.6768L35.6645 38.6088L33.9861 45.9195ZM18.7267 45.8312H33.916L35.5659 38.6429H26.2901L24.3816 45.1435L18.7267 45.2029V45.8312Z" fill="#4D4D4F"/>
<path d="M30.5129 42.8876C30.8725 42.8433 31.1281 42.5159 31.0838 42.1563C31.0395 41.7968 30.7121 41.5412 30.3525 41.5855C29.993 41.6297 29.7374 41.9571 29.7817 42.3167C29.8259 42.6763 30.1534 42.9319 30.5129 42.8876Z" fill="#4D4D4F"/>
<path d="M43.5912 43.9408C43.5912 43.9408 44.5624 41.9845 44.9536 41.4955C45.3448 41.0064 44.2688 40.5173 43.7797 41.0064C43.2907 41.4955 42.9973 42.9627 42.9483 43.9408H43.5912Z" fill="#60A899"/>
<path d="M43.6184 43.9848H42.9019L42.9043 43.9384C42.9475 43.076 43.2147 41.5088 43.7485 40.975C44.0616 40.6619 44.6395 40.719 44.9277 40.9768C45.1091 41.139 45.1315 41.3432 44.988 41.5227C44.604 42.0024 43.6403 43.9406 43.6307 43.96L43.6184 43.9848ZM42.9949 43.8968H43.564C43.6824 43.6595 44.5488 41.9312 44.9192 41.468C45.0733 41.2752 44.9539 41.119 44.8691 41.043C44.6403 40.8382 44.1144 40.7342 43.8112 41.0376C43.3304 41.5182 43.0475 42.9808 42.9949 43.8968Z" fill="#4D4D4F"/>
<path d="M43.3616 43.9501L43.2755 43.9312C43.2792 43.9144 43.6496 42.2467 44.4277 41.0795L44.5011 41.1283C43.7323 42.2819 43.3653 43.9336 43.3616 43.9501Z" fill="#FFFFFD"/>
<path d="M42.6061 43.9408C42.6061 43.9408 42.5083 42.8648 41.8237 41.7888C41.1389 40.7128 41.5304 40.5173 41.8237 40.3216C42.1171 40.1259 43.2627 40.3147 43.1789 42.3723C43.1789 42.3723 43.2264 43.4517 43.112 43.9408H42.6061Z" fill="#60A899"/>
<path d="M43.1467 43.9848H42.5659L42.5621 43.9448C42.5611 43.9341 42.4568 42.8664 41.7864 41.8125C41.1051 40.7419 41.4709 40.5011 41.7648 40.3077L41.7992 40.2851C41.9349 40.1947 42.2139 40.1824 42.4843 40.3341C42.7843 40.5027 43.2792 40.9917 43.2229 42.3741C43.2248 42.4147 43.2693 43.4616 43.1549 43.9509L43.1467 43.9848ZM42.6453 43.8968H43.0763C43.1784 43.4045 43.1352 42.3848 43.1347 42.3744C43.1888 41.0352 42.7232 40.5699 42.4408 40.4112C42.204 40.2781 41.9587 40.2848 41.8477 40.3587L41.8128 40.3819C41.5376 40.5629 41.2256 40.7683 41.8605 41.7656C42.4693 42.7216 42.6192 43.6904 42.6453 43.8968Z" fill="#4D4D4F"/>
<path d="M42.9016 43.9435L42.8136 43.9381C42.8149 43.9149 42.9419 41.6091 42.0925 41.0429L42.1413 40.9696C43.0325 41.5637 42.9072 43.8467 42.9016 43.9435Z" fill="#FFFFFD"/>
<path d="M42.0192 43.9408C42.0192 43.9408 41.8235 43.1584 41.1389 42.6693C40.4544 42.1802 41.2368 41.3 41.7259 41.8869C42.2149 42.4738 42.6061 43.5498 42.6061 43.941H42.0192V43.9408Z" fill="#60A899"/>
<path d="M42.6501 43.9848H41.9848L41.9765 43.9515C41.9747 43.9437 41.7763 43.1784 41.1133 42.705C40.8955 42.5493 40.7941 42.332 40.8352 42.1088C40.8744 41.8952 41.0363 41.716 41.2376 41.6632C41.4253 41.6141 41.6155 41.6853 41.7597 41.8586C42.2512 42.4485 42.6504 43.5408 42.6504 43.9411V43.9848H42.6501ZM42.0528 43.8968H42.5605C42.5341 43.4778 42.1552 42.4707 41.692 41.9149C41.5688 41.7669 41.4152 41.7077 41.26 41.7485C41.0936 41.7922 40.9547 41.9469 40.9219 42.1248C40.9016 42.2355 40.9059 42.4488 41.1645 42.6336C41.7821 43.0746 42.0067 43.7389 42.0528 43.8968Z" fill="#4D4D4F"/>
<path d="M42.3213 43.9472C42.1821 42.9968 41.3139 42.2208 41.3053 42.213L41.3637 42.1469C41.4005 42.1792 42.2648 42.9514 42.4088 43.9341L42.3213 43.9472Z" fill="#FFFFFD"/>
<path d="M41.7256 43.843H43.9752V45.111C43.9752 45.5451 43.6232 45.8971 43.1891 45.8971H42.5115C42.0773 45.8971 41.7256 45.5451 41.7256 45.111V43.843Z" fill="white"/>
<path d="M43.1893 45.941H42.5115C42.0539 45.941 41.6813 45.5688 41.6813 45.1109V43.7986H44.0192V45.1109C44.0195 45.5688 43.6472 45.941 43.1893 45.941ZM41.7699 43.8869V45.1109C41.7699 45.52 42.1027 45.8528 42.5117 45.8528H43.1896C43.5987 45.8528 43.9315 45.52 43.9315 45.1109V43.8869H41.7699Z" fill="#4D4D4F"/>
<path d="M63.5715 36.4717C63.5715 36.4717 64.9229 37.1767 65.0405 38.2346C65.1581 39.2925 65.3883 43.2599 64.2155 43.3917C63.0427 43.5234 63.5715 36.4717 63.5715 36.4717Z" fill="#60A899"/>
<path d="M64.1829 43.4375C64.096 43.4375 64.0155 43.4023 63.9429 43.3325C63.0851 42.5058 63.5088 36.7144 63.5275 36.4682L63.5325 36.4016L63.592 36.4325C63.648 36.4618 64.9659 37.1607 65.0845 38.2295C65.0901 38.2799 65.6064 43.2797 64.2205 43.4354C64.2077 43.4367 64.1952 43.4375 64.1829 43.4375ZM63.6104 36.5439C63.564 37.2141 63.2245 42.5178 64.0043 43.269C64.068 43.3303 64.1355 43.3562 64.2104 43.3479C65.3019 43.2256 65.1397 39.5258 64.9968 38.2394C64.8971 37.3431 63.8704 36.6946 63.6104 36.5439Z" fill="#4D4D4F"/>
<path d="M61.9976 33.9141C61.9976 33.9141 62.0845 34.9754 62.2931 35.8738C62.3309 36.4189 61.6157 37.1424 60.7179 37.2048C59.82 37.2672 59.3453 36.2165 59.3453 36.2165L59.2493 34.8357C59.2493 34.8357 61.1387 33.0973 61.9976 33.9141Z" fill="white"/>
<path d="M60.6421 37.2517C59.7747 37.2517 59.3099 36.2453 59.3051 36.2349L59.3013 36.2197L59.204 34.8179L59.2197 34.8035C59.2981 34.7315 61.1496 33.0467 62.0283 33.8824L62.0405 33.8939L62.0419 33.9107C62.0427 33.9213 62.1309 34.9792 62.3363 35.864L62.3373 35.8709C62.3768 36.4379 61.6387 37.1851 60.7211 37.2488C60.6944 37.2509 60.668 37.2517 60.6421 37.2517ZM59.3885 36.2053C59.4315 36.2947 59.8931 37.2176 60.7147 37.1611C61.5829 37.1008 62.2827 36.4075 62.2493 35.8805C62.0573 35.052 61.9675 34.0755 61.9552 33.9349C61.1707 33.2205 59.4757 34.6925 59.2947 34.8541L59.3885 36.2053Z" fill="#4D4D4F"/>
<path d="M58.5675 31.8071C58.5675 31.8071 57.9491 35.1975 59.3811 35.2503C60.8131 35.3031 61.6981 34.4759 61.6981 34.4759C61.6981 34.4759 61.9277 32.6927 61.5392 32.1895C61.1512 31.6866 58.5675 31.8071 58.5675 31.8071Z" fill="white"/>
<path d="M59.5107 35.297C59.4675 35.297 59.4237 35.2962 59.3795 35.2946C59.1349 35.2856 58.9317 35.1826 58.776 34.9885C58.1045 34.1525 58.5067 31.8949 58.524 31.7992L58.5304 31.7648L58.5653 31.7632C58.672 31.7581 61.1763 31.6474 61.5741 32.1629C61.9691 32.6746 61.7515 34.4082 61.7419 34.4818L61.7397 34.4976L61.7283 34.5085C61.7197 34.5165 60.8683 35.297 59.5107 35.297ZM58.6051 31.8498C58.5563 32.1416 58.2424 34.1834 58.8451 34.9336C58.9843 35.1066 59.1653 35.1986 59.3832 35.2066C59.4264 35.2082 59.4691 35.209 59.5112 35.209C60.748 35.209 61.552 34.5458 61.6568 34.4544C61.6784 34.2752 61.8584 32.6749 61.5048 32.2168C61.1584 31.7682 58.9149 31.8378 58.6051 31.8498Z" fill="#4D4D4F"/>
<path d="M58.8685 66.112H53.0368C53.0368 66.112 52.3928 65.933 53.3587 65.5394C54.3245 65.1458 56.1136 64.2872 56.1136 64.2872C56.1136 64.2872 58.1171 64.144 58.8685 64.2872C58.8685 64.2874 60.0493 66.112 58.8685 66.112Z" fill="white"/>
<path d="M58.8685 66.1562H53.0307L53.0248 66.1546C53.0008 66.148 52.7909 66.0856 52.7824 65.9392C52.7744 65.7997 52.9573 65.6557 53.3419 65.4989C54.2955 65.1104 56.0765 64.2562 56.0944 64.2477L56.1019 64.244L56.1101 64.2434C56.1923 64.2376 58.128 64.1016 58.8765 64.244L58.8949 64.2474L58.9053 64.2632C58.9357 64.3101 59.6467 65.4192 59.3749 65.9186C59.2896 66.0762 59.1192 66.1562 58.8685 66.1562ZM53.0429 66.068H58.8685C59.0843 66.068 59.2288 66.0037 59.2976 65.8768C59.5283 65.453 58.9275 64.4648 58.8416 64.3272C58.1152 64.197 56.2656 64.321 56.1251 64.3306C55.9965 64.3922 54.2995 65.2037 53.3752 65.5802C52.9123 65.7688 52.868 65.8901 52.8704 65.9336C52.8744 66.0024 52.9939 66.053 53.0429 66.068Z" fill="#4D4D4F"/>
<path d="M58.6872 63.3571L58.8685 64.2157C58.8685 64.2157 58.6539 64.5736 57.6877 64.6093C56.7219 64.6451 56.1136 64.2875 56.1136 64.2875L55.904 63.3573H58.6872V63.3571Z" fill="white"/>
<path d="M57.5504 64.656C56.664 64.656 56.1152 64.3394 56.0912 64.3253L56.0747 64.3157L55.8488 63.313H58.7227L58.9152 64.2237L58.9064 64.2386C58.8971 64.2541 58.668 64.6173 57.6896 64.6536C57.6424 64.6552 57.5957 64.656 57.5504 64.656ZM56.1523 64.2584C56.2547 64.313 56.8304 64.5968 57.6861 64.5653C58.5128 64.5346 58.772 64.268 58.8213 64.2058L58.6512 63.4011H55.9589L56.1523 64.2584Z" fill="#4D4D4F"/>
<path d="M52.0072 66.112H46.1755C46.1755 66.112 45.5315 65.933 46.4973 65.5394C47.4632 65.1458 49.2523 64.2872 49.2523 64.2872C49.2523 64.2872 51.2557 64.144 52.0072 64.2872C52.0072 64.2874 53.188 66.112 52.0072 66.112Z" fill="white"/>
<path d="M52.0072 66.1562H46.1693L46.1635 66.1546C46.1395 66.148 45.9296 66.0856 45.9211 65.9392C45.9131 65.7997 46.096 65.6557 46.4805 65.4989C47.4341 65.1104 49.2152 64.2562 49.2331 64.2477L49.2405 64.244L49.2488 64.2434C49.3309 64.2376 51.2667 64.1016 52.0152 64.244L52.0336 64.2474L52.044 64.2632C52.0744 64.3101 52.7853 65.4192 52.5136 65.9186C52.4283 66.0762 52.2579 66.1562 52.0072 66.1562ZM46.1819 66.068H52.0075C52.2232 66.068 52.3677 66.0037 52.4365 65.8768C52.6672 65.453 52.0664 64.4648 51.9805 64.3272C51.2541 64.197 49.4045 64.321 49.264 64.3306C49.1355 64.3922 47.4384 65.2037 46.5144 65.5802C46.0515 65.7688 46.0072 65.8901 46.0096 65.9336C46.0131 66.0024 46.1328 66.053 46.1819 66.068Z" fill="#4D4D4F"/>
<path d="M52.0045 63.3571L52.0072 64.2157C52.0072 64.2157 51.7925 64.5736 50.8264 64.6093C49.8605 64.6451 49.2523 64.2875 49.2523 64.2875L49.2216 63.3573H52.0045V63.3571Z" fill="white"/>
<path d="M50.6891 64.656C49.8027 64.656 49.2539 64.3394 49.2299 64.3253L49.2088 64.313L49.1757 63.313H52.0483L52.0509 64.228L52.0445 64.2384C52.0352 64.2538 51.8061 64.617 50.8277 64.6533C50.7811 64.6552 50.7347 64.656 50.6891 64.656ZM49.2955 64.2608C49.4096 64.3208 49.9819 64.5968 50.8248 64.5653C51.6701 64.5341 51.9221 64.2557 51.9629 64.2021L51.9605 63.4013H49.2672L49.2955 64.2608Z" fill="#4D4D4F"/>
<path d="M62.5024 50.2688C62.5024 50.2688 62.5544 52.7362 59.3891 53.0357L54.028 53.505L52.9171 53.6021L52.5365 63.3744H48.4845C48.4845 63.3744 48.2579 51.8856 48.6683 50.8786C49.2144 49.5389 52.9747 48.6264 55.6395 48.8088L62.5024 50.2688Z" fill="#4D4D4F"/>
<path d="M58.2808 53.1658L59.1437 63.3741H55.4568L54.0331 53.5178L58.2808 53.1658Z" fill="#4D4D4F"/>
<path d="M62.6899 50.2813L55.3088 48.8335C55.3088 48.8335 56.1829 45.9925 56.1829 44.8997C56.1829 43.8069 56.3285 37.4746 56.3285 37.4746C56.3285 37.4746 57.7856 36.2666 58.9875 36.0845C58.9875 36.0845 61.3968 35.7074 63.0421 36.1775C63.0421 36.1775 64.2301 36.3549 64.4525 38.7045C64.8643 43.0533 62.6899 50.2813 62.6899 50.2813Z" fill="#60A899"/>
<path d="M62.7205 50.3322L55.2523 48.8674L55.2667 48.8205C55.2755 48.7922 56.1389 45.9733 56.1389 44.8994C56.1389 43.8186 56.2832 37.5368 56.2845 37.4736L56.2851 37.4536L56.3005 37.4408C56.3152 37.4285 57.7808 36.2229 58.9811 36.041C59.0051 36.0373 61.4187 35.668 63.0544 36.1354C63.0987 36.1416 64.2736 36.3437 64.4965 38.7005C64.904 43.0077 62.7536 50.2216 62.732 50.2938L62.7205 50.3322ZM55.3653 48.7997L62.6592 50.2304C62.8283 49.656 64.7995 42.8368 64.4091 38.7088C64.1933 36.4266 63.0475 36.2232 63.036 36.2213C61.4131 35.7578 59.0187 36.1242 58.9947 36.1282C57.884 36.2965 56.5317 37.3672 56.3725 37.496C56.3635 37.8928 56.2272 43.8506 56.2272 44.8997C56.2272 45.9226 55.4824 48.4138 55.3653 48.7997Z" fill="#4D4D4F"/>
<path d="M52.8648 53.9922H64.6693V52.824C64.6693 52.824 67.6261 51.4368 67.6261 39.5725H59.3992C59.3992 39.5725 59.9832 52.2034 55.8947 52.2034C55.8949 52.2034 52.8648 52.0618 52.8648 53.9922Z" fill="white"/>
<path d="M64.7136 54.0365H52.8208V53.9925C52.8208 53.5535 52.9749 53.184 53.2789 52.8938C54.1245 52.0866 55.8248 52.1565 55.8968 52.1597C56.4224 52.1597 56.8995 51.9402 57.3125 51.5074C59.7587 48.9455 59.3595 39.6682 59.3552 39.5749L59.3531 39.5287H67.6704V39.5727C67.6704 45.7085 66.8648 48.9909 66.1888 50.6639C65.5187 52.3226 64.8525 52.7717 64.7136 52.8506V54.0365ZM52.9096 53.9482H64.6253V52.7962L64.6507 52.7842C64.6579 52.7808 65.3907 52.4146 66.1152 50.6106C66.7829 48.948 67.5784 45.6922 67.5821 39.6167H59.4453C59.4589 39.9586 59.5339 42.1474 59.3488 44.5816C59.0789 48.1296 58.4155 50.4802 57.3765 51.5682C56.9461 52.0192 56.4475 52.2477 55.8949 52.2477C55.8755 52.2469 54.1579 52.1765 53.3397 52.9576C53.064 53.2205 52.9195 53.5536 52.9096 53.9482Z" fill="#4D4D4F"/>
<path d="M58.8429 63.2741V57.1683L58.5875 56.8763V53.9922H59.0621H60.0843V56.8763L59.8288 57.1683V63.2741C59.8288 63.2741 63.1144 63.4107 64.1365 65.1629H63.4429C63.4429 65.1629 61.9461 64.1042 59.8288 64.1042V66.0754H59.0621H58.8432V64.1042C56.7259 64.1042 55.2291 65.1629 55.2291 65.1629H54.5355C55.5573 63.4107 58.8429 63.2741 58.8429 63.2741Z" fill="white"/>
<path d="M59.8725 66.1197H58.7987V64.1485C56.7437 64.1629 55.2691 65.1885 55.2541 65.1989L55.2427 65.2069H54.4584L54.4971 65.1405C55.4563 63.4963 58.4093 63.2568 58.7987 63.2323V57.1845L58.5432 56.8925V53.948H60.128V56.8925L59.8725 57.1845V63.2323C60.2619 63.2568 63.2149 63.4963 64.1741 65.1405L64.2128 65.2069H63.4285L63.4171 65.1989C63.4021 65.1885 61.9275 64.1629 59.8725 64.1485V66.1197ZM58.8869 66.0315H59.7845V64.0603H59.8285C61.8373 64.0603 63.3101 65.0203 63.4563 65.1189H64.0579C63.016 63.4701 59.8589 63.3197 59.8267 63.3184L59.7845 63.3165V57.1517L60.04 56.8597V54.0365H58.6315V56.8597L58.8869 57.1517V63.3165L58.8448 63.3184C58.8125 63.3197 55.6557 63.4701 54.6136 65.1189H55.2152C55.3613 65.0203 56.8341 64.0603 58.8429 64.0603H58.8869V66.0315Z" fill="#4D4D4F"/>
<path d="M63.8687 66.1025C64.2567 66.0396 64.5202 65.674 64.4573 65.286C64.3944 64.898 64.0288 64.6345 63.6408 64.6974C63.2528 64.7603 62.9893 65.1259 63.0522 65.5139C63.1151 65.9019 63.4807 66.1654 63.8687 66.1025Z" fill="#4D4D4F"/>
<path d="M55.1438 66.1027C55.5318 66.0397 55.7953 65.6742 55.7324 65.2862C55.6695 64.8982 55.3039 64.6346 54.9159 64.6976C54.5279 64.7605 54.2644 65.1261 54.3273 65.5141C54.3902 65.9021 54.7558 66.1656 55.1438 66.1027Z" fill="#4D4D4F"/>
<path d="M57.4957 36.68C57.4957 36.68 56.0496 37.3531 54.1965 39.42C53.2155 40.5144 51.8773 42.9357 52.3472 44.2872C52.8173 45.6387 54.3117 45.8576 56.1501 45.8659C56.1501 45.8659 56.1709 44.9555 56.1981 44.1805C56.1981 44.1805 54.8403 43.7483 55.768 42.6368C56.6957 41.5253 57.5184 40.5851 57.6947 39.8797C57.8712 39.1749 58.7069 37.1235 57.4957 36.68Z" fill="#60A899"/>
<path d="M56.1936 45.9101L56.1504 45.9098C54.1755 45.9013 52.7661 45.6245 52.3059 44.3016C51.8032 42.8565 53.268 40.3898 54.164 39.3904C56.0016 37.3405 57.4627 36.6464 57.4773 36.6397L57.4939 36.632L57.5109 36.6384C58.5915 37.0338 58.1043 38.6544 57.8427 39.525C57.7995 39.6688 57.7621 39.7928 57.7379 39.8906C57.5731 40.5498 56.8533 41.4096 56.0197 42.405L55.8024 42.665C55.5363 42.9837 55.4387 43.2733 55.512 43.5256C55.6352 43.9496 56.2061 44.1365 56.212 44.1384L56.2437 44.1485L56.2427 44.1818C56.2155 44.9474 56.1947 45.8573 56.1947 45.8666L56.1936 45.9101ZM57.4981 36.728C57.3333 36.8098 55.9496 37.5309 54.2296 39.4496C53.1936 40.6053 51.9421 42.9877 52.3891 44.273C52.8288 45.5373 54.1928 45.8096 56.1075 45.8218C56.1117 45.6346 56.1301 44.8752 56.1533 44.212C56.0237 44.1645 55.5477 43.9642 55.4275 43.5512C55.3451 43.2688 55.4485 42.952 55.7347 42.609L55.9523 42.349C56.7787 41.3618 57.4925 40.5093 57.6525 39.8698C57.6776 39.7701 57.7149 39.645 57.7584 39.5005C58.0101 38.6621 58.4776 37.1066 57.4981 36.728ZM62.5728 35.12C62.0381 35.5018 61.9851 35.4405 60.8827 35.4405C59.7803 35.4405 59.9285 34.2973 60.1003 33.7306C60.272 33.164 60.8688 33.5333 60.9669 33.0264C61.124 32.1666 60.4091 32.561 60.4091 32.561C59.8907 33.1754 59.6933 33.0045 59.6933 33.0045C59.9283 32.4757 59.6933 32.0642 59.6933 32.0642C57.8717 31.9466 57.1077 30.7128 57.1077 30.7128C57.1077 30.7128 56.5789 28.7149 59.3995 29.7138C60.7509 30.184 61.1624 30.184 61.7501 30.184C62.3379 30.184 62.7859 30.2904 62.8851 31.0304C62.8667 31.4178 63.3955 31.7704 63.4544 32.2994C63.5131 32.8282 63.3955 34.5325 62.5728 35.12Z" fill="#4D4D4F"/>
<path d="M14.1243 27.9717L12.5221 25.6987H5.4024V20.584H15.7261V25.6987H14.1243V27.9717Z" fill="white"/>
<path d="M14.1683 28.1106L12.4995 25.7426H5.3584V20.54H15.7701V25.7426H14.1683V28.1106ZM5.4464 25.6544H12.5451L12.5581 25.673L14.08 27.8325V25.6544H15.6819V20.6282H5.4464V25.6544Z" fill="#4D4D4F"/>
<path d="M7.95973 22.628C7.67627 22.628 7.4464 22.8579 7.4464 23.1411C7.4464 23.4245 7.67627 23.6544 7.95973 23.6544C8.2432 23.6544 8.4728 23.4245 8.4728 23.1411C8.4728 22.8579 8.2432 22.628 7.95973 22.628ZM10.6117 22.628C10.3283 22.628 10.0987 22.8579 10.0987 23.1411C10.0987 23.4245 10.3285 23.6544 10.6117 23.6544C10.8952 23.6544 11.1251 23.4245 11.1251 23.1411C11.1248 22.8579 10.8949 22.628 10.6117 22.628ZM13.2635 22.628C12.98 22.628 12.7501 22.8579 12.7501 23.1411C12.7501 23.4245 12.98 23.6544 13.2635 23.6544C13.5469 23.6544 13.7768 23.4245 13.7768 23.1411C13.7768 22.8579 13.5469 22.628 13.2635 22.628Z" fill="white"/>
<path d="M7.95973 22.584C7.65253 22.584 7.4024 22.8341 7.4024 23.1413C7.4024 23.4485 7.65227 23.6987 7.95973 23.6987C8.2672 23.6987 8.51707 23.4488 8.51707 23.1413C8.51707 22.8341 8.26693 22.584 7.95973 22.584ZM7.95973 23.6104C7.70107 23.6104 7.49067 23.4 7.49067 23.1413C7.49067 22.8827 7.70107 22.6723 7.95973 22.6723C8.2184 22.6723 8.4288 22.8827 8.4288 23.1413C8.4288 23.4 8.2184 23.6104 7.95973 23.6104ZM10.6117 22.584C10.3045 22.584 10.0544 22.8341 10.0544 23.1413C10.0544 23.4485 10.3043 23.6987 10.6117 23.6987C10.9189 23.6987 11.1691 23.4488 11.1691 23.1413C11.1688 22.8341 10.9189 22.584 10.6117 22.584ZM10.6117 23.6104C10.3531 23.6104 10.1427 23.4 10.1427 23.1413C10.1427 22.8827 10.3531 22.6723 10.6117 22.6723C10.8704 22.6723 11.0808 22.8827 11.0808 23.1413C11.0808 23.4 10.8704 23.6104 10.6117 23.6104ZM13.2635 22.584C12.9563 22.584 12.7061 22.8341 12.7061 23.1413C12.7061 23.4485 12.956 23.6987 13.2635 23.6987C13.5707 23.6987 13.8208 23.4488 13.8208 23.1413C13.8208 22.8341 13.5709 22.584 13.2635 22.584ZM13.2635 23.6104C13.0048 23.6104 12.7944 23.4 12.7944 23.1413C12.7944 22.8827 13.0048 22.6723 13.2635 22.6723C13.5221 22.6723 13.7325 22.8827 13.7325 23.1413C13.7328 23.4 13.5224 23.6104 13.2635 23.6104Z" fill="#4D4D4F"/>
<path d="M42.9163 27.9147C46.1411 24.6898 46.141 19.4614 42.9161 16.2367C39.6913 13.0119 34.4629 13.012 31.2381 16.2369C28.0134 19.4617 28.0135 24.6902 31.2383 27.9149C34.4632 31.1396 39.6916 31.1395 42.9163 27.9147Z" fill="white"/>
<path d="M37.0776 30.3774C32.5 30.3774 28.7757 26.6531 28.7757 22.0755C28.7757 17.4979 32.5 13.7736 37.0776 13.7736C41.6552 13.7736 45.3795 17.4979 45.3795 22.0755C45.3792 26.6534 41.6552 30.3774 37.0776 30.3774ZM37.0776 13.8622C32.5485 13.8622 28.864 17.5467 28.864 22.0758C28.864 26.6048 32.5485 30.2894 37.0776 30.2894C41.6067 30.2894 45.2912 26.6048 45.2912 22.0758C45.2912 17.5467 41.6064 13.8622 37.0776 13.8622Z" fill="#4D4D4F"/>
<path d="M41.1576 26.156C43.411 23.9025 43.411 20.2489 41.1575 17.9954C38.9039 15.742 35.2503 15.742 32.9969 17.9956C30.7434 20.2491 30.7435 23.9027 32.997 26.1561C35.2505 28.4096 38.9041 28.4095 41.1576 26.156Z" fill="#4D4D4F"/>
<path d="M39.3988 24.3973C40.681 23.1151 40.681 21.0363 39.3988 19.7542C38.1166 18.472 36.0378 18.4721 34.7556 19.7543C33.4735 21.0364 33.4735 23.1153 34.7557 24.3974C36.0379 25.6795 38.1167 25.6795 39.3988 24.3973Z" fill="white"/>
<path d="M37.0776 25.4029C35.2429 25.4029 33.7504 23.9104 33.7504 22.0757C33.7504 20.2411 35.2429 18.7485 37.0776 18.7485C38.9123 18.7485 40.4048 20.2411 40.4048 22.0757C40.4048 23.9104 38.9123 25.4029 37.0776 25.4029ZM37.0776 18.8365C35.2915 18.8365 33.8384 20.2896 33.8384 22.0757C33.8384 23.8619 35.2915 25.3149 37.0776 25.3149C38.8637 25.3149 40.3168 23.8619 40.3168 22.0757C40.3165 20.2896 38.8635 18.8365 37.0776 18.8365Z" fill="#4D4D4F"/>
<path d="M38.1996 22.7223C38.5554 22.103 38.3417 21.3124 37.7224 20.9567C37.103 20.6009 36.3125 20.8146 35.9567 21.4339C35.6009 22.0533 35.8146 22.8438 36.434 23.1996C37.0533 23.5554 37.8439 23.3417 38.1996 22.7223Z" fill="#4D4D4F"/>
<path d="M37.0277 21.9477L38.2581 20.1021L38.5043 21.2096L46.9933 18.0107L47.8547 16.2883L50.5613 15.304L49.6403 17.3829L51.5456 18.2568L48.8389 19.364L47.2395 18.5029L38.6272 21.7016L38.9005 22.4528L37.0277 21.9477Z" fill="#60A899"/>
<path d="M38.9709 22.5174L36.9571 21.9742L38.2787 19.9918L38.5363 21.1504L46.9619 17.9755L47.8232 16.2528L50.6437 15.2272L49.6984 17.3611L51.6563 18.259L48.8363 19.4126L47.236 18.551L38.6835 21.7275L38.9709 22.5174ZM37.0984 21.9211L38.8301 22.388L38.5709 21.6755L38.612 21.6603L47.2429 18.4544L48.8416 19.3152L51.4349 18.2544L49.5827 17.4048L50.4792 15.3806L47.8864 16.3235L47.0253 18.0456L47.0093 18.0518L38.472 21.2688L38.2373 20.2128L37.0984 21.9211Z" fill="#4D4D4F"/>
<path d="M65.8757 31.0464L67.4779 28.7734H74.5976V23.6587H64.2739V28.7734H65.8757V31.0464Z" fill="white"/>
<path d="M65.8317 31.1854V28.8174H64.2299V23.6147H74.6416V28.8174H67.5005L65.8317 31.1854ZM64.3179 28.7291H65.92V30.9072L67.4549 28.7291H74.5536V23.7027H64.3181V28.7291H64.3179Z" fill="#4D4D4F"/>
<path d="M66.8312 26.7294C67.1147 26.7294 67.3445 26.4995 67.3445 26.216C67.3445 25.9325 67.1147 25.7027 66.8312 25.7027C66.5477 25.7027 66.3179 25.9325 66.3179 26.216C66.3179 26.4995 66.5477 26.7294 66.8312 26.7294Z" fill="white"/>
<path d="M69.4832 25.7027C69.1997 25.7027 68.9699 25.9326 68.9699 26.2158C68.9699 26.4992 69.1997 26.7291 69.4832 26.7291C69.7667 26.7291 69.9963 26.4992 69.9963 26.2158C69.9963 25.9326 69.7664 25.7027 69.4832 25.7027Z" fill="white"/>
<path d="M72.1349 26.7294C72.4184 26.7294 72.6483 26.4995 72.6483 26.216C72.6483 25.9325 72.4184 25.7027 72.1349 25.7027C71.8514 25.7027 71.6216 25.9325 71.6216 26.216C71.6216 26.4995 71.8514 26.7294 72.1349 26.7294Z" fill="white"/>
<path d="M66.8312 25.6587C66.524 25.6587 66.2739 25.9088 66.2739 26.216C66.2739 26.5232 66.5237 26.7734 66.8312 26.7734C67.1384 26.7734 67.3885 26.5232 67.3885 26.216C67.3885 25.9088 67.1384 25.6587 66.8312 25.6587ZM66.8312 26.6851C66.5725 26.6851 66.3621 26.4747 66.3621 26.216C66.3621 25.9574 66.5725 25.747 66.8312 25.747C67.0899 25.747 67.3003 25.9574 67.3003 26.216C67.3003 26.4747 67.0899 26.6851 66.8312 26.6851ZM69.4832 25.6587C69.176 25.6587 68.9259 25.9088 68.9259 26.216C68.9259 26.5232 69.1757 26.7734 69.4832 26.7734C69.7904 26.7734 70.0405 26.5232 70.0405 26.216C70.0403 25.9088 69.7904 25.6587 69.4832 25.6587ZM69.4832 26.6851C69.2245 26.6851 69.0141 26.4747 69.0141 26.216C69.0141 25.9574 69.2245 25.747 69.4832 25.747C69.7419 25.747 69.9523 25.9574 69.9523 26.216C69.9523 26.4747 69.7419 26.6851 69.4832 26.6851ZM72.1349 25.6587C71.8277 25.6587 71.5776 25.9088 71.5776 26.216C71.5776 26.5232 71.8275 26.7734 72.1349 26.7734C72.4421 26.7734 72.6923 26.5232 72.6923 26.216C72.6923 25.9088 72.4424 25.6587 72.1349 25.6587ZM72.1349 26.6851C71.8763 26.6851 71.6659 26.4747 71.6659 26.216C71.6659 25.9574 71.8763 25.747 72.1349 25.747C72.3936 25.747 72.604 25.9574 72.604 26.216C72.6043 26.4747 72.3936 26.6851 72.1349 26.6851Z" fill="#4D4D4F"/>
</g>
<defs>
<clipPath id="clip0_397_2169">
<rect width="80" height="80" fill="white"/>
</clipPath>
</defs>
</svg>
