<svg width="81" height="80" viewBox="0 0 81 80" fill="none" xmlns="http://www.w3.org/2000/svg">
<g clip-path="url(#clip0_397_2283)">
<path d="M80.5 68.6235H0.5V68.7955H80.5V68.6235Z" fill="#606060"/>
<path d="M67.6965 52.7133H22.4059C21.8203 52.7133 21.3459 52.2387 21.3459 51.6533V20.8968C21.3459 20.3112 21.8205 19.8368 22.4059 19.8368H67.6965C68.2821 19.8368 68.7565 20.3115 68.7565 20.8968V51.6531C68.7568 52.2387 68.2821 52.7133 67.6965 52.7133Z" fill="#4D4D4F"/>
<path d="M62.9629 22.3798H25.3845V50.1704H62.9629V22.3798Z" fill="white"/>
<path d="M63.0061 50.2133H25.3416V22.3365H63.0061V50.2133ZM25.4275 50.1275H62.92V22.4227H25.4275V50.1275Z" fill="#4D4D4F"/>
<path d="M66.7784 37.2377C67.2969 36.7192 67.2969 35.8786 66.7784 35.36C66.2599 34.8415 65.4192 34.8416 64.9007 35.3601C64.3822 35.8786 64.3822 36.7193 64.9007 37.2378C65.4193 37.7563 66.2599 37.7563 66.7784 37.2377Z" fill="white"/>
<path d="M65.8403 37.6693C65.0843 37.6693 64.4696 37.0544 64.4696 36.2986C64.4696 35.5426 65.0845 34.928 65.8403 34.928C66.596 34.928 67.2109 35.5429 67.2109 36.2986C67.2109 37.0544 66.5963 37.6693 65.8403 37.6693ZM65.8403 35.0138C65.1317 35.0138 64.5555 35.5901 64.5555 36.2986C64.5555 37.0072 65.1317 37.5834 65.8403 37.5834C66.5488 37.5834 67.1251 37.0072 67.1251 36.2986C67.1251 35.5901 66.5488 35.0138 65.8403 35.0138Z" fill="#4D4D4F"/>
<path d="M23.744 32.1648H23.0328V40.416H23.744V32.1648Z" fill="white"/>
<path d="M23.7869 40.459H22.9896V32.1219H23.7869V40.459ZM23.0757 40.3731H23.7011V32.2078H23.0757V40.3731Z" fill="#4D4D4F"/>
<path d="M43.4448 41.024C43.4448 41.024 43.2035 41.684 43.1229 42.5917C43.0424 43.4992 43.6861 44.572 43.6861 44.572L43.9275 43.4168C43.9275 43.4168 44.4907 45.5619 45.0541 46.1395C45.0541 46.1395 46.5832 44.1592 46.6635 42.7568C46.6635 42.7568 46.9773 43.0787 47.1061 43.4379C47.1232 43.4853 47.1371 43.5336 47.1464 43.5819C47.2269 43.9944 47.2269 41.7667 46.6635 41.0243H43.4448V41.024Z" fill="#60A899"/>
<path d="M45.0581 46.2048L45.0235 46.1693C44.5467 45.6805 44.0808 44.1253 43.9333 43.6L43.7059 44.688L43.6493 44.5938C43.6227 44.5496 42.9992 43.4989 43.08 42.5877C43.16 41.685 43.4019 41.0157 43.4043 41.009L43.4147 40.9808H46.6848L46.6976 40.9978C47.1984 41.6581 47.2835 43.5232 47.2048 43.6514L47.1893 43.6765L47.156 43.6744C47.1189 43.6677 47.1104 43.6245 47.1037 43.5898C47.0952 43.5458 47.0821 43.4997 47.0653 43.4522C46.9765 43.2048 46.7957 42.973 46.6981 42.8597C46.5565 44.2493 45.1491 46.0864 45.0877 46.1658L45.0581 46.2048ZM43.9229 43.2293L43.9693 43.4056C43.9749 43.4264 44.5131 45.4597 45.0509 46.0722C45.2669 45.7829 46.5483 44.0176 46.6208 42.7538L46.6264 42.6565L46.6944 42.7264C46.7072 42.7394 47.0067 43.049 47.1405 43.4058C47.1379 42.9016 47.0392 41.6138 46.6421 41.0666H43.4755C43.4296 41.2018 43.2357 41.808 43.1659 42.5952C43.1016 43.3205 43.5147 44.1656 43.6677 44.4501L43.9229 43.2293ZM45.0669 11.3117C45.0669 11.3117 42.8957 15.4328 42.2752 17.1168L45.0669 18.1802L47.8365 17.1168C47.2211 15.4328 45.0669 11.3117 45.0669 11.3117Z" fill="#4D4D4F"/>
<path d="M40.8803 33.3341L38.5685 35.5674V41.2005L42.7147 39.5792L41.7109 33.6514L40.8803 33.3341Z" fill="white"/>
<path d="M38.5256 41.2635V35.5493L40.8701 33.2845L41.7491 33.6203L41.7531 33.6445L42.7629 39.6069L42.7304 39.6197L38.5256 41.2635ZM38.6115 35.5856V41.1373L42.6664 39.5517L41.6725 33.6827L40.8904 33.384L38.6115 35.5856Z" fill="#4D4D4F"/>
<path d="M49.2091 33.3341L51.5208 35.5674V41.2005L47.3747 39.5792L48.3787 33.6514L49.2091 33.3341Z" fill="white"/>
<path d="M51.5637 41.2635L47.3264 39.6067L47.3323 39.5723L48.3403 33.6203L49.2192 33.2845L51.5637 35.5493V41.2635ZM47.4229 39.552L51.4779 41.1376V35.5859L49.1989 33.3843L48.4168 33.6829L47.4229 39.552Z" fill="#4D4D4F"/>
<path d="M47.8037 17.1355C47.8037 17.1355 46.6157 17.4803 45.0448 17.4803C43.4739 17.4803 42.2859 17.1355 42.2859 17.1355C37.1893 29.168 43.4355 41.2006 43.4355 41.2006H45.0448H46.6541C46.6541 41.2006 52.9003 29.168 47.8037 17.1355Z" fill="#60A899"/>
<path d="M46.6803 41.2435H43.4091L43.3971 41.2203C43.3813 41.1902 41.8221 38.1552 40.9072 33.6888C40.3696 31.0656 40.156 28.4686 40.2723 25.9699C40.4176 22.8459 41.0816 19.868 42.2461 17.1187L42.2611 17.0835L42.2976 17.0942C42.3093 17.0976 43.4984 17.4374 45.0448 17.4374C46.5912 17.4374 47.78 17.0976 47.792 17.0942L47.8285 17.0835L47.8435 17.1187C49.008 19.868 49.672 22.8459 49.8173 25.9699C49.9336 28.4686 49.72 31.0656 49.1824 33.6888C48.2672 38.1552 46.708 41.1902 46.6925 41.2203L46.6803 41.2435ZM43.4616 41.1576H46.6277C46.7739 40.868 48.2283 37.9184 49.0987 33.6688C49.9389 29.5664 50.3904 23.3795 47.7789 17.1867C47.5653 17.244 46.4512 17.5232 45.0448 17.5232C43.6384 17.5232 42.524 17.244 42.3107 17.1867C39.6992 23.3795 40.1507 29.5662 40.9909 33.6688C41.8611 37.9184 43.3155 40.868 43.4616 41.1576Z" fill="#4D4D4F"/>
<path d="M45.0448 23.6498C46.2511 23.6498 47.2291 22.6719 47.2291 21.4656C47.2291 20.2592 46.2511 19.2813 45.0448 19.2813C43.8385 19.2813 42.8605 20.2592 42.8605 21.4656C42.8605 22.6719 43.8385 23.6498 45.0448 23.6498Z" fill="white"/>
<path d="M45.0448 23.6928C43.8168 23.6928 42.8176 22.6936 42.8176 21.4656C42.8176 20.2376 43.8168 19.2384 45.0448 19.2384C46.2728 19.2384 47.272 20.2376 47.272 21.4656C47.272 22.6936 46.2728 23.6928 45.0448 23.6928ZM45.0448 19.3243C43.864 19.3243 42.9035 20.2848 42.9035 21.4656C42.9035 22.6464 43.864 23.6069 45.0448 23.6069C46.2256 23.6069 47.1861 22.6464 47.1861 21.4656C47.1859 20.2848 46.2253 19.3243 45.0448 19.3243Z" fill="#4D4D4F"/>
<path d="M45.3896 33.3448H44.5467V42.3419H45.3896V33.3448Z" fill="#4D4D4F"/>
<path d="M54.0064 43.4645H36.1176V47.0531H54.0064V43.4645Z" fill="#60A899"/>
<path d="M54.0493 47.096H36.0747V43.4213H54.0493V47.096ZM36.1605 47.0101H53.9632V43.5075H36.1605V47.0101Z" fill="#4D4D4F"/>
<path d="M56.1189 68.1456C56.1189 68.1456 53.6712 65.756 52.7024 64.9811C51.7336 64.2061 49.0237 60.3312 48.5381 57.9576C48.2464 56.5528 48.7093 56.1944 49.3496 55.9861C49.9899 55.7779 51.3461 56.2624 52.1211 58.1029C52.1211 58.1029 52.7731 58.4531 51.9627 54.8875C51.1523 51.3219 49.9899 46.5749 49.9899 45.0251C49.9899 43.4752 51.9275 43.2813 52.5085 44.9283C53.0899 46.5752 54.5429 52 54.5429 52C54.5429 52 60.5491 51.8061 61.6147 55.1968C62.6803 58.5875 64.0365 64.7875 63.7459 66.7248C63.7461 66.7248 59.6064 68.9205 56.1189 68.1456Z" fill="white"/>
<path d="M57.7021 68.3526C57.1664 68.3526 56.6304 68.3035 56.1096 68.1878L56.0976 68.1851L56.0888 68.1766C56.0643 68.1526 53.6315 65.7795 52.6755 65.0147C51.7528 64.2766 49.0003 60.4318 48.496 57.9664C48.2136 56.6078 48.6277 56.1758 49.3363 55.9456C50.016 55.7243 51.3789 56.2475 52.1533 58.0688C52.1659 58.071 52.1864 58.0707 52.2088 58.0528C52.3181 57.9659 52.5091 57.484 51.9211 54.8971C51.7933 54.3355 51.6571 53.7443 51.5179 53.1411C50.7816 49.9512 49.9472 46.3358 49.9472 45.0251C49.9472 44.3499 50.3235 43.8491 50.9059 43.7494C51.4653 43.6534 52.2187 43.9768 52.5493 44.9139C53.1011 46.4771 54.4539 51.5014 54.576 51.9563C54.8088 51.9523 56.2027 51.9438 57.6891 52.2851C59.8437 52.7798 61.2155 53.7824 61.656 55.184C62.7227 58.5781 64.084 64.7638 63.7888 66.7312L63.7856 66.7526L63.7664 66.7627C63.7309 66.7816 60.7283 68.3526 57.7021 68.3526ZM56.1403 68.1064C59.4496 68.8352 63.3965 66.8565 63.7067 66.6971C63.9869 64.7181 62.6341 58.584 61.5739 55.2099C61.0296 53.4779 59.1504 52.7091 57.6699 52.3691C56.0592 51.9992 54.5595 52.0427 54.5445 52.0432L54.5104 52.0443L54.5016 52.0115C54.4872 51.9574 53.0421 46.5694 52.4683 44.943C52.1541 44.0531 51.4459 43.7446 50.9203 43.8344C50.3813 43.9267 50.0331 44.3942 50.0331 45.0254C50.0331 46.3262 50.8664 49.9366 51.6016 53.1222C51.7408 53.7254 51.8773 54.3166 52.0051 54.8784C52.4408 56.7958 52.5288 57.9176 52.2595 58.123C52.1965 58.171 52.1304 58.1571 52.1013 58.1416L52.088 58.1344L52.0821 58.1206C51.3301 56.3344 50.0155 55.816 49.3635 56.028C48.8032 56.2102 48.2813 56.5086 48.5808 57.9499C49.0456 60.2222 51.7149 64.1366 52.7299 64.9483C53.6595 65.6918 55.9781 67.9483 56.1403 68.1064Z" fill="#4D4D4F"/>
<path d="M21.4893 37.3549C21.4893 37.3549 15.9675 40.7456 15.3861 48.7861C14.8048 56.8267 15.1923 59.1517 15.1923 59.1517H23.2328V55.7611C23.2328 55.7611 25.7515 53.6299 27.3016 50.8205C28.5264 48.6005 33.1141 46.9456 32.0485 45.4925C31.116 44.2208 30.208 44.3301 28.2704 45.3957C26.3328 46.4613 24.5891 48.2051 22.1672 48.5925C21.0976 48.7637 19.5517 47.2363 21.2952 44.0395L21.4893 37.3549Z" fill="white"/>
<path d="M23.276 59.1947H15.156L15.1501 59.1587C15.1464 59.1355 14.7685 56.7365 15.3435 48.7829C15.6445 44.6187 17.2925 41.7237 18.6221 40.0288C20.0635 38.1912 21.4531 37.3269 21.4669 37.3184L21.5347 37.2768L21.3384 44.0509L21.3336 44.06C20.0923 46.336 20.6341 47.5384 20.9248 47.9499C21.2325 48.3856 21.7179 48.6211 22.1611 48.5501C23.8269 48.2835 25.1779 47.3664 26.4845 46.4795C27.0581 46.0901 27.6512 45.6875 28.2501 45.3581C30.0997 44.3408 31.092 44.1152 32.0835 45.4672C32.7115 46.3237 31.496 47.2173 30.0885 48.2523C29.0472 49.0179 27.8672 49.8853 27.3397 50.8416C25.8661 53.5125 23.4896 55.5973 23.2763 55.7811V59.1947H23.276ZM15.2299 59.1088H23.1901V55.7413L23.2053 55.7285C23.2304 55.7072 25.736 53.5699 27.2643 50.8C27.8008 49.8275 28.9891 48.9536 30.0373 48.1829C31.4077 47.1755 32.5912 46.3053 32.0141 45.5179C31.1499 44.3395 30.3149 44.3203 28.2915 45.4333C27.696 45.7608 27.1309 46.1445 26.5325 46.5507C25.2181 47.4429 23.8589 48.3656 22.1744 48.6349C21.6995 48.7107 21.1808 48.4616 20.8544 47.9992C20.5549 47.5752 19.9949 46.3403 21.2531 44.0277L21.444 37.4357C21.1491 37.6323 19.9384 38.4888 18.6872 40.0851C17.3661 41.7704 15.7285 44.6485 15.4291 48.7893C14.8925 56.2125 15.1859 58.7848 15.2299 59.1088Z" fill="#4D4D4F"/>
<path d="M30.644 45.0565L31.7096 46.316C31.7096 46.316 30.5472 47.6723 29.5784 46.9941C28.6096 46.316 30.644 45.0565 30.644 45.0565Z" fill="white"/>
<path d="M30.1669 47.2253C29.9621 47.2253 29.7539 47.1693 29.5539 47.0293C29.3629 46.8957 29.2688 46.7296 29.2741 46.5357C29.2933 45.8499 30.5672 45.0539 30.6213 45.0203L30.6528 45.0008L31.7659 46.3163L31.7421 46.344C31.7328 46.3549 30.9749 47.2253 30.1669 47.2253ZM30.6355 45.1131C30.4384 45.2405 29.3765 45.9549 29.36 46.5381C29.3555 46.7035 29.4349 46.8413 29.6029 46.9589C29.7867 47.0875 29.9789 47.1392 30.1688 47.1392C30.8579 47.1392 31.5187 46.4608 31.6523 46.3152L30.6355 45.1131Z" fill="#4D4D4F"/>
<path d="M12.2864 68.6453C12.2864 68.6453 12.2864 63.0266 12.2864 60.8954C12.2864 58.7642 15.0957 59.1517 15.0957 59.1517H23.2331C23.2331 59.1517 25.2675 59.4424 25.7517 60.6048C26.236 61.7672 26.0424 68.6453 26.0424 68.6453H12.2864Z" fill="#60A899"/>
<path d="M26.0843 68.6882H12.2432V60.8954C12.2432 60.356 12.4211 59.9272 12.7723 59.6213C13.5781 58.9189 15.0037 59.0962 15.0987 59.1088H23.2363L23.2392 59.1093C23.3232 59.1213 25.3032 59.4168 25.7915 60.5885C26.2739 61.7461 26.0933 68.3656 26.0853 68.6469L26.0843 68.6882ZM12.3293 68.6024H26.0005C26.0155 68.0253 26.168 61.7152 25.712 60.6213C25.2509 59.5149 23.3171 59.208 23.2299 59.1946L15.0899 59.1944C15.0752 59.1922 13.6152 59.0005 12.8285 59.6864C12.4973 59.9752 12.3293 60.3821 12.3293 60.8957V68.6024Z" fill="#4D4D4F"/>
<path d="M49.0512 57.2725L50.6005 56.7061C50.6005 56.7061 51.4731 58.2648 50.5027 58.9405C49.5323 59.6162 49.0512 57.2725 49.0512 57.2725Z" fill="white"/>
<path d="M50.1592 59.1061C50.0944 59.1061 50.0304 59.0936 49.9675 59.0685C49.3304 58.8141 49.0219 57.344 49.0091 57.2813L49.0016 57.2451L50.6203 56.6533L50.6381 56.6853C50.6469 56.7013 51.5181 58.2859 50.5272 58.976C50.4027 59.0627 50.2795 59.1061 50.1592 59.1061ZM49.1011 57.3003C49.1531 57.5293 49.4573 58.7723 49.9992 58.9888C50.1528 59.0501 50.3096 59.0229 50.4779 58.9056C51.3301 58.3123 50.6952 56.9837 50.58 56.7597L49.1011 57.3003Z" fill="#4D4D4F"/>
<path d="M50.5472 45.1842L52.1376 44.7461C52.1376 44.7461 52.8803 46.3706 51.8581 46.965C50.8357 47.5594 50.5472 45.1842 50.5472 45.1842Z" fill="white"/>
<path d="M51.5435 47.1034C51.4643 47.1034 51.3877 47.0853 51.3141 47.0485C50.7 46.7429 50.5123 45.2528 50.5045 45.1893L50.5 45.1525L52.1613 44.6946L52.1765 44.728C52.1843 44.7445 52.9235 46.3949 51.8795 47.0018C51.7635 47.0696 51.6512 47.1034 51.5435 47.1034ZM50.5949 45.2157C50.628 45.4482 50.8301 46.7117 51.3525 46.9717C51.5005 47.0456 51.6589 47.0312 51.8365 46.928C52.7344 46.4058 52.2099 45.0301 52.1131 44.7976L50.5949 45.2157Z" fill="#4D4D4F"/>
<path d="M67.3973 68.5755L66.8555 65.7029C66.1317 64.6723 64.0824 64.8275 64.0824 64.8275L56.1368 66.5835C56.1368 66.5835 53.6037 66.788 53.724 68.5755H67.3973Z" fill="#60A899"/>
<path d="M67.4491 68.6184H53.6837L53.6811 68.5784C53.5613 66.7981 56.0277 66.5504 56.1301 66.5408L64.076 64.7848L64.0789 64.7845C64.1637 64.7784 66.1608 64.6395 66.8901 65.6781L66.8955 65.6856L67.4491 68.6184ZM53.7645 68.5325H67.3453L66.8149 65.7203C66.1211 64.7469 64.1768 64.8643 64.0888 64.8704L56.1432 66.6261L56.1403 66.6264C56.1155 66.6283 53.6893 66.8448 53.7645 68.5325Z" fill="#4D4D4F"/>
</g>
<defs>
<clipPath id="clip0_397_2283">
<rect width="80" height="80" fill="white" transform="translate(0.5)"/>
</clipPath>
</defs>
</svg>
